<?xml version="1.0" encoding="UTF-8"?>
<svg id="_レイヤー_2" data-name="レイヤー 2" xmlns="http://www.w3.org/2000/svg" viewBox="0 0 24.72 24.72">
  <defs>
    <style>
      .cls-1 {
        fill: #fff;
      }
    </style>
  </defs>
  <g id="_レイヤー_1-2" data-name="レイヤー 1">
    <g>
      <circle cx="12.36" cy="12.36" r="12.36" transform="translate(-1.83 22.57) rotate(-80.75)"/>
      <path class="cls-1" d="M18.93,9.12c-.09-.86-.42-1.62-1.06-2.23-.67-.64-1.5-.93-2.4-.97-1.54-.08-5.19-.14-6.48,.07-1.47,.24-2.43,1.09-2.83,2.54-.31,1.11-.25,6.25-.07,7.35,.25,1.51,1.14,2.47,2.63,2.86,1.03,.27,6.11,.23,7.25,.05,1.51-.24,2.48-1.13,2.87-2.62,.3-1.14,.19-6.01,.09-7.04Zm-1.21,6.54c-.18,1.14-.93,1.85-2.08,1.98-1.06,.12-5.77,.18-6.75-.09-.94-.26-1.47-.91-1.63-1.85-.15-.9-.19-5.4,0-6.61,.17-1.13,.93-1.84,2.07-1.97,1.16-.13,5.33-.14,6.45,.03,1.14,.18,1.85,.94,1.97,2.09,.12,1.07,.15,5.27-.03,6.43Zm-5.23-6.64c-1.85,0-3.36,1.5-3.36,3.36s1.5,3.36,3.36,3.36,3.36-1.5,3.36-3.36c0-1.85-1.5-3.36-3.36-3.36Zm-.02,5.53c-1.2-.01-2.16-.99-2.15-2.19,.01-1.2,.99-2.16,2.19-2.15,1.2,.01,2.16,.99,2.15,2.19-.01,1.2-.99,2.16-2.19,2.15Zm4.3-5.65c0,.43-.35,.79-.79,.78-.43,0-.79-.35-.78-.79,0-.43,.35-.79,.79-.78,.43,0,.79,.35,.78,.79Z"/>
      <path class="cls-1" d="M18.93,9.12c-.09-.86-.42-1.62-1.06-2.23-.67-.64-1.5-.93-2.4-.97-1.54-.08-5.19-.14-6.48,.07-1.47,.24-2.43,1.09-2.83,2.54-.31,1.11-.25,6.25-.07,7.35,.25,1.51,1.14,2.47,2.63,2.86,1.03,.27,6.11,.23,7.25,.05,1.51-.24,2.48-1.13,2.87-2.62,.3-1.14,.19-6.01,.09-7.04Zm-1.21,6.54c-.18,1.14-.93,1.85-2.08,1.98-1.06,.12-5.77,.18-6.75-.09-.94-.26-1.47-.91-1.63-1.85-.15-.9-.19-5.4,0-6.61,.17-1.13,.93-1.84,2.07-1.97,1.16-.13,5.33-.14,6.45,.03,1.14,.18,1.85,.94,1.97,2.09,.12,1.07,.15,5.27-.03,6.43Zm-5.23-6.64c-1.85,0-3.36,1.5-3.36,3.36s1.5,3.36,3.36,3.36,3.36-1.5,3.36-3.36c0-1.85-1.5-3.36-3.36-3.36Zm-.02,5.53c-1.2-.01-2.16-.99-2.15-2.19,.01-1.2,.99-2.16,2.19-2.15,1.2,.01,2.16,.99,2.15,2.19-.01,1.2-.99,2.16-2.19,2.15Zm4.3-5.65c0,.43-.35,.79-.79,.78-.43,0-.79-.35-.78-.79,0-.43,.35-.79,.79-.78,.43,0,.79,.35,.78,.79Z"/>
    </g>
  </g>
</svg>