<?xml version="1.0" encoding="UTF-8"?>
<svg id="_レイヤー_2" data-name="レイヤー 2" xmlns="http://www.w3.org/2000/svg" viewBox="0 0 24.72 24.72">
  <defs>
    <style>
      .cls-1 {
        fill: #fff;
        fill-rule: evenodd;
      }
    </style>
  </defs>
  <g id="_レイヤー_1-2" data-name="レイヤー 1">
    <g>
      <circle cx="12.36" cy="12.36" r="12.36" transform="translate(-1.83 22.57) rotate(-80.75)"/>
      <path class="cls-1" d="M10.11,16.02c-1.51-.05-2.45-1.14-2.7-2.02,.42,.08,.83,.06,1.25-.04,.01,0,.02,0,.04-.02-.82-.19-1.45-.63-1.89-1.33-.29-.47-.43-.98-.43-1.55,.41,.22,.84,.34,1.29,.35-.62-.44-1.03-1.02-1.2-1.76-.17-.74-.06-1.44,.31-2.11,1.57,1.85,3.57,2.87,5.99,3.04-.02-.12-.03-.22-.05-.32-.08-.68,.06-1.32,.42-1.9,.46-.73,1.12-1.18,1.97-1.31,.98-.16,1.83,.12,2.54,.81,.05,.05,.09,.06,.15,.05,.6-.13,1.16-.34,1.69-.65,.01,0,.03-.01,.04-.02,0,0,0,0,.02,0-.23,.68-.65,1.2-1.24,1.58,.56-.06,1.1-.21,1.62-.44,0,0,0,0,.01,.01-.11,.15-.22,.29-.33,.44-.31,.38-.66,.71-1.06,1-.03,.02-.05,.05-.05,.09,.02,.43,0,.86-.05,1.29-.11,.9-.36,1.76-.75,2.59-.4,.85-.92,1.62-1.57,2.29-1.11,1.14-2.44,1.88-3.99,2.23-.53,.12-1.07,.18-1.62,.19-1.68,.05-3.22-.37-4.65-1.25-.02-.01-.04-.02-.07-.04,1.01,.11,1.98-.02,2.91-.4,.49-.2,.95-.47,1.38-.81Z"/>
    </g>
  </g>
</svg>