<?xml version="1.0" encoding="UTF-8"?>
<svg id="_レイヤー_2" data-name="レイヤー 2" xmlns="http://www.w3.org/2000/svg" width="327.75" height="216.75" viewBox="0 0 327.75 216.75">
  <defs>
    <style>
      .cls-1 {
        fill: none;
        stroke: #e7d3d5;
        stroke-linecap: round;
      }

      .cls-1, .cls-2 {
        stroke-miterlimit: 10;
      }

      .cls-2 {
        fill: #fff;
        stroke: #000;
        stroke-width: .75px;
      }

      .cls-3 {
        fill: #e7d3d5;
      }
    </style>
  </defs>
  <g id="_レイヤー_11" data-name="レイヤー 11">
    <g>
      <rect class="cls-2" x=".38" y="26.38" width="327" height="190"/>
      <path class="cls-2" d="m75.04,51.4c.36,2.15.56,4.4.56,6.73,0,14.09-7.04,25.52-15.71,25.52s-15.71-11.42-15.71-25.52c0-2.33.2-4.59.56-6.73h30.31Zm-15.16,32.25v13.11m6.46,0h-12.93"/>
      <g>
        <path d="m24.99,110.86c-.15,0-.27-.05-.36-.15-.09-.1-.13-.22-.13-.35s.04-.25.13-.35c.09-.1.21-.14.36-.14h4.32v-1.92h-2.89c-.14,0-.26-.05-.35-.14-.09-.1-.14-.21-.14-.35s.05-.25.14-.35c.09-.1.21-.14.35-.14h6.96c.15,0,.27.05.36.14.09.1.13.21.13.35s-.04.25-.13.35c-.09.1-.21.14-.36.14h-2.93v1.92h4.32c.15,0,.27.05.37.14.09.1.14.21.14.35s-.05.25-.14.35c-.09.1-.21.15-.37.15h-9.78Zm7.42-4.61c-.59,0-1.05-.05-1.37-.15-.32-.1-.55-.27-.67-.5-.12-.24-.19-.56-.19-.97v-1.09c0-.16.05-.29.16-.38.1-.1.23-.14.37-.14s.27.05.37.14c.1.1.16.22.16.38v.96c0,.21.03.37.09.47.06.11.18.18.36.22.18.04.45.05.81.05.3,0,.54-.02.7-.05s.29-.11.38-.21c.09-.1.17-.25.25-.44.06-.14.18-.22.34-.26-.14-.09-.22-.23-.22-.42v-.43c0-.27-.07-.46-.2-.57-.14-.11-.38-.16-.73-.16h-6.2c-.35,0-.59.05-.73.16-.13.11-.2.3-.2.57v.43c0,.16-.05.29-.16.38-.1.09-.23.14-.38.14s-.28-.05-.39-.15c-.11-.1-.16-.23-.16-.39v-.46c0-.61.15-1.04.44-1.28.3-.25.81-.37,1.54-.37h2.56v-1.04c0-.17.06-.3.17-.41.11-.1.25-.16.41-.16s.29.05.4.16c.11.1.16.24.16.41v1.04h2.58c.74,0,1.25.12,1.54.37.29.25.44.68.44,1.28v.46c0,.14-.04.25-.11.34-.08.09-.17.15-.28.18.11.06.18.15.21.26.03.11.02.23-.02.36-.11.32-.26.57-.44.76-.18.19-.42.32-.73.4-.31.08-.72.12-1.23.12Zm-6.82.38c-.15.06-.3.07-.43.03-.14-.04-.24-.13-.31-.28-.06-.14-.06-.27,0-.4.06-.13.16-.22.32-.28.61-.21,1.15-.5,1.64-.87.48-.37.85-.86,1.11-1.46.06-.13.16-.21.3-.25s.27-.03.4.04c.13.07.21.17.25.29.04.12.02.25-.04.39-.31.68-.74,1.24-1.29,1.69-.55.45-1.19.81-1.94,1.09Z"/>
        <path d="m40.05,109.1c-.38.04-.73-.02-1.05-.19s-.61-.45-.87-.86c-.14-.24-.28-.55-.4-.92-.12-.38-.22-.79-.31-1.25-.08-.46-.14-.92-.17-1.4-.03-.48-.04-.95-.01-1.4.02-.15.08-.28.19-.38.11-.1.24-.15.39-.14.15,0,.28.07.38.18.1.11.14.24.13.4.03.47.06.89.1,1.26s.07.76.13,1.16.12.78.2,1.13.18.61.29.79c.22.37.51.54.86.52.21-.02.39-.12.55-.31.16-.19.3-.49.44-.9.05-.14.14-.25.27-.32.13-.07.27-.08.41-.03.14.05.24.14.31.28.07.14.08.27.04.41-.24.66-.52,1.15-.84,1.46-.32.31-.66.48-1.03.52Zm6.35-2.05c-.14.05-.28.04-.42-.03-.14-.07-.23-.17-.29-.32-.2-.5-.48-.97-.83-1.43-.35-.46-.75-.84-1.19-1.13-.13-.09-.2-.21-.21-.37-.01-.16.03-.29.14-.39.11-.13.24-.19.38-.18.14,0,.28.06.41.14.28.19.58.45.89.77.31.32.6.67.87,1.06.27.38.47.77.59,1.16.05.14.04.29-.02.43-.06.14-.17.24-.32.29Z"/>
        <path d="m49.59,110.44c-.13-.09-.21-.2-.23-.35-.03-.14,0-.28.08-.41.34-.53.63-1.11.88-1.76.25-.64.47-1.31.64-2,.18-.69.31-1.36.41-2.01-.25.03-.49.06-.72.08-.23.02-.45.04-.66.05-.15,0-.29-.04-.4-.14-.12-.1-.18-.22-.19-.37,0-.15.04-.28.13-.4.1-.11.22-.17.37-.18.22-.02.47-.03.75-.05.28-.02.56-.04.86-.07.03-.33.05-.64.07-.92.01-.29,0-.55,0-.79,0-.15.04-.28.14-.39.1-.11.23-.17.38-.17.15-.02.28.03.39.13.11.1.17.23.17.38.02.22.02.47,0,.74-.01.27-.03.56-.07.88.26-.04.5-.08.73-.11.23-.04.43-.08.61-.13.14-.04.28-.02.4.07s.2.2.23.35c.03.15,0,.29-.07.41-.08.12-.2.2-.35.23-.22.04-.48.08-.77.13s-.59.09-.91.13c-.1.73-.25,1.49-.45,2.27s-.43,1.55-.71,2.27c-.28.73-.59,1.38-.95,1.94-.08.13-.19.21-.34.24-.15.03-.29,0-.41-.07Zm8.34-.3c-1.14.25-2.12.26-2.96.04s-1.44-.67-1.81-1.34c-.07-.14-.09-.28-.04-.42.04-.14.13-.25.26-.32s.26-.09.41-.05c.14.04.25.13.32.26.19.35.46.6.81.75s.76.22,1.24.21c.48,0,.99-.07,1.55-.19.14-.03.28,0,.41.07.13.08.21.2.24.35.03.14,0,.28-.08.4-.08.12-.2.2-.34.23Zm-.58-4.66c-.44-.1-.94-.16-1.51-.17-.56,0-1.09.03-1.57.12-.15.03-.29,0-.41-.08s-.2-.2-.23-.35c-.03-.14,0-.28.08-.41s.2-.2.35-.23c.57-.09,1.16-.13,1.79-.12.62,0,1.21.07,1.75.18.14.03.26.11.34.25.08.13.1.27.06.41-.03.14-.11.25-.24.33-.13.08-.27.1-.42.07Z"/>
        <path d="m62.78,110.47c-.14.06-.29.07-.43.01-.14-.06-.24-.16-.31-.3-.06-.14-.07-.28-.01-.42.06-.14.16-.25.3-.31,1.35-.59,2.53-1.34,3.53-2.24,1-.9,1.79-1.93,2.35-3.09.14-.3.16-.52.07-.67-.09-.15-.34-.23-.74-.23h-1.74c-.38.51-.82,1.02-1.31,1.52-.49.5-.98.92-1.46,1.25-.13.09-.27.12-.42.1-.15-.02-.27-.1-.36-.23-.08-.13-.11-.27-.08-.42s.1-.27.23-.36c.47-.33.92-.71,1.36-1.14.43-.43.82-.88,1.17-1.36.35-.47.62-.93.82-1.38.06-.14.17-.23.31-.29.14-.06.28-.05.42.01.14.06.23.16.29.31s.05.29-.01.43c-.03.08-.07.16-.11.23s-.08.16-.13.25h1.03c.88,0,1.47.21,1.78.64.31.43.27,1.03-.11,1.82-.61,1.25-1.47,2.38-2.58,3.39s-2.4,1.84-3.85,2.48Zm8.11-7.52c-.09.08-.19.11-.32.1-.12-.01-.22-.06-.29-.15-.24-.29-.5-.56-.78-.82-.08-.07-.12-.16-.13-.27,0-.11.03-.2.11-.28.09-.09.19-.13.29-.13.11,0,.21.04.29.11.12.09.26.21.43.37.16.16.31.3.43.43.09.09.13.19.12.32s-.06.23-.14.32Zm1-1c-.08.08-.18.12-.31.11s-.23-.05-.31-.14c-.12-.14-.25-.27-.39-.41-.14-.14-.28-.26-.41-.37-.08-.06-.13-.15-.14-.26-.02-.11.02-.21.1-.29.08-.09.17-.13.28-.13s.21.03.31.1c.12.08.27.2.44.35.17.15.32.29.45.42.09.08.13.18.13.31,0,.12-.05.23-.14.32Z"/>
        <path d="m75.88,110.28c-.15.05-.3.04-.43-.04-.14-.07-.23-.18-.28-.32-.05-.14-.04-.28.04-.42.07-.14.18-.23.32-.28,1.01-.33,1.89-.79,2.65-1.39.76-.6,1.32-1.28,1.69-2.03.19-.4.23-.7.12-.89-.11-.19-.4-.29-.86-.29h-4.31c-.18-.1-.32-.18-.41-.26s-.14-.17-.14-.28c0-.15.05-.28.16-.38.11-.1.24-.16.39-.16h4.31c.98,0,1.61.25,1.89.76.28.5.23,1.16-.16,1.98-.43.9-1.08,1.69-1.95,2.39-.87.7-1.88,1.23-3.03,1.61Zm-.29-7.84c-.15,0-.28-.05-.39-.16-.11-.1-.16-.23-.16-.38s.05-.28.16-.38c.11-.1.24-.16.39-.16h4.46c.15,0,.28.05.39.16.11.1.16.23.16.38s-.05.28-.16.38c-.11.1-.24.16-.39.16h-4.46Z"/>
        <path d="m86.03,109.85c-.14.06-.28.07-.43.02-.15-.05-.25-.15-.32-.28-.06-.14-.07-.28-.02-.43.05-.15.14-.25.28-.32,1.17-.56,2.22-1.25,3.15-2.08.93-.83,1.68-1.73,2.24-2.72.35-.62.12-.94-.71-.94h-3.38c-.15,0-.28-.06-.39-.17-.11-.11-.16-.24-.16-.4s.05-.28.16-.39c.11-.11.24-.16.39-.16h3.38c.64,0,1.13.11,1.47.34.34.22.53.53.56.92.04.39-.09.84-.38,1.34-.11.19-.23.39-.37.58-.13.2-.27.39-.43.59.38.3.78.65,1.19,1.03.41.38.79.75,1.15,1.11.36.36.65.66.88.91.11.1.17.23.17.38s-.06.28-.17.4c-.11.1-.24.16-.4.16s-.28-.06-.4-.17c-.16-.16-.36-.37-.6-.62s-.5-.52-.79-.8-.58-.57-.87-.85-.57-.53-.83-.76c-.6.66-1.28,1.27-2.03,1.84-.75.57-1.54,1.05-2.35,1.45Z"/>
      </g>
      <g>
        <path d="m156.72,110.98c-.66,0-1.2-.04-1.63-.13s-.77-.24-1.01-.47-.42-.54-.53-.95c-.1-.41-.16-.94-.16-1.59v-3.17c0-.65.05-1.18.16-1.59.1-.41.28-.73.53-.95.25-.22.59-.38,1.01-.47.43-.09.97-.13,1.63-.13h.92c.66,0,1.2.04,1.63.13.43.09.77.24,1.01.47.25.22.42.54.52.95.1.41.15.94.15,1.59v3.17c0,.65-.05,1.18-.15,1.59-.1.41-.27.73-.52.95s-.59.38-1.01.47c-.43.09-.97.13-1.63.13h-.92Zm-2.2-5.33h5.3v-.98c0-.46-.03-.82-.09-1.1-.06-.28-.17-.49-.32-.64-.15-.15-.37-.25-.66-.3s-.66-.08-1.12-.08h-.92c-.46,0-.83.03-1.12.08-.29.05-.51.15-.67.3-.16.15-.26.36-.32.64-.06.28-.09.64-.09,1.1v.98Zm2.2,4.3h.92c.46,0,.83-.03,1.12-.08.29-.05.51-.15.66-.3.15-.15.26-.36.32-.64.06-.28.09-.64.09-1.1v-1.16h-5.3v1.16c0,.46.03.82.09,1.1.06.28.17.49.32.64.16.15.38.25.67.3.29.05.66.08,1.12.08Z"/>
        <path d="m169.18,111.81c-.15,0-.28-.05-.38-.15-.1-.1-.16-.23-.16-.39v-1.75h-1.8c-.14,0-.25-.05-.35-.15s-.15-.22-.15-.37c0-.14.05-.25.15-.35.1-.1.22-.15.35-.15h1.8v-3.38c-.34.52-.73,1.05-1.18,1.58s-.93,1.04-1.43,1.52c-.51.48-1.03.92-1.55,1.3-.13.1-.27.14-.44.14s-.3-.07-.4-.2c-.1-.13-.14-.27-.11-.41.03-.15.12-.27.25-.37.57-.38,1.13-.82,1.67-1.34.55-.52,1.06-1.06,1.53-1.63.47-.56.86-1.1,1.18-1.6h-3.85c-.14,0-.25-.05-.35-.14-.1-.1-.15-.22-.15-.36,0-.14.05-.25.15-.35.1-.1.22-.15.35-.15h4.33v-1.88c0-.16.05-.29.16-.39.1-.1.23-.15.38-.15s.28.05.38.15c.1.1.16.23.16.39v1.88h4.32c.14,0,.26.05.36.15.1.1.14.22.14.35,0,.14-.05.26-.14.36-.1.1-.22.14-.36.14h-3.82c.34.54.75,1.1,1.23,1.66.48.56,1.01,1.09,1.57,1.6.56.5,1.11.94,1.66,1.32.12.08.18.2.19.35,0,.15-.03.28-.12.4-.1.11-.22.18-.37.21-.15.03-.3,0-.43-.1-.51-.38-1.03-.81-1.54-1.29-.52-.48-1-.98-1.46-1.52s-.86-1.09-1.22-1.65v3.43h1.85c.14,0,.26.05.36.15.1.1.16.22.16.35,0,.14-.05.27-.16.37-.1.1-.22.15-.36.15h-1.85v1.75c0,.16-.05.29-.16.39-.1.1-.23.15-.38.15Z"/>
        <path d="m177.24,105.76c-.11-.09-.26-.19-.44-.31-.18-.12-.36-.24-.55-.36-.19-.12-.35-.23-.5-.31-.12-.06-.2-.16-.24-.3-.04-.14-.02-.26.05-.38.07-.13.17-.22.31-.26s.26-.03.39.05c.14.08.32.18.52.3s.4.24.6.37.35.23.46.31c.14.1.22.21.24.35s0,.28-.1.41c-.08.12-.19.19-.34.22-.15.03-.28,0-.4-.09Zm-1.31,5.57c-.13-.08-.21-.19-.24-.34-.03-.14,0-.28.08-.41.13-.19.27-.43.43-.7s.32-.57.49-.87.33-.6.47-.88c.15-.28.27-.53.37-.75.07-.15.18-.25.31-.28.14-.04.27-.02.41.04.28.14.35.38.22.71-.13.3-.29.65-.5,1.05-.2.4-.41.81-.63,1.21-.22.4-.42.74-.6,1.02-.09.14-.21.22-.37.26s-.31.02-.45-.06Zm1.94-8.26c-.11-.09-.26-.19-.44-.31-.18-.12-.37-.24-.56-.36-.19-.12-.35-.22-.5-.3-.11-.07-.19-.17-.23-.31-.04-.13-.03-.26.04-.39.07-.13.17-.21.31-.26s.26-.03.39.04c.14.08.32.18.52.31s.4.25.6.37c.2.12.35.22.46.31.14.1.22.21.24.35.02.14,0,.28-.1.41-.08.12-.19.19-.34.22-.14.02-.28,0-.4-.08Zm3.49,8.39c-.58,0-1.05-.06-1.39-.19-.34-.13-.58-.35-.73-.65-.14-.31-.22-.72-.22-1.24v-3.42c0-.5.07-.9.2-1.2s.35-.51.65-.65c.3-.14.72-.22,1.24-.23v-1.64h-2.11c-.13,0-.24-.05-.34-.14-.1-.09-.14-.2-.14-.33s.05-.24.14-.33c.1-.09.21-.14.34-.14h7.16c.14,0,.25.05.34.14.09.09.14.2.14.33s-.05.24-.14.33c-.09.09-.21.14-.34.14h-2.42v1.64h.05c.58,0,1.05.06,1.39.19.34.13.58.34.73.65.14.3.22.72.22,1.25v3.42c0,.52-.07.93-.22,1.24-.14.31-.39.53-.73.65-.34.13-.8.19-1.39.19h-2.44Zm-1.33-3.05h5.1v-1.33c-.22.27-.57.41-1.03.41s-.81-.08-1-.23c-.2-.16-.29-.48-.29-.98v-1.43h-.73c-.02.62-.11,1.15-.29,1.57s-.48.82-.9,1.2c-.1.09-.22.14-.37.14-.15,0-.28-.04-.38-.14-.02-.02-.04-.04-.05-.07s-.03-.06-.04-.09v.95Zm0-1.32c.04-.09.09-.16.16-.22.35-.28.59-.57.72-.86s.2-.68.22-1.16c-.42.02-.7.1-.86.26-.16.16-.23.44-.23.83v1.14Zm1.33,3.38h2.44c.5,0,.85-.08,1.04-.23.19-.15.29-.44.29-.88h-5.1c0,.43.1.72.29.88.19.15.54.23,1.04.23Zm.72-6.61h.72v-1.64h-.72v1.64Zm2.03,2.6c.09,0,.16-.02.22-.05.06-.04.11-.13.15-.27.03-.13.11-.22.23-.27s.25-.05.38,0c0,0,.02,0,.02.01,0-.4-.11-.67-.29-.82-.19-.14-.53-.22-1.03-.22h-.05v1.28c0,.14.03.23.09.27.06.04.15.07.27.07Z"/>
        <path d="m190.18,111.81c-.15,0-.28-.05-.38-.14-.1-.1-.16-.23-.16-.4v-6.22c-.19.28-.39.55-.59.8s-.4.49-.6.7c-.1.11-.23.17-.37.18-.14,0-.28-.04-.4-.13-.1-.09-.16-.2-.17-.34-.01-.14.03-.26.14-.37.27-.3.55-.64.84-1.03.29-.39.57-.8.84-1.24.27-.43.52-.86.73-1.28.22-.42.39-.81.52-1.16.06-.16.15-.27.29-.32.14-.05.28-.05.42,0,.14.06.24.15.3.27s.05.26-.01.41c-.1.28-.23.57-.38.87-.15.3-.31.6-.47.91v7.93c0,.17-.05.3-.16.4-.1.1-.23.14-.38.14Zm6.05-.71c-.58-.54-1.11-1.28-1.58-2.22-.47-.94-.82-2.14-1.05-3.61l-1.98.19c-.15,0-.28-.03-.4-.12s-.18-.21-.19-.36c-.02-.14.02-.27.11-.38.09-.11.21-.18.37-.19l1.94-.18c-.1-.88-.14-1.85-.14-2.9,0-.17.05-.3.16-.4.1-.1.23-.15.38-.15.16,0,.29.05.4.14s.16.24.16.42c0,.51,0,1,.02,1.46.02.46.06.9.1,1.33l3.28-.32c.16-.02.29.02.4.11s.17.21.19.37c.02.15-.02.28-.11.39s-.21.17-.37.19l-3.25.31c.21,1.3.52,2.37.93,3.2s.87,1.46,1.36,1.9c.29.26.5.2.62-.16.06-.15.11-.31.16-.47.05-.16.1-.32.14-.47.05-.18.14-.3.28-.36.14-.06.27-.07.41-.02.15.05.26.13.33.25.07.12.08.26.03.42-.05.18-.11.39-.19.62-.08.23-.15.44-.21.62-.21.59-.53.92-.95.98-.43.06-.88-.13-1.35-.57Zm1.36-7.84c-.1.1-.22.15-.36.15-.14,0-.27-.06-.38-.16-.1-.1-.23-.23-.38-.37-.15-.14-.3-.28-.46-.42-.15-.14-.28-.25-.4-.34-.1-.09-.16-.2-.16-.33,0-.13.04-.25.13-.35.1-.11.21-.17.35-.18.14,0,.27.03.38.12s.25.2.42.35c.17.14.33.29.5.43.16.14.29.26.39.36.11.1.16.23.16.37,0,.14-.07.27-.18.38Z"/>
      </g>
      <path d="m122.67,82.25c0,1.18-.41,1.77-1.23,1.77s-1.26-.59-1.26-1.77v-6.84h-6.84c-1.18,0-1.77-.42-1.77-1.26s.59-1.23,1.77-1.23h6.87v-6.87c0-1.18.42-1.77,1.26-1.77s1.23.59,1.23,1.77v6.84l6.84.03c1.18,0,1.77.41,1.77,1.23s-.59,1.23-1.77,1.23l-6.84.03-.03,6.84Z"/>
      <g>
        <circle class="cls-2" cx="176.18" cy="73.81" r="16.47"/>
        <circle class="cls-2" cx="176.31" cy="73.93" r="14.3"/>
        <path d="m176.12,79.7c-.31,0-.46-.17-.46-.5v-2.35h-2.38c-.33,0-.5-.14-.5-.41s.17-.41.5-.41h2.38v-.84l-.27-.46h-2.11c-.33,0-.5-.13-.5-.41s.14-.39.43-.39h1.71l-2.43-4.14c-.1-.17-.13-.31-.09-.43.04-.12.13-.17.29-.17h.15c.27,0,.46.12.58.34l2.7,4.64,2.67-4.64c.14-.23.35-.34.63-.34.18,0,.3.06.36.17.06.11.04.26-.06.43l-2.42,4.14h1.63c.33,0,.5.13.5.39s-.17.41-.5.41h-2.1l-.25.46v.84h2.36c.33,0,.5.13.5.41s-.17.41-.5.41h-2.36v2.35c0,.33-.16.5-.46.5Z"/>
      </g>
      <g>
        <path d="m215.17,67.92l7.72,5.7-7.72,5.72v-11.42Z"/>
        <path d="m225.77,67.92l7.72,5.7-7.72,5.72v-11.42Z"/>
        <path d="m236.36,67.92l7.72,5.7-7.72,5.72v-11.42Z"/>
      </g>
      <path class="cls-2" d="m5.38.38h317c2.76,0,5,2.24,5,5v21H.38V5.38C.38,2.62,2.62.38,5.38.38Z"/>
      <g>
        <path d="m34.28,19.66c-.35,0-.53-.12-.53-.35,0-.54.12-1.06.36-1.56.24-.5.56-.99.97-1.47.41-.49.86-.98,1.38-1.48.38-.38.74-.76,1.08-1.13s.62-.74.84-1.1c.22-.37.34-.74.35-1.11.02-.73-.15-1.27-.52-1.63s-.88-.54-1.54-.54c-.49,0-.91.15-1.25.45-.34.3-.55.74-.62,1.31-.06.34-.23.51-.5.51-.15,0-.27-.05-.35-.14-.08-.1-.12-.23-.1-.42.11-.79.41-1.42.92-1.9.51-.48,1.14-.72,1.9-.72.92,0,1.65.27,2.21.82.55.54.82,1.31.78,2.29-.01.49-.14.96-.38,1.4s-.56.87-.94,1.29c-.38.42-.79.84-1.22,1.28-.37.37-.73.74-1.07,1.11-.34.37-.63.74-.86,1.11s-.38.75-.43,1.12h4.27c.35,0,.53.14.53.43s-.18.45-.53.45h-4.74Z"/>
        <path d="m48.23,21.02c-.14,0-.26-.05-.35-.14s-.14-.21-.14-.35v-7.54c-.31.64-.65,1.28-1.02,1.91s-.72,1.17-1.05,1.61c-.08.11-.18.18-.31.21-.13.03-.26.01-.38-.06-.11-.07-.17-.17-.19-.3-.02-.12,0-.24.08-.34.25-.31.51-.68.78-1.11.28-.43.55-.89.82-1.36s.51-.94.73-1.38c.22-.45.4-.85.54-1.2v-.37h-2.3c-.12,0-.22-.04-.31-.14-.09-.09-.14-.19-.14-.31s.04-.22.14-.31c.09-.09.19-.14.31-.14h2.3v-2.96c0-.15.05-.27.14-.36s.21-.14.35-.14c.13,0,.24.04.34.14.1.09.14.21.14.36v2.96h1.86c.12,0,.22.04.31.14s.14.19.14.31-.04.22-.14.31-.19.14-.31.14h-1.86v.99c.17.22.38.49.64.81.26.32.51.62.78.93.26.3.48.55.65.74.08.11.13.22.13.35s-.05.24-.14.34-.22.14-.36.14c-.14,0-.26-.06-.34-.17-.17-.21-.38-.48-.62-.8s-.49-.64-.72-.96v7.57c0,.14-.05.26-.14.35-.1.1-.21.14-.34.14Zm6.67-.06c-.14,0-.26-.05-.35-.14-.1-.1-.14-.21-.14-.35v-8.16c-.49.78-1.03,1.51-1.62,2.21-.59.69-1.21,1.33-1.86,1.92-.11.1-.23.15-.37.15-.14,0-.27-.04-.38-.15-.1-.1-.14-.22-.14-.36,0-.14.06-.26.17-.34.5-.41.99-.88,1.47-1.42.48-.54.93-1.12,1.35-1.73.42-.61.8-1.23,1.14-1.85.34-.62.61-1.21.82-1.78h-4.21c-.13,0-.24-.04-.33-.14s-.14-.19-.14-.31c0-.13.04-.24.14-.33.09-.09.2-.14.33-.14h8.1c.13,0,.24.05.33.14.09.09.14.2.14.33,0,.12-.04.22-.14.31s-.2.14-.33.14h-2.86c-.18.53-.39,1.04-.62,1.52v9.98c0,.14-.05.26-.14.35-.1.1-.21.14-.35.14Zm3.86-4.77c-.33-.29-.69-.62-1.06-1-.38-.38-.74-.77-1.09-1.17-.35-.4-.65-.78-.9-1.13-.08-.11-.1-.23-.08-.36s.08-.24.19-.31c.11-.07.22-.1.35-.09.13.02.23.08.3.18.27.33.58.69.94,1.08s.72.76,1.08,1.11c.36.35.69.66.99.91.12.09.18.21.18.36,0,.15-.04.29-.14.39-.1.11-.22.16-.37.16s-.28-.05-.4-.14Z"/>
        <path d="m67.64,20.19c-.81,0-1.49-.06-2.02-.17-.54-.11-.96-.3-1.27-.58-.31-.27-.53-.65-.66-1.13-.13-.48-.19-1.09-.19-1.82v-5.66c0-.74.06-1.35.19-1.83s.35-.86.66-1.14c.31-.27.73-.46,1.27-.58.54-.11,1.21-.17,2.02-.17h1.26c.82,0,1.5.06,2.03.17s.95.3,1.26.58c.3.27.52.65.65,1.14s.19,1.1.19,1.83v5.66c0,.74-.06,1.34-.19,1.82-.13.48-.34.86-.65,1.13-.3.27-.72.46-1.26.58-.53.11-1.21.17-2.03.17h-1.26Zm-3.12-9.09h7.49v-.34c0-.74-.08-1.3-.25-1.68s-.47-.64-.91-.78c-.44-.13-1.08-.2-1.93-.2h-1.3c-.84,0-1.49.07-1.94.2-.45.13-.75.39-.92.78-.17.38-.25.94-.25,1.68v.34Zm0,3.97h7.49v-2.98h-7.49v2.98Zm3.1,4.13h1.3c.84,0,1.49-.07,1.93-.2.44-.13.75-.39.91-.78.17-.38.25-.94.25-1.68v-.46h-7.49v.46c0,.74.08,1.3.25,1.68.17.38.47.64.92.78.45.13,1.09.2,1.94.2Z"/>
        <path d="m77.77,19.2c-.15.05-.3.06-.44,0-.14-.05-.24-.16-.3-.33-.05-.15-.04-.29.03-.42.08-.13.19-.22.35-.27.21-.08.46-.16.73-.26.27-.1.56-.21.87-.33V7.57c0-.15.05-.27.16-.38s.23-.15.37-.15c.15,0,.27.05.38.15s.15.23.15.38v9.58c.66-.28,1.31-.56,1.95-.84.64-.28,1.17-.53,1.6-.74.15-.08.29-.09.42-.03s.21.14.26.26c.12.32.02.55-.29.7-.37.19-.83.41-1.36.66-.53.25-1.09.5-1.68.75s-1.16.5-1.71.73-1.05.42-1.49.57Zm4.48,1.1c-.17.04-.33.04-.48,0-.15-.04-.25-.14-.3-.29-.05-.17-.04-.32.05-.46.08-.13.21-.22.38-.26,1.11-.3,2.08-.69,2.9-1.16s1.51-1.1,2.06-1.89c.54-.78.95-1.78,1.22-2.99.27-1.21.4-2.7.4-4.46v-1.3c0-.15.05-.27.16-.38s.23-.15.37-.15c.15,0,.28.05.38.15s.16.23.16.38v1.3c0,1.62-.12,3.03-.36,4.23-.24,1.2-.59,2.23-1.06,3.1.32.26.68.56,1.09.92s.79.71,1.17,1.07c.37.36.68.66.91.92.12.12.18.25.18.4,0,.15-.04.28-.15.4-.12.12-.26.18-.42.18-.16,0-.3-.05-.42-.17-.25-.28-.54-.59-.88-.94-.34-.35-.69-.69-1.04-1.04-.35-.35-.68-.65-.98-.9-.61.83-1.36,1.51-2.25,2.03-.89.52-1.92.96-3.1,1.3Zm2.98-8.43c-.26-.26-.57-.55-.94-.87-.37-.33-.75-.64-1.14-.94-.38-.3-.71-.55-.99-.74-.11-.09-.17-.2-.18-.33-.02-.13.02-.25.1-.36.1-.12.21-.18.35-.2.14-.02.27.02.38.1.32.2.68.46,1.07.77s.78.63,1.16.95c.38.33.69.61.94.86.12.11.18.23.18.38s-.05.27-.16.39c-.11.11-.23.16-.38.16s-.28-.05-.39-.16Z"/>
        <path d="m94.03,21.04c-.14,0-.25-.05-.34-.14-.09-.09-.14-.21-.14-.34v-12c0-.47.06-.84.18-1.1.12-.27.34-.46.66-.57.31-.11.76-.17,1.34-.17,1,0,1.66.2,1.97.6.31.4.29.91-.05,1.54-.16.3-.34.62-.53.98-.19.35-.36.65-.5.9-.15.27-.24.47-.28.62-.04.14-.02.27.05.39s.19.27.36.45c.37.38.67.82.9,1.32s.34,1.03.34,1.59c0,.8-.22,1.42-.66,1.87-.44.45-1.13.68-2.06.7-.32,0-.5-.15-.53-.45-.01-.15.03-.27.11-.38.09-.1.2-.16.35-.17.66-.04,1.13-.2,1.4-.46.27-.26.41-.69.41-1.29,0-.44-.11-.86-.32-1.27-.21-.41-.48-.78-.78-1.11-.25-.27-.41-.49-.5-.66-.09-.18-.11-.37-.05-.58.06-.21.18-.5.36-.86.12-.23.27-.53.46-.9.19-.36.35-.67.46-.91.17-.35.19-.6.06-.75-.13-.15-.48-.22-1.03-.22-.49,0-.81.06-.96.18-.15.12-.22.36-.22.74v11.98c0,.14-.05.25-.14.34-.09.09-.2.14-.33.14Zm8.99-.02c-.14,0-.26-.05-.35-.14s-.14-.21-.14-.35v-2.06h-4.93c-.13,0-.24-.04-.33-.14s-.14-.2-.14-.33.04-.24.14-.33c.09-.09.2-.14.33-.14h1.82v-1.22c0-.48.06-.86.19-1.14.13-.28.35-.47.66-.59.31-.12.75-.18,1.3-.18h.94v-1.26c0-.15.05-.27.14-.36s.21-.14.35-.14.25.04.34.14c.09.09.14.21.14.36v1.26h2.45c.13,0,.23.05.32.14.09.09.13.2.13.33s-.04.24-.13.34c-.08.1-.19.14-.32.14h-2.45v2.18h3.5c.13,0,.24.05.33.14.09.09.14.2.14.33s-.05.24-.14.33c-.09.09-.2.14-.33.14h-3.5v2.06c0,.14-.05.26-.14.35-.09.1-.21.14-.34.14Zm-4.4-7.18c-.14.04-.27.05-.4,0-.13-.04-.22-.13-.27-.28-.04-.12-.03-.24.03-.36.06-.12.17-.21.3-.25.68-.2,1.37-.48,2.07-.83.7-.35,1.35-.74,1.96-1.15-.29-.28-.56-.57-.82-.87-.26-.3-.5-.62-.73-.95-.31.34-.63.67-.96.98-.33.32-.66.59-.99.84-.12.08-.25.12-.38.12-.14,0-.26-.04-.35-.15-.09-.11-.12-.22-.1-.35.02-.13.08-.23.18-.3.43-.31.86-.69,1.3-1.14.44-.45.86-.91,1.24-1.39.38-.48.69-.92.91-1.33.07-.13.18-.21.3-.25.13-.04.26-.03.38.02.12.06.19.16.22.27.03.12.02.23-.05.35-.07.14-.16.28-.26.43-.1.15-.2.3-.3.45h2.05c.53,0,.93.1,1.18.31.26.21.37.48.34.81-.03.33-.21.67-.53,1.02-.17.19-.36.38-.56.58-.2.19-.42.38-.64.56.57.43,1.17.8,1.82,1.12.64.32,1.3.59,1.96.8.12.03.21.11.28.22.07.12.08.25.02.4-.05.15-.15.25-.29.29s-.28.04-.43,0c-.73-.27-1.44-.59-2.14-.96-.7-.37-1.36-.81-1.98-1.3-.64.46-1.33.88-2.08,1.27-.75.39-1.51.72-2.3,1Zm1.76,3.7h2.14v-2.18h-.94c-.49,0-.81.06-.97.19-.16.13-.23.38-.23.77v1.22Zm2.67-7.12c.2-.16.39-.32.57-.49.18-.17.34-.33.49-.49.25-.28.34-.49.27-.65-.06-.15-.28-.23-.64-.23h-2.3c.22.34.47.67.74.98.27.31.56.6.87.88Z"/>
        <path d="m119.77,20.02c-1.38.18-2.53.26-3.46.22-.93-.03-1.67-.16-2.23-.37-.56-.21-.96-.5-1.2-.86-.24-.36-.36-.76-.36-1.21,0-.78.34-1.5,1.02-2.16.68-.66,1.64-1.24,2.88-1.73-.32-.53-.77-.85-1.34-.96-.57-.12-1.12-.04-1.67.22-.55.27-1.09.68-1.62,1.23-.11.11-.24.17-.39.18-.15.01-.27-.04-.36-.14-.1-.11-.14-.23-.14-.38,0-.14.06-.26.17-.34.63-.52,1.18-1.12,1.66-1.79.48-.67.88-1.37,1.18-2.08-.57.01-1.12.02-1.65.02-.53,0-1,0-1.41,0-.14-.01-.26-.06-.36-.16-.1-.1-.15-.21-.14-.35,0-.15.05-.27.16-.36s.23-.13.37-.12c.46.02.98.03,1.58.03s1.2-.01,1.82-.03c.1-.29.18-.57.24-.85.06-.28.12-.55.16-.82.02-.14.08-.25.18-.34.1-.09.22-.12.36-.1.14.01.25.07.34.18.09.11.12.24.1.38-.06.49-.18,1-.34,1.52.53-.02,1.05-.05,1.54-.1.5-.04.95-.08,1.35-.13.14-.02.26.01.38.1.11.09.17.2.18.34.02.14-.01.26-.1.37-.08.11-.2.17-.35.19-.46.04-.98.08-1.56.12-.58.04-1.18.07-1.78.09-.35.85-.81,1.67-1.36,2.45.31-.12.61-.19.9-.22.29-.03.57-.02.84.02.41.05.78.2,1.14.45s.65.6.9,1.06c.58-.18,1.19-.35,1.86-.5s1.37-.28,2.11-.38c.15-.02.28,0,.39.09s.17.19.18.33c.02.14-.01.26-.1.37-.08.11-.2.17-.34.19-.71.1-1.39.21-2.02.34-.63.13-1.21.28-1.74.44.21.67.32,1.48.32,2.42,0,.14-.05.26-.14.36s-.21.15-.35.15-.26-.05-.36-.15-.15-.22-.15-.36c0-.41-.02-.78-.06-1.13-.04-.35-.11-.67-.19-.97-1.09.42-1.91.89-2.46,1.41-.55.52-.82,1.06-.82,1.62,0,.38.2.71.6.97.4.26,1.05.42,1.94.48.9.06,2.08-.01,3.57-.22.14-.02.26,0,.38.09.11.08.17.19.18.33.02.14-.01.26-.1.37-.08.11-.2.17-.34.19Z"/>
        <path d="m127.47,12.9c-.17-.14-.39-.3-.65-.49-.26-.19-.53-.37-.79-.54s-.51-.32-.72-.44c-.11-.06-.18-.16-.22-.29-.04-.13-.03-.25.05-.37.06-.12.16-.19.3-.23s.26-.02.38.04c.22.11.47.25.75.42s.55.35.82.54c.27.18.5.35.7.51.12.1.19.21.21.35.02.14-.01.27-.1.38-.07.11-.18.17-.33.2-.14.03-.27,0-.39-.09Zm-1.97,7.38c-.12-.09-.19-.2-.21-.34-.02-.14.01-.27.1-.4.25-.35.53-.78.84-1.28.31-.5.63-1.03.95-1.59s.61-1.1.86-1.61c.06-.12.16-.19.29-.23s.25-.02.37.04c.29.16.36.38.21.67-.16.34-.35.72-.57,1.13-.22.41-.45.83-.7,1.26s-.49.83-.73,1.21c-.24.38-.45.71-.64.98-.08.12-.2.19-.35.23s-.29.01-.42-.07Zm2.9-10.9c-.17-.14-.39-.3-.65-.49-.26-.19-.53-.37-.79-.55-.27-.18-.51-.33-.72-.43-.11-.06-.18-.16-.22-.29s-.03-.25.03-.37c.07-.12.18-.19.3-.23.13-.04.26-.02.38.04.22.11.47.25.75.42.28.18.55.35.82.54.27.18.5.35.69.51.12.08.19.2.22.34.03.14,0,.27-.09.39-.09.11-.2.17-.34.2-.14.03-.27,0-.38-.09Zm.91,10.82c-.14,0-.26-.05-.35-.14-.1-.09-.14-.21-.14-.34s.05-.25.14-.34c.1-.09.21-.14.35-.14h4.35v-3.95h-3.22c-.14,0-.25-.05-.34-.14-.09-.09-.14-.21-.14-.34s.04-.26.14-.35.21-.14.34-.14h3.22v-3.47h-3.92c-.14,0-.25-.04-.34-.14s-.14-.21-.14-.34c0-.13.04-.24.14-.34.09-.1.21-.14.34-.14h8.83c.14,0,.25.05.34.14.09.1.14.21.14.34,0,.14-.05.25-.14.34-.09.09-.21.14-.34.14h-3.86v3.47h3.17c.14,0,.26.05.35.14.1.1.14.21.14.35s-.05.25-.14.34c-.1.09-.21.14-.35.14h-3.17v3.95h4.34c.14,0,.25.04.34.14s.14.21.14.34-.05.25-.14.34-.21.14-.34.14h-9.74Zm5.78-10.78c-.11.1-.23.14-.38.14-.14,0-.26-.06-.36-.17-.15-.18-.35-.4-.59-.66s-.5-.52-.77-.79c-.27-.27-.51-.5-.74-.7-.11-.09-.16-.2-.17-.33,0-.13.04-.25.14-.36.11-.1.23-.15.37-.16.14,0,.26.03.37.13.2.17.44.39.71.65.27.26.54.53.8.8.26.27.48.51.66.73.08.11.13.23.13.37s-.06.26-.18.35Z"/>
        <path d="m141.67,20.7c-.19.05-.36.05-.5-.02-.14-.06-.24-.18-.3-.34-.04-.15-.03-.29.05-.43.07-.14.2-.23.38-.27,1.37-.35,2.57-.8,3.6-1.34,1.03-.54,1.94-1.17,2.7-1.9-1.33-1.54-2.33-3.51-2.99-5.94h-2.99c-.13,0-.24-.05-.33-.14s-.14-.21-.14-.34c0-.14.04-.25.14-.34s.2-.14.33-.14h6.13v-2.67c0-.15.05-.27.16-.38.11-.1.23-.15.37-.15.15,0,.28.05.38.15.11.1.16.23.16.38v2.67h6.06c.13,0,.24.04.34.14.1.09.14.21.14.34,0,.13-.05.24-.14.34-.1.1-.21.14-.34.14h-2.85c-.33,1.23-.74,2.33-1.23,3.31-.49.98-1.07,1.85-1.74,2.61,1.54,1.47,3.64,2.55,6.3,3.25.18.04.31.13.38.27.07.14.08.28.03.43-.13.35-.39.47-.78.35-1.41-.42-2.66-.91-3.76-1.48-1.1-.57-2.07-1.26-2.91-2.06-.83.79-1.79,1.47-2.89,2.04-1.09.57-2.35,1.07-3.77,1.5Zm6.66-5.06c.6-.7,1.11-1.49,1.53-2.34.42-.86.77-1.8,1.05-2.82h-5.15c.53,2.05,1.39,3.77,2.58,5.17Z"/>
        <path d="m162.31,20.58c-.13.05-.26.05-.39,0-.13-.05-.23-.14-.28-.27s-.05-.26,0-.39c.05-.13.15-.23.29-.28,1.04-.44,1.81-.99,2.32-1.66s.82-1.41.91-2.22c-.41.47-.93.7-1.58.7-.71,0-1.28-.18-1.69-.55-.41-.37-.62-.89-.62-1.56s.21-1.2.64-1.61c.43-.41.99-.62,1.7-.62.37,0,.72.07,1.06.21-.03-.31-.06-.63-.09-.96-.03-.33-.05-.67-.06-1.01-1.18.04-2.36.1-3.53.18s-2.25.17-3.24.26c-.14.01-.26-.03-.37-.11-.11-.09-.17-.2-.19-.34-.01-.14.03-.26.11-.38.09-.11.2-.17.34-.18.98-.08,2.07-.17,3.26-.24,1.19-.07,2.4-.13,3.62-.18v-2.11c0-.14.05-.26.14-.36s.21-.15.35-.15c.15,0,.27.05.37.15s.14.22.14.36v2.08c.98-.03,1.92-.06,2.82-.07.9-.02,1.71-.02,2.44,0,.14,0,.26.05.35.15.1.1.14.22.13.36,0,.14-.05.26-.15.36s-.22.15-.36.14c-.74-.02-1.55-.03-2.45-.02-.9,0-1.82.02-2.78.06,0,.48.03.96.06,1.45s.05.95.07,1.38c.16.25.29.53.38.86.09.33.14.69.14,1.1,0,1.2-.33,2.28-.98,3.26-.66.98-1.61,1.72-2.87,2.22Zm1.26-5.04c.37-.01.67-.12.9-.34s.34-.53.34-.92c0-.11,0-.22,0-.34,0-.12-.01-.24-.02-.35-.27-.35-.66-.53-1.18-.53-.4,0-.72.11-.98.33-.26.22-.39.53-.39.92.01.4.13.7.37.92.23.22.56.32.98.31Z"/>
        <path d="m180.31,19.97c-.86,0-1.54-.18-2.02-.54s-.72-.86-.72-1.49.23-1.12.7-1.47c.47-.35,1.06-.49,1.76-.4.55.06.97.25,1.26.55.28.3.44.66.48,1.06.04.41-.04.81-.23,1.22.73-.15,1.29-.47,1.69-.95.4-.49.6-1.11.6-1.88,0-.53-.14-1-.42-1.39-.28-.39-.67-.69-1.18-.88-.5-.19-1.08-.26-1.73-.22s-1.35.24-2.09.58-1.49.85-2.25,1.53c-.11.1-.23.14-.38.12-.14-.02-.26-.08-.34-.18-.09-.11-.12-.23-.11-.38.01-.14.07-.25.18-.33.5-.36,1.01-.76,1.54-1.19.52-.43,1.04-.87,1.54-1.32.51-.45.98-.88,1.43-1.3.45-.42.84-.79,1.17-1.12.5-.48.67-.88.52-1.21s-.58-.45-1.29-.38c-.37.04-.81.1-1.31.16-.5.06-.96.12-1.38.18-.14.02-.26-.01-.37-.1-.11-.08-.17-.2-.19-.34-.02-.14.01-.26.1-.38.09-.11.2-.17.34-.18.23-.03.52-.07.85-.1.33-.04.67-.07,1.01-.1.34-.03.65-.06.91-.08.66-.05,1.19.01,1.58.2s.66.45.78.78.12.7-.02,1.1c-.14.4-.42.79-.84,1.16-.37.32-.81.69-1.3,1.12-.49.43-.97.84-1.44,1.25.7-.28,1.39-.41,2.06-.4s1.28.15,1.83.42c.55.27.99.66,1.31,1.16.33.5.49,1.1.49,1.81,0,1.29-.4,2.26-1.21,2.92-.81.66-1.91.98-3.32.98Zm-.08-.94h.22c.33-.49.44-.94.33-1.34-.11-.4-.4-.63-.87-.68-.39-.05-.72,0-.97.18-.25.17-.38.43-.38.77,0,.69.55,1.05,1.66,1.07Z"/>
        <path d="m191.63,18.22c-.79,0-1.33-.14-1.62-.41-.29-.27-.44-.75-.44-1.43v-6.78c0-.69.15-1.17.44-1.44.29-.27.83-.4,1.62-.4s1.34.13,1.63.4.43.75.43,1.44v6.78c0,.68-.14,1.16-.43,1.43-.29.27-.83.41-1.63.41Zm-1.1-5.79h2.21v-2.75c0-.37-.07-.63-.22-.77s-.44-.21-.88-.21-.73.07-.88.21-.22.39-.22.77v2.75Zm1.1,4.86c.44,0,.73-.07.88-.21s.22-.4.22-.78v-2.93h-2.21v2.93c0,.38.08.65.22.78s.44.21.88.21Zm7.01,3.65c-.17,0-.31-.05-.41-.14-.1-.1-.16-.21-.17-.35-.01-.15.04-.27.14-.37.1-.1.24-.15.41-.16.42-.02.73-.06.94-.13.21-.06.36-.17.44-.33.08-.15.12-.38.12-.68v-3.58h-5.25c-.14,0-.25-.04-.34-.14-.08-.09-.13-.2-.13-.33,0-.14.04-.25.13-.34.09-.09.2-.14.34-.14h5.25v-1.89h-5.71c-.14,0-.25-.04-.34-.14-.08-.09-.13-.2-.13-.33s.04-.24.13-.34c.09-.1.2-.14.34-.14h3.76v-2.05h-2.96c-.14,0-.25-.04-.34-.14-.08-.09-.13-.2-.13-.33s.04-.24.13-.33c.09-.09.2-.14.34-.14h2.96v-1.78c0-.15.05-.27.15-.37.1-.1.22-.14.36-.14.15,0,.27.05.37.14.1.1.14.22.14.37v1.78h3.26c.14,0,.25.04.34.14.08.09.13.2.13.33s-.04.24-.13.33c-.09.09-.2.14-.34.14h-3.26v2.05h4.11c.15,0,.27.05.35.14.09.1.13.21.13.34s-.04.24-.13.33c-.08.09-.2.14-.35.14h-2.19v1.89h2c.15,0,.27.05.35.14.08.09.13.21.13.34,0,.13-.04.24-.13.33-.09.09-.2.14-.35.14h-2v3.73c0,.73-.18,1.24-.54,1.55-.36.31-1,.46-1.93.46Zm-1.22-2.72c-.15-.17-.33-.36-.55-.58-.22-.21-.44-.42-.65-.63-.21-.21-.4-.38-.56-.5-.1-.08-.15-.2-.15-.34,0-.14.03-.25.12-.34.11-.11.23-.16.37-.17.14,0,.26.04.37.12.15.13.33.3.55.5s.44.42.66.63c.22.21.41.4.54.56.11.11.16.23.16.37s-.05.26-.14.35-.22.15-.37.16-.27-.04-.35-.14Z"/>
      </g>
      <path class="cls-2" d="m294.02,51.16c.36,2.15.56,4.41.56,6.75,0,14.12-7.07,25.57-15.79,25.57s-15.79-11.45-15.79-25.57c0-2.34.2-4.6.56-6.75h30.46Zm-15.23,32.31v13.13m6.5,0h-12.99m-9.29-38.7h31.58"/>
      <g>
        <path d="m247.21,110.68c-.66,0-1.2-.04-1.63-.13s-.77-.24-1.01-.47c-.25-.22-.42-.54-.53-.95-.1-.41-.16-.94-.16-1.59v-3.17c0-.65.05-1.18.16-1.59.1-.41.28-.73.53-.95.25-.22.59-.38,1.01-.47s.97-.13,1.63-.13h.92c.66,0,1.2.04,1.63.13.43.09.77.24,1.01.47.25.22.42.54.52.95.1.41.15.94.15,1.59v3.17c0,.65-.05,1.18-.15,1.59-.1.41-.27.73-.52.95-.25.22-.59.38-1.01.47-.43.09-.97.13-1.63.13h-.92Zm-2.2-5.33h5.3v-.98c0-.46-.03-.82-.09-1.1-.06-.28-.17-.49-.32-.64s-.37-.25-.66-.3-.66-.08-1.12-.08h-.92c-.46,0-.83.03-1.12.08-.29.05-.51.15-.67.3-.16.15-.26.36-.32.64-.06.28-.09.64-.09,1.1v.98Zm2.2,4.3h.92c.46,0,.83-.03,1.12-.08.29-.05.51-.15.66-.3.15-.15.26-.36.32-.64.06-.28.09-.64.09-1.1v-1.16h-5.3v1.16c0,.46.03.82.09,1.1.06.28.17.49.32.64.16.15.38.25.67.3.29.05.66.08,1.12.08Z"/>
        <path d="m259.67,111.52c-.15,0-.28-.05-.38-.15-.1-.1-.16-.23-.16-.39v-1.75h-1.8c-.14,0-.25-.05-.35-.15s-.15-.22-.15-.37c0-.14.05-.25.15-.35s.22-.15.35-.15h1.8v-3.38c-.34.52-.73,1.05-1.18,1.58-.45.53-.93,1.04-1.43,1.52-.51.48-1.03.92-1.55,1.3-.13.1-.27.14-.44.14-.16,0-.3-.07-.4-.2-.1-.13-.14-.27-.11-.41.03-.15.12-.27.25-.37.57-.38,1.13-.82,1.67-1.34.55-.52,1.06-1.06,1.53-1.63.47-.56.86-1.1,1.18-1.6h-3.85c-.14,0-.25-.05-.35-.14-.1-.1-.15-.22-.15-.36,0-.14.05-.25.15-.35.1-.1.22-.15.35-.15h4.33v-1.88c0-.16.05-.29.16-.39.1-.1.23-.15.38-.15s.28.05.38.15c.1.1.16.23.16.39v1.88h4.32c.14,0,.26.05.36.15.1.1.14.22.14.35,0,.14-.05.26-.14.36-.1.1-.22.14-.36.14h-3.82c.34.54.75,1.1,1.23,1.66.48.56,1.01,1.09,1.57,1.6.56.5,1.11.94,1.66,1.32.12.08.18.2.19.35,0,.15-.03.28-.12.4-.1.11-.22.18-.37.21-.15.03-.3,0-.43-.1-.51-.38-1.03-.81-1.54-1.29-.52-.48-1-.98-1.46-1.52s-.86-1.09-1.22-1.65v3.43h1.85c.14,0,.26.05.36.15.1.1.16.22.16.35,0,.14-.05.27-.16.37-.1.1-.22.15-.36.15h-1.85v1.75c0,.16-.05.29-.16.39-.1.1-.23.15-.38.15Z"/>
        <path d="m267.73,105.46c-.11-.09-.26-.19-.44-.31-.18-.12-.36-.24-.55-.36-.19-.12-.35-.23-.5-.31-.12-.06-.2-.16-.24-.3-.04-.14-.02-.26.05-.38.07-.13.17-.22.31-.26s.26-.03.39.05c.14.08.32.18.52.3s.4.24.6.37.35.23.46.31c.14.1.22.21.24.35.02.14,0,.28-.1.41-.08.12-.19.19-.34.22-.15.03-.28,0-.4-.09Zm-1.31,5.57c-.13-.08-.21-.19-.24-.34-.03-.14,0-.28.08-.41.13-.19.27-.43.43-.7.16-.28.32-.57.49-.87s.33-.6.47-.88c.15-.28.27-.53.37-.75.07-.15.18-.25.31-.28.14-.04.27-.02.41.04.28.14.35.38.22.71-.13.3-.29.65-.5,1.05-.2.4-.41.81-.63,1.21-.22.4-.42.74-.6,1.02-.09.14-.21.22-.37.26s-.31.02-.45-.06Zm1.94-8.26c-.11-.09-.26-.19-.44-.31-.18-.12-.37-.24-.56-.36-.19-.12-.35-.22-.5-.3-.11-.07-.19-.17-.23-.31-.04-.13-.03-.26.04-.39.07-.13.17-.21.31-.26s.26-.03.39.04c.14.08.32.18.52.31s.4.25.6.37.35.22.46.31c.14.1.22.21.24.35.02.14,0,.28-.1.41-.08.12-.19.19-.34.22-.14.02-.28,0-.4-.08Zm3.49,8.39c-.58,0-1.05-.06-1.39-.19-.34-.13-.58-.35-.73-.65-.14-.31-.22-.72-.22-1.24v-3.42c0-.5.07-.9.2-1.2s.35-.51.65-.65c.3-.14.72-.22,1.24-.23v-1.64h-2.11c-.13,0-.24-.05-.34-.14-.1-.09-.14-.2-.14-.33s.05-.24.14-.33c.1-.09.21-.14.34-.14h7.16c.14,0,.25.05.34.14.09.09.14.2.14.33s-.05.24-.14.33-.21.14-.34.14h-2.42v1.64h.05c.58,0,1.05.06,1.39.19.34.13.58.34.73.65.14.3.22.72.22,1.25v3.42c0,.52-.07.93-.22,1.24-.14.31-.39.53-.73.65-.34.13-.8.19-1.39.19h-2.44Zm-1.33-3.05h5.1v-1.33c-.22.27-.57.41-1.03.41s-.81-.08-1-.23c-.2-.16-.29-.48-.29-.98v-1.43h-.73c-.02.62-.11,1.15-.29,1.57-.18.42-.48.82-.9,1.2-.1.09-.22.14-.37.14-.15,0-.28-.04-.38-.14-.02-.02-.04-.04-.05-.07s-.03-.06-.04-.09v.95Zm0-1.32c.04-.09.09-.16.16-.22.35-.28.59-.57.72-.86s.2-.68.22-1.16c-.42.02-.7.1-.86.26-.16.16-.23.44-.23.83v1.14Zm1.33,3.38h2.44c.5,0,.85-.08,1.04-.23.19-.15.29-.44.29-.88h-5.1c0,.43.1.72.29.88.19.15.54.23,1.04.23Zm.72-6.61h.72v-1.64h-.72v1.64Zm2.03,2.6c.09,0,.16-.02.22-.05.06-.04.11-.13.15-.27.03-.13.11-.22.23-.27.12-.05.25-.05.38,0,0,0,.02,0,.02.01,0-.4-.11-.67-.29-.82-.19-.14-.53-.22-1.03-.22h-.05v1.28c0,.14.03.23.09.27.06.04.15.07.27.07Z"/>
        <path d="m285.06,110.69c-.75,0-1.42-.18-2.01-.55-.59-.37-1.05-.88-1.39-1.54s-.5-1.43-.5-2.3.17-1.65.5-2.3c.34-.66.8-1.17,1.39-1.54.59-.37,1.26-.55,2.01-.55.49,0,.94.07,1.37.22.42.14.8.34,1.13.6.15.1.23.23.24.37s-.04.28-.16.41c-.11.14-.23.22-.36.22s-.27-.05-.43-.15c-.5-.38-1.09-.58-1.79-.58-.56,0-1.05.14-1.46.41-.41.28-.73.66-.96,1.16-.23.5-.34,1.07-.34,1.73s.11,1.23.34,1.73c.23.5.55.88.96,1.16.41.28.9.42,1.46.42.4,0,.74-.04,1.03-.11s.54-.19.77-.33v-2.11h-.98c-.38,0-.58-.17-.58-.52s.19-.52.58-.52h1.54c.38,0,.58.19.58.58v2.83c0,.15-.02.28-.07.38-.05.1-.13.18-.25.24-.3.17-.67.32-1.1.44-.43.13-.93.19-1.5.19Z"/>
        <path d="m290.18,110.51c-.38,0-.56-.19-.56-.58v-7.25c0-.38.19-.58.56-.58h4.3c.38,0,.58.17.58.52s-.19.52-.58.52h-3.77v2.56h3.4c.38,0,.56.18.56.53s-.19.52-.56.52h-3.4v2.74h3.91c.38,0,.58.17.58.52s-.19.52-.58.52h-4.44Z"/>
        <path d="m299.28,110.51c-.38,0-.56-.19-.56-.58v-6.79h-2.06c-.38,0-.58-.17-.58-.52s.19-.52.58-.52h5.23c.38,0,.56.17.56.52s-.19.52-.56.52h-2.06v6.79c0,.38-.18.58-.54.58Z"/>
        <path d="m311.84,111.13c-.24,0-.45-.09-.62-.26s-.26-.38-.26-.62.09-.44.26-.61.38-.25.62-.25.45.08.62.25.26.37.26.61-.09.45-.26.62-.38.26-.62.26Zm0-2.76c-.13,0-.24-.05-.34-.14-.1-.09-.15-.2-.16-.33-.02-.27-.03-.6-.05-.99-.02-.39-.03-.8-.04-1.22-.01-.43-.02-.84-.04-1.23-.01-.39-.02-.73-.03-1.01,0-.28-.01-.47-.01-.56v-1.49c0-.18.06-.34.19-.46s.28-.19.47-.19.35.06.48.19.19.28.19.46v1.49c0,.09,0,.27-.01.56,0,.28-.02.62-.03,1.01-.01.39-.03.8-.04,1.23-.02.43-.03.84-.05,1.22-.02.39-.03.72-.05.99,0,.13-.06.24-.15.33-.09.09-.21.14-.34.14Z"/>
      </g>
      <path class="cls-2" d="m302.92,50.15c-.06-.45-.31-1.89-1.54-3.13-1.24-1.25-2.7-1.5-3.15-1.56.46-.06,1.88-.32,3.1-1.53,1.26-1.24,1.52-2.7,1.58-3.16.1.51.44,1.87,1.64,3.07,1.19,1.18,2.53,1.51,3.04,1.62-.48.07-1.88.35-3.09,1.56-1.24,1.23-1.52,2.66-1.59,3.13Z"/>
      <path class="cls-2" d="m255.33,92.55c-.06-.45-.31-1.89-1.54-3.13-1.24-1.25-2.7-1.5-3.15-1.56.46-.06,1.88-.32,3.1-1.53,1.26-1.24,1.52-2.7,1.58-3.16.1.51.44,1.87,1.64,3.07,1.19,1.18,2.53,1.51,3.04,1.62-.48.07-1.88.35-3.09,1.56-1.24,1.23-1.52,2.66-1.59,3.13Z"/>
      <g>
        <path d="m13.64,155.91c-.12,0-.22-.04-.29-.12-.08-.08-.11-.17-.11-.29,0-.12.04-.22.11-.3.07-.08.17-.12.29-.12h5.28v-2.66h-3.71c-.12,0-.22-.04-.29-.13-.08-.08-.11-.18-.11-.29s.04-.21.11-.29c.07-.08.17-.12.29-.12h8.34c.12,0,.22.04.29.12.07.08.11.18.11.29s-.04.21-.11.29c-.08.08-.17.13-.29.13h-3.71v2.66h5.26c.13,0,.23.04.31.12.07.08.11.18.11.3,0,.11-.04.21-.11.29-.08.08-.18.12-.31.12h-11.47Zm.57-4.94c-.12.05-.24.05-.36.01-.12-.04-.2-.12-.26-.24-.05-.1-.04-.21,0-.33.05-.12.14-.19.27-.23.76-.24,1.45-.6,2.04-1.08.6-.48,1.06-1.12,1.4-1.91.05-.1.12-.17.23-.22s.22-.04.34.02c.1.05.17.12.21.22.04.1.03.21-.01.32-.37.87-.88,1.57-1.53,2.11-.64.54-1.43.98-2.35,1.32Zm-.18-2.58c-.12,0-.23-.04-.31-.13s-.13-.19-.13-.32v-.66c0-.63.16-1.09.47-1.37.31-.27.86-.41,1.64-.41h3.21v-1.47c0-.13.05-.24.14-.32.09-.08.2-.13.32-.13.13,0,.24.04.33.13s.13.19.13.32v1.47h3.23c.78,0,1.33.14,1.65.41.31.28.47.73.47,1.37v.66c0,.13-.04.24-.13.32s-.19.13-.31.13-.23-.04-.31-.12-.13-.18-.13-.32v-.66c0-.35-.09-.6-.27-.75-.18-.15-.5-.22-.98-.22h-7.32c-.49,0-.81.07-.99.22-.17.14-.26.39-.26.75v.66c0,.13-.04.24-.13.32s-.19.12-.32.12Zm8.26,2.16c-.65,0-1.15-.05-1.5-.15-.35-.1-.58-.27-.71-.53-.13-.25-.2-.6-.2-1.04v-1.57c0-.13.04-.24.12-.32s.18-.12.3-.12c.13,0,.24.04.31.12s.12.18.12.32v1.5c0,.27.04.47.12.61.08.14.23.23.46.27s.57.07,1.03.07c.4,0,.71-.03.92-.08.21-.05.38-.15.5-.3.12-.15.22-.36.32-.64.05-.1.13-.18.24-.22.11-.05.22-.05.34,0,.12.04.2.11.25.21s.04.21,0,.34c-.13.4-.29.71-.49.93-.2.22-.46.37-.79.46-.33.09-.78.13-1.34.13Z"/>
        <path d="m31.09,153.84c-.38.02-.75-.07-1.09-.26-.34-.19-.64-.49-.88-.89-.23-.38-.43-.89-.6-1.53s-.29-1.33-.37-2.07c-.08-.75-.1-1.47-.05-2.18,0-.12.06-.22.15-.31s.19-.12.32-.11c.13,0,.24.06.31.15.08.09.11.2.11.32-.04.68-.03,1.36.03,2.04.06.68.16,1.29.31,1.86.15.56.33,1.02.55,1.37.15.23.32.41.52.54.2.13.41.18.63.17.58,0,1.04-.54,1.39-1.58.04-.12.11-.21.22-.27.11-.06.22-.07.34-.03s.21.11.27.22c.06.11.06.22.01.34-.26.77-.58,1.32-.96,1.66s-.77.53-1.18.55Zm7.59-2.46c-.12.04-.24.03-.34-.02-.11-.05-.18-.13-.23-.25-.23-.6-.57-1.18-1.01-1.74-.44-.56-.93-1.01-1.45-1.36-.09-.07-.15-.16-.17-.29s0-.24.08-.33c.08-.1.18-.16.3-.16.12,0,.23.03.34.1.35.22.71.53,1.08.9s.7.79,1,1.23.53.88.68,1.32c.05.12.04.24-.01.34s-.14.18-.27.23Z"/>
        <path d="m42.41,155.39c-.09-.07-.15-.16-.18-.28s0-.23.06-.34c.41-.64.77-1.37,1.08-2.16.31-.8.57-1.62.78-2.47.21-.85.38-1.67.49-2.46-.34.04-.66.07-.98.1s-.62.05-.91.07c-.12,0-.23-.03-.32-.11-.09-.08-.14-.19-.15-.31,0-.12.03-.23.11-.32.08-.09.19-.14.31-.14.3-.02.62-.04.97-.07.35-.03.71-.06,1.08-.1.05-.43.08-.83.1-1.2.02-.37.02-.71,0-1.02,0-.12.03-.23.11-.32.08-.09.19-.14.31-.15.13,0,.24.04.32.12s.13.18.14.31c.02.29.02.62,0,.98s-.05.75-.1,1.16c.7-.08,1.31-.19,1.83-.32.12-.03.23,0,.34.06.1.07.17.17.2.29.03.12,0,.23-.06.34-.07.1-.16.16-.29.18-.32.07-.66.13-1.01.18-.36.06-.73.11-1.11.15-.12.85-.3,1.74-.53,2.67-.23.93-.51,1.83-.83,2.7-.33.87-.7,1.64-1.13,2.31-.07.1-.16.17-.28.2-.12.03-.23,0-.34-.06Zm9.73-.32c-1.3.27-2.42.29-3.37.07-.95-.22-1.64-.73-2.07-1.51-.06-.1-.07-.21-.04-.34.03-.12.11-.21.22-.27.1-.06.21-.07.33-.04.12.03.21.11.27.22.25.45.6.77,1.04.95s.96.28,1.55.27c.59,0,1.22-.08,1.89-.22.12-.02.23,0,.33.06.1.06.16.16.19.29.03.12,0,.23-.06.34-.07.1-.16.16-.28.18Zm-.59-5.52c-.57-.13-1.18-.2-1.83-.22-.65-.01-1.29.04-1.9.16-.12.02-.23,0-.33-.07-.1-.07-.16-.16-.19-.28-.02-.13,0-.25.07-.34.07-.1.16-.16.28-.18.66-.12,1.36-.17,2.09-.16.73.01,1.41.09,2.02.22.12.03.21.1.27.2.06.11.08.22.05.34-.03.12-.09.21-.2.27-.1.06-.21.08-.34.05Z"/>
        <path d="m57.74,155.45c-.12.05-.24.05-.36,0-.12-.04-.2-.12-.25-.25-.05-.11-.05-.23,0-.34.05-.12.13-.2.24-.25,1.62-.71,3.02-1.6,4.2-2.66,1.18-1.06,2.11-2.29,2.8-3.67.23-.46.27-.81.13-1.06-.15-.25-.5-.38-1.05-.38h-2.14c-.46.62-.98,1.22-1.55,1.81-.58.59-1.16,1.09-1.75,1.5-.1.07-.21.09-.34.06-.12-.02-.22-.08-.29-.17-.07-.1-.09-.22-.07-.34s.08-.22.18-.29c.56-.39,1.1-.85,1.62-1.37.52-.52.99-1.07,1.41-1.65s.75-1.13.99-1.66c.05-.12.13-.2.25-.25.12-.04.24-.04.36,0,.11.06.19.14.23.26.04.12.04.23,0,.34-.13.27-.28.56-.45.85h1.55c.95,0,1.58.25,1.9.74.31.5.26,1.16-.16,1.99-.73,1.44-1.72,2.74-2.99,3.89-1.26,1.16-2.75,2.11-4.46,2.86Zm9.42-8.54c-.08.07-.17.09-.27.08-.11,0-.19-.06-.26-.14-.12-.16-.29-.35-.5-.57-.21-.22-.4-.4-.56-.53-.07-.07-.1-.15-.11-.25,0-.1.02-.18.08-.26.07-.07.16-.11.25-.12.09,0,.18.03.27.11.1.07.23.18.37.32.14.14.29.29.43.43s.26.28.34.39c.07.08.1.16.09.27-.01.1-.06.19-.13.27Zm1.13-1.12c-.08.07-.16.1-.27.09-.1,0-.19-.04-.27-.12-.13-.16-.31-.34-.54-.55s-.42-.38-.58-.5c-.08-.06-.12-.14-.13-.24-.01-.09.01-.18.08-.27.06-.07.15-.12.25-.13.1,0,.19.02.27.08.1.08.23.18.38.31.15.13.31.27.46.41.15.14.28.26.37.36.08.08.11.17.1.27,0,.11-.05.2-.13.27Z"/>
        <path d="m72.96,155.17c-.12.04-.24.03-.34-.02-.11-.05-.18-.14-.23-.26-.04-.12-.03-.24.03-.35.06-.11.14-.19.27-.22,1.2-.41,2.27-.97,3.19-1.69.92-.71,1.6-1.52,2.04-2.43.53-1.12.19-1.68-1.04-1.68h-5.12c-.12,0-.23-.04-.32-.13-.09-.09-.13-.19-.13-.32s.04-.22.13-.31.19-.13.32-.13h5.12c1.03,0,1.7.27,2.01.81s.25,1.26-.17,2.14c-.33.67-.77,1.3-1.34,1.89-.57.59-1.22,1.11-1.97,1.56-.75.45-1.56.83-2.45,1.13Zm-.29-9.21c-.12,0-.23-.04-.32-.13s-.13-.19-.13-.31c0-.13.04-.24.13-.32s.19-.13.32-.13h5.28c.13,0,.24.04.33.13s.13.19.13.32c0,.12-.04.22-.13.31s-.2.13-.33.13h-5.28Z"/>
        <path d="m84.72,154.69c-.11.06-.23.06-.34.02-.12-.04-.2-.12-.26-.23-.06-.11-.06-.23-.02-.34.04-.12.12-.2.23-.26.92-.45,1.79-.97,2.61-1.57.82-.6,1.55-1.26,2.21-1.97s1.21-1.46,1.65-2.23c.25-.44.29-.78.12-1.04-.17-.25-.55-.38-1.13-.38h-4c-.12,0-.23-.04-.32-.13-.09-.09-.14-.19-.14-.32,0-.13.05-.24.14-.32.09-.08.2-.13.32-.13h4c.68,0,1.2.12,1.57.36.36.24.56.57.6.99.04.42-.09.88-.39,1.41-.3.53-.65,1.05-1.05,1.54.34.27.7.57,1.07.9.37.33.73.67,1.09,1.01.36.35.69.67,1,.98s.57.58.78.81c.09.09.14.2.14.33s-.05.23-.14.32c-.09.08-.2.13-.32.13s-.23-.05-.32-.14c-.21-.21-.47-.48-.78-.79-.3-.31-.63-.64-.99-.99-.35-.35-.71-.69-1.06-1.02s-.7-.63-1.02-.89c-.71.78-1.51,1.52-2.42,2.21-.9.69-1.85,1.27-2.83,1.75Z"/>
        <path d="m106.45,155.59c-1.2.16-2.21.22-3.02.2-.81-.03-1.46-.14-1.95-.32s-.84-.44-1.05-.75c-.21-.31-.32-.67-.32-1.06,0-.68.3-1.31.9-1.89.6-.58,1.44-1.08,2.52-1.51-.28-.47-.67-.75-1.18-.84-.5-.1-.98-.04-1.46.2-.48.23-.96.59-1.42,1.08-.09.09-.21.14-.34.15-.13,0-.24-.03-.31-.13-.08-.09-.12-.2-.12-.33s.05-.23.15-.3c.55-.46,1.04-.98,1.46-1.57.42-.59.77-1.2,1.04-1.82-.49,0-.97.02-1.44.02-.47,0-.88,0-1.23,0-.12,0-.23-.06-.31-.14-.09-.08-.13-.19-.12-.31,0-.13.05-.24.14-.32s.2-.11.32-.1c.4.02.86.03,1.38.03s1.05,0,1.59-.03c.08-.25.15-.5.21-.74.06-.24.1-.48.14-.71.02-.12.07-.22.16-.3.09-.08.19-.11.32-.09.12,0,.22.06.29.16.07.1.1.21.08.33-.06.43-.15.87-.29,1.33.47-.02.92-.05,1.35-.08.43-.04.83-.08,1.18-.11.12-.02.23,0,.33.08.1.08.15.17.16.29.02.12,0,.23-.08.32-.07.09-.18.15-.31.17-.4.04-.86.07-1.37.11-.51.03-1.03.06-1.56.08-.31.75-.71,1.46-1.19,2.14.27-.1.53-.17.79-.19s.5-.02.74.02c.35.05.69.18.99.39.31.21.57.52.78.92.5-.16,1.04-.3,1.62-.43.58-.13,1.19-.24,1.85-.34.13-.02.25,0,.34.08.1.07.15.17.16.29.02.12,0,.23-.08.32-.08.09-.17.15-.29.17-.62.08-1.21.18-1.76.3-.55.12-1.06.24-1.53.38.19.59.28,1.29.28,2.11,0,.12-.04.23-.13.31s-.19.13-.31.13-.23-.04-.31-.13c-.09-.09-.13-.19-.13-.31,0-.36-.02-.68-.06-.99s-.09-.59-.17-.85c-.95.36-1.67.77-2.15,1.23-.48.46-.72.93-.72,1.41,0,.34.17.62.53.85.35.23.92.37,1.7.42.78.05,1.82-.01,3.12-.19.12-.02.23,0,.33.08.1.07.15.17.16.29.02.12,0,.23-.08.32-.07.09-.17.15-.29.17Z"/>
        <path d="m112.13,156.36c-.31,0-.47-.14-.49-.43,0-.11.02-.21.1-.31.08-.09.18-.14.32-.15.32-.02.55-.05.71-.09s.26-.12.31-.24c.05-.12.08-.29.08-.51v-3.28c-.34.13-.66.25-.96.36-.3.11-.55.21-.73.28-.13.04-.25.03-.37-.02-.12-.05-.2-.14-.25-.27-.04-.12-.03-.24.02-.35.05-.11.14-.19.27-.22.24-.07.55-.17.91-.29.36-.12.73-.25,1.11-.39v-3.08h-1.83c-.12,0-.22-.04-.3-.13s-.12-.18-.12-.29c0-.12.04-.22.12-.31s.18-.13.3-.13h1.83v-2.58c0-.13.04-.23.13-.31.08-.07.19-.11.31-.11s.22.04.3.11c.08.08.12.18.12.31v2.58h1.47c.13,0,.23.04.31.13.08.08.11.19.11.31,0,.11-.04.21-.11.29-.07.08-.18.13-.31.13h-1.47v2.76c.28-.1.54-.2.78-.29.24-.09.44-.17.6-.24.1-.05.2-.05.3,0,.1.05.17.12.2.22.09.23.02.41-.22.53-.18.08-.41.18-.7.3-.29.13-.61.25-.95.38v3.72c0,.58-.13.99-.38,1.24-.26.25-.75.37-1.49.37Zm7.32.06c-.15,0-.27-.04-.36-.13s-.14-.19-.15-.31c0-.12.03-.22.12-.31s.21-.13.36-.14c.36-.02.64-.06.83-.11.19-.06.31-.15.38-.29.06-.13.1-.33.1-.59v-3.18h-4.61c-.12,0-.22-.04-.29-.12-.07-.08-.11-.17-.11-.29s.04-.21.11-.29c.08-.08.17-.12.29-.12h4.61v-1.65h-4.84c-.12,0-.22-.04-.29-.12-.08-.08-.11-.17-.11-.29s.04-.21.11-.29c.07-.08.17-.12.29-.12h3.14v-1.81h-2.41c-.11,0-.21-.04-.28-.12-.08-.08-.11-.17-.11-.27,0-.11.04-.21.11-.29.07-.08.17-.12.28-.12h2.41v-1.53c0-.13.04-.24.13-.32s.19-.13.32-.13.22.04.31.13.13.19.13.32v1.53h2.65c.11,0,.21.04.28.12.08.08.11.17.11.29,0,.1-.04.19-.11.27-.07.08-.17.12-.28.12h-2.65v1.81h3.58c.12,0,.22.04.29.12.08.08.11.17.11.29s-.04.21-.11.29c-.07.08-.17.12-.29.12h-1.9v1.65h1.75c.12,0,.22.04.29.12.07.08.11.17.11.29s-.04.21-.11.29c-.08.08-.17.12-.29.12h-1.75v3.3c0,.62-.15,1.07-.46,1.34-.31.27-.86.41-1.67.41Zm-.77-2.25c-.09.08-.2.11-.33.11s-.23-.05-.3-.15c-.12-.16-.27-.34-.44-.54-.17-.2-.34-.4-.52-.59s-.32-.35-.46-.48c-.08-.08-.12-.18-.12-.3,0-.12.05-.21.15-.29.09-.08.2-.12.32-.12.12,0,.22.05.31.13.12.12.27.28.45.48.18.2.36.39.54.59.18.2.33.38.44.53.08.09.12.2.11.33,0,.13-.06.23-.15.3Z"/>
        <path d="m130.77,155.27c-.11,0-.21-.02-.29-.08s-.14-.15-.15-.27c0-.1.02-.2.08-.29.07-.09.15-.14.25-.15.97-.12,1.75-.34,2.32-.65s.98-.68,1.21-1.11c.23-.42.31-.86.25-1.29-.08-.6-.32-1.04-.7-1.32-.38-.29-.89-.4-1.53-.36-.32.03-.68.07-1.08.13-.41.06-.82.13-1.25.21-.43.08-.84.16-1.24.25-.4.09-.74.17-1.03.26-.1.03-.2.01-.3-.04-.1-.06-.16-.13-.19-.24-.04-.1-.03-.2.03-.3.06-.1.14-.16.25-.19.31-.08.67-.17,1.08-.26.41-.09.84-.17,1.28-.26.44-.08.87-.15,1.29-.21.42-.06.79-.1,1.11-.13.84-.06,1.53.11,2.07.53s.87,1.02.99,1.81c.09.62-.01,1.21-.32,1.76-.3.55-.8,1.01-1.49,1.4-.69.39-1.57.66-2.65.81Z"/>
        <path d="m149.13,155.41c-1.02-.15-1.87-.45-2.55-.89-.68-.44-1.19-.99-1.53-1.62-.34-.64-.5-1.31-.5-2.02,0-.93.24-1.78.71-2.54s1.1-1.39,1.86-1.88c-.45.07-.96.15-1.53.25s-1.16.2-1.76.3c-.61.1-1.2.21-1.77.31-.57.1-1.08.2-1.53.28-.12.02-.23,0-.33-.08-.1-.07-.16-.17-.18-.29s0-.23.08-.33c.08-.1.17-.16.29-.17.22-.04.56-.09,1-.17.44-.07.96-.16,1.53-.25.58-.09,1.19-.19,1.83-.3s1.26-.21,1.88-.32,1.18-.2,1.69-.28c.52-.08.94-.15,1.28-.21.11-.02.22,0,.31.07s.16.15.19.27c.02.12,0,.23-.06.34-.06.1-.15.17-.27.2-.64.12-1.23.34-1.76.66s-.99.7-1.38,1.14c-.39.44-.69.92-.9,1.44s-.32,1.04-.32,1.56c0,.7.16,1.31.49,1.82.33.51.78.93,1.35,1.24.57.31,1.23.53,1.98.64.13,0,.23.06.3.16s.1.21.08.33c0,.12-.06.22-.16.29s-.21.1-.34.08Z"/>
        <path d="m156.48,155.83c-.09.07-.21.11-.34.09-.14-.01-.24-.07-.32-.17-.16-.21-.37-.45-.64-.74s-.54-.57-.82-.85-.52-.5-.72-.67c-.09-.08-.15-.18-.17-.3s.01-.23.1-.31c.09-.1.2-.16.32-.16s.23.03.32.11c.23.19.5.42.8.71.3.29.59.57.88.87.28.29.51.55.68.78.08.1.11.22.09.35-.01.13-.07.24-.17.32Z"/>
        <path d="m174.35,155.58c-.12,0-.23-.06-.32-.15-.09-.09-.13-.19-.13-.32,0-.13.06-.24.15-.32.09-.08.19-.13.31-.13,1.03.04,1.82-.1,2.38-.43.56-.32.84-.81.84-1.46s-.26-1.1-.78-1.43c-.52-.33-1.24-.49-2.14-.49-.43,0-.84.02-1.24.07-.4.05-.77.11-1.13.18v2.02c0,.83-.17,1.44-.5,1.83-.33.39-.86.59-1.59.59-.57,0-1.04-.16-1.41-.47-.37-.31-.56-.76-.56-1.35,0-.73.29-1.37.88-1.92.58-.56,1.35-.99,2.3-1.3v-2.84c-.48.04-.94.07-1.39.09-.45.02-.87.04-1.25.05-.12,0-.23-.03-.32-.12s-.13-.19-.13-.32c0-.13.04-.24.13-.32s.19-.13.32-.13c.38,0,.8-.03,1.25-.05.45-.02.92-.05,1.39-.09v-2.27c0-.13.04-.24.13-.32.09-.08.19-.13.31-.13s.22.04.31.13.13.19.13.32v2.2c.33-.04.64-.07.94-.11.3-.04.59-.08.86-.11.13-.02.25,0,.34.07s.15.16.16.29c.02.12,0,.23-.08.32-.07.09-.17.15-.3.17-.27.04-.57.08-.9.12s-.67.08-1.03.12v2.69c.37-.08.76-.13,1.15-.17s.81-.06,1.23-.06c1.21,0,2.15.25,2.82.75.67.5,1,1.16,1,2,0,.93-.36,1.64-1.09,2.13-.73.49-1.75.71-3.05.67Zm-4.14-.9c.41,0,.71-.11.91-.33.2-.22.29-.63.29-1.23v-1.75c-.72.26-1.28.6-1.68,1.02-.4.42-.6.86-.6,1.32,0,.28.09.51.27.69.18.18.45.27.8.27Zm7.94-5.8c-.17-.13-.39-.28-.68-.46-.29-.18-.57-.35-.87-.52s-.55-.31-.78-.41c-.1-.05-.18-.13-.23-.25-.05-.12-.05-.23,0-.34.06-.11.14-.19.26-.22.12-.04.23-.03.34.01.24.11.53.26.85.45.32.19.63.37.93.56s.53.35.7.48c.1.08.16.17.17.29.01.12-.02.23-.09.34-.07.09-.16.15-.28.16-.12.01-.23-.01-.34-.08Z"/>
        <path d="m181.81,156.01c-.11.07-.23.1-.36.1s-.24-.06-.32-.17c-.07-.1-.09-.21-.07-.34.02-.12.08-.21.18-.28.62-.35,1.15-.73,1.6-1.13.45-.4.83-.82,1.15-1.28-.1-.07-.21-.14-.31-.2-.11-.06-.21-.12-.32-.19-.4-.22-.7-.44-.89-.65-.19-.21-.3-.46-.32-.73-.02-.28.02-.63.13-1.06.19-.75.37-1.54.56-2.37h-1.43c-.11,0-.21-.04-.28-.13-.08-.08-.11-.18-.11-.28,0-.11.04-.21.11-.29.07-.08.17-.12.28-.12h1.6c.21-1.04.37-1.93.48-2.69.02-.13.07-.23.17-.3.09-.07.21-.1.35-.08.12,0,.22.06.29.16.08.1.1.21.08.34-.06.36-.12.75-.2,1.2-.08.44-.17.9-.27,1.37h.5c.72,0,1.21.14,1.47.43.26.29.36.74.29,1.36-.08.8-.21,1.53-.38,2.18s-.39,1.24-.67,1.79c.33.21.65.44.97.69.32.24.62.5.91.76.1.08.16.19.16.32s-.04.24-.13.33c-.09.09-.2.14-.32.14s-.23-.04-.34-.13c-.28-.25-.56-.49-.84-.72s-.56-.45-.84-.65c-.35.5-.75.97-1.22,1.39-.47.42-1.02.84-1.65,1.24Zm2.59-3.81c.25-.5.45-1.05.59-1.64.15-.59.25-1.22.32-1.9.04-.38-.01-.64-.15-.76-.14-.13-.41-.19-.8-.19h-.64c-.09.46-.19.91-.29,1.34-.1.44-.21.84-.31,1.2-.11.41-.13.73-.05.95.08.22.32.44.72.65.1.06.21.11.31.17.1.06.21.12.31.18Zm3.82,3.99c-.12,0-.23-.03-.32-.11-.09-.08-.14-.19-.14-.31,0-.12.03-.23.11-.32.08-.09.2-.14.34-.15.38-.02.71-.07.98-.15s.49-.23.67-.45c.17-.22.3-.53.38-.94.08-.41.13-.96.13-1.64,0-.29-.01-.57-.04-.83-.02-.27-.06-.52-.1-.78h-3.3c-.12,0-.22-.04-.3-.12-.08-.08-.12-.18-.12-.3s.04-.22.12-.3c.08-.08.18-.12.3-.12h3.08c-.12-.4-.27-.78-.45-1.13-.18-.35-.37-.67-.59-.97-.07-.1-.08-.21-.05-.31.03-.11.09-.19.19-.26.1-.06.21-.09.34-.06s.21.09.28.19l.25.38c.17-.13.36-.28.59-.46s.44-.34.64-.5c.21-.16.36-.29.46-.37.2-.19.28-.35.26-.48-.02-.13-.18-.2-.47-.2h-4.31c-.11,0-.21-.04-.29-.12-.08-.08-.12-.17-.12-.29s.04-.21.12-.29c.08-.08.17-.12.29-.12h4.47c.36,0,.65.07.85.2.21.13.34.31.39.52s.04.44-.06.67c-.09.23-.26.44-.49.63-.15.12-.35.28-.59.46-.24.19-.49.37-.73.56-.24.19-.45.35-.63.48.11.22.21.46.31.7.09.24.18.5.25.77h2.52c.12,0,.22.04.3.12s.12.18.12.3-.04.22-.12.3c-.08.08-.18.12-.3.12h-2.34c.05.26.08.53.11.8.02.27.03.55.03.83,0,.82-.06,1.49-.18,2.02s-.31.93-.55,1.23c-.25.29-.56.5-.94.62-.38.12-.83.18-1.35.19Z"/>
        <path d="m202.56,156.05c-1.46.02-2.6-.21-3.42-.68-.83-.47-1.24-1.16-1.24-2.05,0-.54.14-.99.41-1.36.28-.36.65-.64,1.13-.82.48-.18,1.02-.27,1.64-.25.62.01,1.26.13,1.95.36-.24-.32-.48-.66-.7-1.03-.22-.37-.44-.75-.66-1.16-.58.1-1.16.2-1.75.29-.59.09-1.14.16-1.67.2-.12,0-.23-.03-.32-.11-.09-.08-.15-.18-.15-.3,0-.12.03-.23.11-.32.08-.09.18-.14.3-.15.46-.04.95-.09,1.49-.16.54-.07,1.08-.15,1.62-.25-.12-.27-.24-.54-.35-.81s-.22-.54-.32-.81c-.43.07-.85.13-1.27.2-.42.07-.8.12-1.13.17-.12,0-.23-.02-.32-.1-.09-.07-.15-.17-.17-.29,0-.13.02-.24.09-.34.07-.09.17-.14.29-.15.31-.03.66-.07,1.05-.12.39-.05.79-.11,1.19-.17-.07-.21-.13-.42-.19-.63s-.12-.41-.17-.62c-.03-.12-.01-.24.05-.34s.15-.17.27-.2c.12-.03.23-.01.34.05.1.06.17.15.2.27.06.21.12.43.18.66.06.22.13.45.2.67.38-.08.75-.15,1.09-.22.34-.07.65-.14.91-.21.12-.03.23,0,.34.06.1.07.17.16.2.28.03.12,0,.23-.06.34-.07.1-.16.17-.28.2-.26.06-.56.12-.89.18-.33.07-.68.13-1.04.2.1.27.21.54.31.81s.21.54.34.81c.45-.09.88-.18,1.3-.27.42-.09.8-.17,1.15-.26.12-.03.23,0,.34.06s.17.16.2.28c.03.12,0,.23-.06.34s-.16.17-.28.2c-.3.07-.64.14-1.03.22-.39.08-.8.16-1.24.24.27.51.56,1,.88,1.46.31.46.65.88,1,1.24.16.18.18.36.06.56-.14.19-.32.24-.55.17-.97-.41-1.84-.63-2.6-.67-.77-.03-1.37.09-1.81.38-.44.29-.67.7-.67,1.25,0,.62.32,1.08.97,1.39.64.31,1.57.46,2.79.44.13,0,.24.04.32.13s.13.19.14.32c0,.12-.04.23-.13.31s-.19.13-.32.13Z"/>
        <path d="m210.86,152.05c-.09.08-.2.13-.32.13s-.22-.05-.31-.14c-.08-.08-.13-.19-.13-.31s.04-.22.13-.31c.64-.61,1.2-1.28,1.67-2.03.47-.75.83-1.52,1.08-2.31-.36.06-.72.1-1.08.13-.35.03-.68.06-.98.08-.14,0-.25-.03-.34-.13-.08-.09-.13-.21-.13-.35,0-.12.05-.22.14-.29.09-.08.21-.11.34-.11.32,0,.67-.03,1.07-.07.4-.04.8-.09,1.21-.15.06-.29.11-.58.14-.86.03-.28.04-.57.04-.85,0-.12.04-.22.13-.31s.19-.13.31-.13c.13,0,.24.04.33.13s.13.19.12.31c-.02.52-.07,1.04-.17,1.54.18-.04.35-.08.51-.11.16-.04.32-.08.47-.11.13-.04.25-.03.35.04s.17.16.2.29c.03.12,0,.23-.06.34s-.16.17-.28.2c-.21.06-.43.11-.67.15-.24.05-.48.09-.74.14-.26.96-.65,1.88-1.18,2.76s-1.14,1.66-1.86,2.35Zm4.06,3.88c-.6,0-1.1-.14-1.5-.43s-.6-.72-.6-1.29c0-.53.19-.95.57-1.27s.89-.47,1.53-.47c.42,0,.84.04,1.26.13v-3.22c0-.13.04-.24.13-.32s.19-.13.32-.13.22.04.31.13.13.19.13.32v3.44c.57.18,1.1.39,1.59.63.49.24.9.49,1.23.73.1.08.17.17.19.29.02.12,0,.23-.08.34-.07.09-.16.15-.28.17-.12.02-.23,0-.34-.07-.26-.2-.6-.4-1-.62-.41-.21-.84-.41-1.31-.57v.22c0,.69-.18,1.19-.55,1.51-.37.32-.9.48-1.59.48Zm0-.83c.46,0,.78-.09.97-.28s.29-.48.29-.88v-.48c-.21-.05-.43-.09-.64-.12-.21-.03-.42-.05-.62-.05-.43,0-.74.09-.94.26-.2.17-.29.39-.29.65,0,.29.11.51.32.67s.52.23.91.23Zm4.63-6.89c-.18-.12-.41-.25-.71-.4s-.59-.28-.9-.41c-.31-.13-.57-.22-.8-.28-.11-.04-.2-.11-.27-.21-.07-.1-.08-.21-.06-.34.03-.12.1-.21.2-.27.11-.06.22-.08.34-.05.26.07.56.17.9.32s.67.3,1,.46c.33.16.59.31.78.46.1.07.17.16.19.28.02.12,0,.23-.08.34-.07.1-.16.16-.28.18s-.23,0-.34-.07Z"/>
        <path d="m223,155.88c-.11-.06-.19-.14-.22-.26-.04-.12-.02-.23.04-.33.48-.79.84-1.7,1.08-2.72.25-1.02.37-2.24.37-3.68v-.76c0-.69.09-1.23.26-1.62.17-.39.48-.67.91-.83.43-.16,1.03-.24,1.8-.24h2.04v-1.51c0-.14.05-.25.14-.33.09-.08.2-.12.32-.12.13,0,.24.04.33.12s.13.19.13.33v1.51h4.98c.12,0,.22.04.29.13.08.08.11.18.11.29s-.04.21-.11.29c-.07.08-.17.13-.29.13h-7.94c-.58,0-1.02.05-1.33.15-.31.1-.52.28-.63.55-.11.27-.17.66-.17,1.17v.76c0,1.47-.12,2.74-.36,3.81-.24,1.07-.62,2.06-1.13,2.97-.07.11-.16.19-.27.22-.12.04-.24.03-.36-.03Zm6.12.32c-.66,0-1.19-.07-1.57-.2-.39-.13-.66-.38-.83-.73-.16-.35-.25-.84-.25-1.46s.08-1.12.25-1.47c.16-.34.44-.59.83-.73.39-.14.91-.21,1.57-.21h.34v-4.35c0-.14.04-.25.13-.34.09-.08.19-.13.31-.13.13,0,.24.04.33.13s.13.2.13.34v1.55h4.26c.13,0,.23.04.31.13.07.08.11.18.11.29,0,.12-.04.22-.11.31-.08.08-.18.13-.31.13h-4.26v1.95h.95c.67,0,1.2.07,1.58.21s.66.38.82.73c.16.35.25.84.25,1.47s-.08,1.11-.25,1.46c-.16.35-.44.59-.82.73-.38.14-.91.2-1.58.2h-2.2Zm.06-.83h2.1c.48,0,.84-.04,1.11-.12.26-.08.44-.23.55-.45.1-.22.15-.56.15-.99s-.05-.78-.15-1.01c-.1-.22-.29-.37-.55-.45-.26-.08-.63-.11-1.11-.11h-2.1c-.48,0-.84.04-1.11.11-.26.07-.45.22-.55.45-.11.22-.16.56-.16,1.01s.05.77.16.99c.11.22.29.38.55.45.26.08.63.12,1.11.12Z"/>
        <path d="m243.58,156.43c-.11,0-.21-.04-.29-.11-.08-.08-.13-.17-.13-.29v-6.19c0-.52.06-.93.19-1.21.13-.28.34-.48.66-.59.31-.11.74-.17,1.29-.17h.42v-1.27h-2.7c-.16,0-.28-.06-.35-.2.03.14,0,.27-.1.38-.07.09-.17.14-.3.15-.13,0-.24-.04-.33-.12-.23-.21-.51-.46-.84-.76-.33-.3-.6-.58-.81-.83-.24-.27-.46-.26-.66.03-.16.24-.36.53-.62.87s-.52.67-.79,1c-.28.33-.53.61-.78.85-.08.08-.19.13-.31.14-.12,0-.23-.03-.32-.11-.07-.08-.11-.17-.12-.27s.04-.2.12-.27c.22-.22.48-.5.76-.83.29-.33.56-.68.83-1.04.27-.36.5-.68.69-.97.21-.33.46-.49.74-.5.28,0,.55.13.81.4.16.17.35.36.57.57s.45.42.69.62c.23.2.44.37.62.51.02,0,.04.02.06.04.02.02.03.04.04.06,0-.02,0-.04,0-.05,0-.01,0-.03,0-.04,0-.11.04-.21.11-.29.07-.08.17-.12.29-.12h2.7v-1.86c0-.13.04-.23.12-.31.08-.07.17-.11.29-.11s.21.04.29.11c.08.08.13.18.13.31v1.86h2.81c.12,0,.22.04.29.12.08.08.11.17.11.29,0,.1-.04.19-.11.27-.07.08-.17.12-.29.12h-2.81v1.27h.5c.55,0,.98.06,1.29.17s.53.31.66.59c.13.29.19.69.19,1.21v4.98c0,.54-.12.93-.36,1.16-.24.23-.65.35-1.23.36-.13,0-.24-.04-.31-.11-.08-.08-.12-.17-.13-.29,0-.12.02-.22.09-.3.07-.08.17-.12.29-.13.37-.04.6-.11.69-.21s.13-.29.13-.56v-1.79h-1.82v2.76c0,.12-.04.22-.13.3s-.18.12-.29.12-.21-.04-.29-.12c-.08-.08-.12-.18-.12-.3v-2.76h-1.74v3.08c0,.12-.04.22-.12.29-.08.07-.17.11-.29.11Zm-6.2-5.32c-.11,0-.2-.04-.27-.11-.07-.07-.1-.16-.1-.27s.03-.19.1-.27c.07-.07.16-.11.27-.11h2.17v-1.34h-1.61c-.1,0-.19-.04-.26-.11-.07-.08-.11-.16-.11-.25,0-.1.04-.19.11-.27.07-.07.16-.11.26-.11h1.61v-1.34c0-.12.04-.22.12-.29.08-.07.17-.11.29-.11s.21.04.29.11c.08.08.12.17.12.29v1.34h1.6c.11,0,.2.04.27.11.07.08.1.16.1.27,0,.09-.03.18-.1.25-.07.07-.15.11-.27.11h-1.6v1.34h1.92c.11,0,.2.04.27.11.07.08.1.16.1.27s-.04.19-.1.27c-.07.08-.16.11-.27.11h-4.9Zm2.53,5c-.55,0-.97-.06-1.26-.17-.29-.12-.49-.32-.59-.61s-.15-.7-.15-1.23.05-.94.15-1.24.3-.5.59-.61.71-.17,1.26-.17.97.06,1.26.17c.29.11.49.32.59.61s.16.71.16,1.24-.05.94-.16,1.23-.31.49-.59.61c-.29.12-.71.17-1.26.17Zm0-.77c.36,0,.62-.03.78-.09s.28-.18.33-.36c.05-.18.08-.44.08-.8s-.03-.62-.08-.8c-.05-.18-.16-.3-.33-.36s-.43-.09-.78-.09-.6.03-.77.09-.28.18-.33.36c-.05.18-.08.44-.08.8s.03.62.08.8c.05.18.16.3.33.36s.42.09.77.09Zm4.07-5.28h1.74v-1.43h-.38c-.36,0-.64.03-.84.09-.2.06-.33.18-.41.36-.08.18-.11.44-.11.8v.18Zm0,2.16h1.74v-1.44h-1.74v1.44Zm2.56-2.16h1.82v-.18c0-.35-.04-.62-.11-.8-.08-.18-.21-.3-.4-.36s-.47-.09-.85-.09h-.46v1.43Zm0,2.16h1.82v-1.44h-1.82v1.44Zm1.76-6.64c-.15-.15-.31-.3-.48-.46-.17-.16-.34-.3-.51-.43-.07-.06-.11-.14-.12-.24s.03-.19.09-.27c.08-.08.16-.12.27-.13.1-.01.2.02.28.09.16.12.33.27.51.43.18.17.35.32.5.46.07.07.11.15.12.26,0,.11-.03.2-.11.27s-.17.11-.27.11-.2-.03-.27-.1Z"/>
        <path d="m262.58,153.43c-.49-.35-1.01-.76-1.57-1.2-.57-.45-1.13-.92-1.69-1.41s-1.1-.96-1.6-1.42c-.39-.37-.74-.62-1.04-.75-.3-.13-.6-.14-.91-.03-.31.11-.68.33-1.12.67-.46.35-.9.68-1.33.99-.43.32-.84.6-1.23.84-.1.07-.21.09-.34.06s-.22-.09-.29-.2c-.07-.1-.08-.22-.06-.34s.09-.22.2-.29c.37-.23.78-.5,1.22-.8s.87-.61,1.3-.94c.56-.43,1.06-.71,1.5-.85.44-.14.87-.12,1.29.04s.89.48,1.41.96c.49.45,1.03.91,1.6,1.39.57.48,1.13.94,1.69,1.37.56.43,1.06.81,1.51,1.14.1.07.17.17.19.3.02.13,0,.24-.08.34-.08.1-.17.17-.3.19-.13.02-.24,0-.34-.08Z"/>
        <path d="m272.35,155.58c-.12,0-.23-.06-.32-.15-.09-.09-.13-.19-.13-.32,0-.13.06-.24.15-.32.09-.08.19-.13.31-.13,1.03.04,1.82-.1,2.38-.43.56-.32.84-.81.84-1.46s-.26-1.1-.78-1.43c-.52-.33-1.24-.49-2.14-.49-.43,0-.84.02-1.24.07-.4.05-.77.11-1.13.18v2.02c0,.83-.17,1.44-.5,1.83-.33.39-.86.59-1.59.59-.57,0-1.04-.16-1.41-.47-.37-.31-.56-.76-.56-1.35,0-.73.29-1.37.88-1.92.58-.56,1.35-.99,2.3-1.3v-2.84c-.48.04-.94.07-1.39.09-.45.02-.87.04-1.25.05-.12,0-.23-.03-.32-.12s-.13-.19-.13-.32c0-.13.04-.24.13-.32s.19-.13.32-.13c.38,0,.8-.03,1.25-.05.45-.02.92-.05,1.39-.09v-2.27c0-.13.04-.24.13-.32.09-.08.19-.13.31-.13s.22.04.31.13.13.19.13.32v2.2c.33-.04.64-.07.94-.11.3-.04.59-.08.86-.11.13-.02.25,0,.34.07s.15.16.16.29c.02.12,0,.23-.08.32-.07.09-.17.15-.3.17-.27.04-.57.08-.9.12s-.67.08-1.03.12v2.69c.37-.08.76-.13,1.15-.17s.81-.06,1.23-.06c1.21,0,2.15.25,2.82.75.67.5,1,1.16,1,2,0,.93-.36,1.64-1.09,2.13-.73.49-1.75.71-3.05.67Zm-4.14-.9c.41,0,.71-.11.91-.33.2-.22.29-.63.29-1.23v-1.75c-.72.26-1.28.6-1.68,1.02-.4.42-.6.86-.6,1.32,0,.28.09.51.27.69.18.18.45.27.8.27Zm7.94-5.8c-.17-.13-.39-.28-.68-.46-.29-.18-.57-.35-.87-.52s-.55-.31-.78-.41c-.1-.05-.18-.13-.23-.25-.05-.12-.05-.23,0-.34.06-.11.14-.19.26-.22.12-.04.23-.03.34.01.24.11.53.26.85.45.32.19.63.37.93.56s.53.35.7.48c.1.08.16.17.17.29.01.12-.02.23-.09.34-.07.09-.16.15-.28.16-.12.01-.23-.01-.34-.08Z"/>
        <path d="m278.87,156.26c-.09-.05-.16-.12-.2-.22-.04-.1-.03-.2.03-.3.24-.45.46-.95.67-1.52.2-.57.37-1.16.51-1.77.14-.62.23-1.21.28-1.79.02-.12.07-.22.15-.29.08-.07.17-.1.29-.08.11,0,.21.05.28.13.07.08.1.17.08.28-.03.27-.06.54-.1.8-.04.27-.08.53-.14.79.34.65.73,1.18,1.18,1.58v-4.68h-2.25c-.11,0-.21-.04-.28-.12-.07-.08-.11-.17-.11-.27s.04-.19.11-.27c.08-.08.17-.12.28-.12h2.18v-1.95h-1.88c-.1,0-.19-.04-.27-.11-.08-.07-.11-.17-.11-.28,0-.1.04-.19.11-.27.07-.08.16-.12.27-.12h1.88v-1.74c0-.13.04-.24.12-.31s.18-.12.3-.12.22.04.31.12.13.18.13.31v1.74h1.72c.1,0,.19.04.27.12.07.08.11.17.11.27,0,.11-.04.21-.11.28s-.16.11-.27.11h-1.72v1.95h1.96c.1,0,.19.04.27.12s.12.17.12.27-.04.19-.12.27c-.08.08-.17.12-.27.12h-1.92v1.95h1.75c.11,0,.21.04.28.12.07.08.11.17.11.29,0,.1-.04.19-.11.27-.08.08-.17.12-.28.12h-1.75v2.51c.49.25,1.08.44,1.76.55.68.12,1.5.18,2.46.18s1.71-.01,2.39-.04c.68-.03,1.3-.06,1.85-.1.16-.02.29.01.4.1s.16.2.15.35c-.02.28-.2.43-.53.45-.31,0-.69.02-1.16.02s-.96,0-1.5.01c-.54,0-1.07,0-1.6,0-1.13,0-2.1-.08-2.92-.25-.82-.17-1.51-.45-2.08-.84-.57-.39-1.06-.92-1.47-1.6-.14.51-.3,1-.48,1.46-.18.46-.37.9-.57,1.31-.06.1-.14.17-.25.21s-.21.03-.31-.01Zm7.87-1.79c-.09.06-.2.09-.33.08-.13,0-.23-.06-.3-.15-.07-.09-.09-.19-.06-.29.02-.1.08-.19.17-.25.47-.33.89-.7,1.28-1.11.39-.42.73-.86,1.03-1.34-.18-.55-.33-1.19-.46-1.92-.13-.73-.22-1.56-.29-2.51h-.18c-.46,0-.77.07-.92.2-.16.13-.24.39-.24.78v3.61c.19-.07.36-.15.53-.22.16-.07.31-.13.43-.17.26-.11.44-.05.53.18.05.11.04.21,0,.31-.05.09-.13.16-.25.21-.23.1-.52.23-.86.37-.34.15-.69.29-1.04.43s-.67.27-.95.37c-.11.04-.22.03-.32,0-.1-.04-.18-.12-.22-.23-.04-.11-.03-.22.02-.32.05-.1.14-.17.26-.21.13-.05.29-.1.48-.17s.38-.14.59-.22v-3.93c0-.67.15-1.13.44-1.39s.81-.38,1.55-.38h.14c-.03-.69-.04-1.43-.04-2.23,0-.13.04-.23.11-.3.08-.07.17-.1.29-.1.11,0,.21.04.29.1.08.07.11.17.11.29,0,.4-.01.79,0,1.16,0,.37.01.73.02,1.08h2.69c.1,0,.19.04.27.12.07.08.11.17.11.27s-.04.19-.11.27c-.08.08-.16.12-.27.12h-2.65c.05.69.11,1.33.2,1.91.08.58.19,1.11.31,1.57.19-.35.35-.72.49-1.1s.27-.77.38-1.17c.04-.1.11-.18.21-.22s.21-.05.31-.01c.1.03.18.09.22.19.05.1.05.2.01.3-.17.54-.36,1.06-.57,1.57s-.46.99-.74,1.46c.26.67.55,1.22.88,1.65.22.28.41.25.56-.08.06-.13.11-.27.17-.41.06-.14.1-.27.14-.37.1-.23.27-.3.52-.21.09.04.16.1.21.19s.05.19,0,.3c-.05.12-.11.27-.18.44-.08.17-.15.35-.24.52-.21.45-.48.69-.78.74s-.62-.13-.92-.51c-.32-.41-.61-.9-.87-1.47-.29.4-.61.79-.96,1.16-.35.37-.74.72-1.16,1.05Zm3.63-8.64c-.15-.13-.34-.28-.56-.46-.22-.17-.42-.32-.59-.44-.08-.07-.12-.15-.13-.26-.01-.11.02-.2.09-.27.16-.18.34-.2.55-.06.16.1.35.24.59.43.23.18.42.34.57.47.08.08.13.17.14.27,0,.11-.02.2-.1.29-.08.07-.17.11-.27.12-.11,0-.2-.03-.29-.09Z"/>
        <path d="m299.82,155.62c-1,0-1.79-.26-2.36-.77-.57-.51-.86-1.31-.86-2.39v-7.62c0-.12.04-.22.13-.31s.19-.13.31-.13c.13,0,.24.04.32.13s.13.19.13.31v7.62c0,.58.1,1.04.29,1.37s.46.57.82.71c.35.14.76.2,1.23.2.69,0,1.33-.19,1.92-.57s1.05-.92,1.38-1.62c.05-.11.13-.19.25-.23.12-.04.24-.04.35.02s.19.14.23.26c.04.12.04.23-.02.34-.4.86-.97,1.52-1.71,1.99s-1.54.7-2.41.7Z"/>
        <path d="m21.68,181.77c-.09.07-.2.09-.32.07s-.22-.08-.29-.18c-.33-.47-.68-.94-1.06-1.41-.38-.48-.76-.93-1.14-1.36-.38-.43-.73-.81-1.07-1.13-.57-.55-.94-1.06-1.13-1.53-.18-.47-.17-.93.04-1.39s.6-.95,1.18-1.46c.28-.24.61-.55.98-.91s.75-.75,1.14-1.15c.39-.4.74-.77,1.06-1.11.08-.09.19-.14.31-.14s.22.04.31.11c.09.08.14.19.15.32s-.04.23-.12.31c-.34.36-.7.73-1.09,1.13s-.77.78-1.15,1.14c-.37.36-.7.67-.99.93-.44.4-.74.76-.89,1.07-.15.31-.16.62-.02.94.14.31.42.68.84,1.1.34.34.72.73,1.11,1.18.4.45.79.92,1.19,1.41s.76.97,1.1,1.44c.07.09.1.2.08.32-.02.12-.09.22-.19.29Z"/>
        <path d="m28.41,181.15c-.1-.07-.17-.16-.2-.28-.03-.12,0-.23.06-.34.41-.64.77-1.37,1.08-2.16s.57-1.62.78-2.47c.21-.85.38-1.67.49-2.46-.33.04-.65.07-.97.1s-.63.05-.92.07c-.12,0-.23-.03-.32-.11-.09-.08-.14-.19-.15-.31,0-.12.03-.23.11-.32.08-.09.19-.14.31-.14.3-.02.62-.04.97-.07.35-.03.71-.06,1.08-.1.05-.43.08-.83.1-1.2.02-.37.02-.71,0-1.02,0-.12.03-.23.11-.32.08-.09.19-.14.31-.15.13,0,.24.04.33.12.09.08.13.18.13.31.03.6,0,1.31-.08,2.14.69-.08,1.3-.19,1.83-.32.12-.03.23,0,.33.06.1.07.16.16.19.29.03.12,0,.23-.06.34-.07.1-.16.16-.28.18-.32.07-.66.13-1.01.18-.36.06-.73.11-1.11.15-.12.85-.3,1.74-.53,2.67-.23.93-.51,1.83-.84,2.7s-.71,1.64-1.14,2.31c-.07.1-.16.17-.27.2-.12.03-.23,0-.33-.06Zm9.72-.32c-1.3.27-2.42.29-3.37.06-.95-.23-1.64-.73-2.07-1.5-.06-.1-.07-.21-.04-.34.03-.12.11-.21.22-.27.1-.06.21-.07.33-.04.12.03.21.11.27.22.25.45.6.77,1.05.95s.97.28,1.55.27c.59,0,1.21-.08,1.88-.22.12-.03.23,0,.34.06.1.07.16.16.18.29.03.12,0,.23-.06.33-.07.1-.16.16-.28.19Zm-.59-5.52c-.57-.13-1.18-.2-1.83-.22-.65-.01-1.28.04-1.9.16-.12.02-.23,0-.34-.07s-.16-.16-.18-.28c-.03-.13,0-.25.06-.34.07-.1.17-.16.29-.18.65-.12,1.35-.17,2.08-.16.73.01,1.41.09,2.02.22.12.03.21.1.27.2s.08.22.05.34c-.03.12-.09.21-.2.27-.1.06-.21.08-.34.05Zm.87-2.16c-.07.07-.16.09-.27.08-.1,0-.19-.05-.25-.13-.13-.16-.31-.35-.53-.57-.22-.22-.42-.39-.57-.51-.07-.07-.12-.15-.13-.25,0-.1.02-.18.08-.26.08-.08.16-.11.25-.12.09,0,.18.03.27.09.1.08.23.18.38.32.15.13.3.28.45.42.15.14.27.27.36.37.08.07.11.17.09.27-.01.11-.06.2-.13.27Zm1.11-1.16c-.07.08-.15.11-.26.1-.11,0-.2-.04-.27-.12-.13-.15-.31-.32-.55-.53-.24-.2-.44-.36-.59-.48-.08-.06-.13-.14-.15-.24-.01-.09.01-.18.08-.27.07-.07.15-.12.25-.13.1,0,.19.01.27.07.11.08.25.17.4.3s.31.26.47.39c.16.13.29.25.38.36.08.07.11.15.11.26,0,.11-.04.2-.12.27Z"/>
        <path d="m48.98,181.57c-.99.02-1.86-.08-2.6-.3-.75-.22-1.33-.56-1.74-1.03-.41-.47-.62-1.06-.62-1.78,0-.59.14-1.07.42-1.46s.66-.67,1.14-.86c.48-.19,1.04-.29,1.67-.31.63-.01,1.29.06,1.99.23-.41-.36-.82-.81-1.22-1.34s-.76-1.08-1.08-1.67c-.6.09-1.2.17-1.81.24s-1.19.11-1.76.14c-.12,0-.23-.03-.32-.11s-.14-.19-.15-.31c0-.13.04-.24.13-.32s.19-.13.31-.14c.49-.02,1.01-.05,1.56-.1.55-.05,1.09-.12,1.63-.2-.12-.29-.23-.58-.33-.86-.1-.28-.18-.57-.23-.85-.03-.12,0-.23.06-.34.07-.1.16-.16.28-.18.13-.03.25,0,.34.06.1.07.16.16.19.28.11.56.3,1.14.57,1.75.54-.1,1.06-.21,1.55-.33.5-.12.95-.25,1.36-.39.12-.04.24-.03.34.03.11.06.18.14.22.27.04.11.03.22-.03.33-.06.11-.14.18-.27.22-.41.12-.85.24-1.32.35-.47.11-.95.22-1.45.32.38.68.84,1.33,1.36,1.95.53.62,1.08,1.13,1.67,1.54.09.07.15.15.18.25.03.1.02.21-.03.31-.05.09-.12.16-.22.21-.1.05-.21.06-.31.03-1.12-.37-2.1-.56-2.93-.57-.84,0-1.48.15-1.95.47s-.69.78-.69,1.39c0,.53.17.96.5,1.29.34.33.81.57,1.41.71.61.14,1.32.21,2.13.2.12,0,.23.04.31.13s.13.19.13.31-.04.23-.13.32c-.08.09-.19.13-.31.13Z"/>
        <path d="m59.09,179.6c-.38.02-.75-.07-1.09-.26-.34-.19-.64-.49-.88-.89-.23-.38-.43-.89-.6-1.53s-.29-1.33-.37-2.07c-.08-.75-.1-1.47-.05-2.18,0-.12.06-.22.15-.31s.19-.12.32-.11c.13,0,.24.06.31.15.08.09.11.2.11.32-.04.68-.03,1.36.03,2.04.06.68.16,1.29.31,1.86.15.56.33,1.02.55,1.37.15.23.32.41.52.54.2.13.41.18.63.17.58,0,1.04-.54,1.39-1.58.04-.12.11-.21.22-.27.11-.06.22-.07.34-.03s.21.11.27.22c.06.11.06.22.01.34-.26.77-.58,1.32-.96,1.66s-.77.53-1.18.55Zm7.59-2.46c-.12.04-.24.03-.34-.02-.11-.05-.18-.13-.23-.25-.23-.6-.57-1.18-1.01-1.74-.44-.56-.93-1.01-1.45-1.36-.09-.07-.15-.16-.17-.29s0-.24.08-.33c.08-.1.18-.16.3-.16.12,0,.23.03.34.1.35.22.71.53,1.08.9s.7.79,1,1.23.53.88.68,1.32c.05.12.04.24-.01.34s-.14.18-.27.23Z"/>
        <path d="m71.28,181.81c-.35,0-.68-.09-.97-.26s-.53-.41-.7-.7c-.17-.29-.26-.62-.26-.97s.09-.69.26-.98c.17-.29.41-.52.7-.69s.62-.26.97-.26.68.09.97.26c.29.17.52.41.69.7s.26.62.26.97-.09.68-.26.97c-.17.29-.4.53-.69.7-.29.17-.61.26-.97.26Zm0-.63c.35,0,.66-.13.91-.38s.38-.56.38-.92-.13-.66-.38-.92-.56-.38-.91-.38-.66.13-.92.38-.38.56-.38.92.13.66.38.92.56.38.92.38Z"/>
        <path d="m90.35,181.34c-.12,0-.23-.06-.32-.15-.09-.09-.13-.19-.13-.32,0-.13.06-.24.15-.32.09-.08.19-.13.31-.13,1.03.04,1.82-.1,2.38-.43.56-.32.84-.81.84-1.46s-.26-1.1-.78-1.43c-.52-.33-1.24-.49-2.14-.49-.43,0-.84.02-1.24.07-.4.05-.77.11-1.13.18v2.02c0,.83-.17,1.44-.5,1.83-.33.39-.86.59-1.59.59-.57,0-1.04-.16-1.41-.47-.37-.31-.56-.76-.56-1.35,0-.73.29-1.37.88-1.92.58-.56,1.35-.99,2.3-1.3v-2.84c-.48.04-.94.07-1.39.09-.45.02-.87.04-1.25.05-.12,0-.23-.03-.32-.12s-.13-.19-.13-.32c0-.13.04-.24.13-.32s.19-.13.32-.13c.38,0,.8-.03,1.25-.05.45-.02.92-.05,1.39-.09v-2.27c0-.13.04-.24.13-.32.09-.08.19-.13.31-.13s.22.04.31.13.13.19.13.32v2.2c.33-.04.64-.07.94-.11.3-.04.59-.08.86-.11.13-.02.25,0,.34.07s.15.16.16.29c.02.12,0,.23-.08.32-.07.09-.17.15-.3.17-.27.04-.57.08-.9.12s-.67.08-1.03.12v2.69c.37-.08.76-.13,1.15-.17s.81-.06,1.23-.06c1.21,0,2.15.25,2.82.75.67.5,1,1.16,1,2,0,.93-.36,1.64-1.09,2.13-.73.49-1.75.71-3.05.67Zm-4.14-.9c.41,0,.71-.11.91-.33.2-.22.29-.63.29-1.23v-1.75c-.72.26-1.28.6-1.68,1.02-.4.42-.6.86-.6,1.32,0,.28.09.51.27.69.18.18.45.27.8.27Zm7.94-5.8c-.17-.13-.39-.28-.68-.46-.29-.18-.57-.35-.87-.52s-.55-.31-.78-.41c-.1-.05-.18-.13-.23-.25-.05-.12-.05-.23,0-.34.06-.11.14-.19.26-.22.12-.04.23-.03.34.01.24.11.53.26.85.45.32.19.63.37.93.56s.53.35.7.48c.1.08.16.17.17.29.01.12-.02.23-.09.34-.07.09-.16.15-.28.16-.12.01-.23-.01-.34-.08Z"/>
        <path d="m97.71,182.12c-.33.07-.53-.02-.62-.29-.05-.13-.04-.25.03-.36.06-.11.18-.18.34-.22,1.05-.25,2.02-.57,2.89-.96.87-.39,1.65-.82,2.34-1.31-.49-.49-.95-1.04-1.36-1.65-.41-.62-.78-1.31-1.09-2.07h-1.64c-.12,0-.22-.04-.3-.13s-.12-.19-.12-.31.04-.22.12-.3.18-.12.3-.12h4.31v-2h-5.32c-.12,0-.22-.04-.29-.12-.08-.08-.11-.17-.11-.29,0-.12.04-.22.11-.3.07-.08.17-.12.29-.12h5.32v-1.85c0-.13.05-.24.14-.33.09-.09.2-.13.32-.13.13,0,.24.04.32.13s.13.2.13.33v1.85h5.31c.13,0,.23.04.31.12.08.08.11.18.11.3,0,.11-.04.21-.11.29-.07.08-.18.12-.31.12h-5.31v2h1.01c.94,0,1.53.23,1.75.69.22.46.09,1.03-.41,1.7-.62.83-1.31,1.57-2.06,2.21.7.51,1.49.95,2.36,1.31s1.83.65,2.88.88c.13.03.23.1.31.2.07.11.09.23.04.37-.04.15-.12.25-.24.31s-.26.07-.42.03c-1.1-.27-2.13-.61-3.07-1.01-.95-.4-1.81-.91-2.58-1.51-1.54,1.12-3.43,1.96-5.68,2.53Zm5.7-3.68c.74-.62,1.36-1.27,1.88-1.97.3-.4.41-.7.32-.9-.08-.2-.42-.3-1.02-.3h-3.43c.27.63.6,1.22.97,1.74s.8,1.01,1.28,1.44Z"/>
        <path d="m112.44,182.15c-.15,0-.27-.04-.35-.13s-.13-.19-.14-.32c0-.12.02-.23.1-.32.07-.09.18-.14.32-.15.32-.02.55-.05.71-.1.15-.05.26-.13.31-.24.05-.11.08-.28.08-.5v-3.35c-.37.12-.73.24-1.06.35-.34.11-.61.21-.83.28-.15.04-.28.03-.39-.03-.11-.06-.19-.14-.24-.27-.04-.13-.02-.25.04-.36.07-.11.16-.19.28-.22.27-.07.6-.17.99-.29.39-.12.79-.24,1.21-.37v-3.04h-2.1c-.12,0-.22-.04-.3-.12s-.12-.18-.12-.3c0-.11.04-.21.12-.29s.18-.13.3-.13h2.1v-2.56c0-.13.04-.24.13-.32.09-.08.19-.12.31-.12s.22.04.31.12c.08.08.13.18.13.32v2.56h1.65c.13,0,.23.04.31.13.07.08.11.18.11.29,0,.12-.04.22-.11.3-.08.08-.18.12-.31.12h-1.65v2.76c.3-.1.58-.2.85-.29s.5-.17.7-.23c.12-.05.24-.05.34,0s.18.12.22.25c.08.25-.01.43-.29.55-.48.18-1.08.39-1.82.64v3.75c0,.58-.13.99-.4,1.25-.27.25-.77.38-1.5.38Zm10.96-.49c-.12.06-.24.06-.36.01-.12-.05-.21-.13-.25-.25-.09-.24-.2-.5-.31-.76-.12-.27-.24-.54-.37-.83-.4.09-.89.2-1.46.32-.57.12-1.17.24-1.79.36-.62.12-1.22.22-1.79.32-.57.1-1.07.17-1.48.23-.15,0-.27-.02-.37-.08-.1-.06-.16-.16-.18-.29-.05-.28.09-.44.41-.49.16-.02.34-.04.54-.06.2-.02.4-.05.61-.09.2-.66.4-1.39.6-2.18.21-.79.41-1.62.6-2.48.2-.86.38-1.73.55-2.61.17-.88.31-1.73.43-2.56.02-.13.08-.24.19-.32.11-.08.22-.11.34-.09.13.02.23.08.31.18.08.1.1.22.08.35-.33,1.96-.68,3.74-1.06,5.35-.38,1.61-.76,3.01-1.13,4.21.5-.08,1-.17,1.52-.27.52-.09,1.01-.19,1.48-.28.47-.09.89-.18,1.25-.25-.25-.49-.51-.98-.77-1.46-.26-.48-.5-.9-.71-1.25-.07-.1-.08-.21-.05-.31.03-.11.1-.19.2-.25.1-.06.21-.07.34-.04.12.03.21.1.28.2.29.46.6.99.92,1.59.33.6.64,1.21.94,1.82s.55,1.16.74,1.66c.05.13.05.25,0,.36s-.12.19-.25.24Z"/>
        <path d="m129.09,179.6c-.38.02-.75-.07-1.09-.26-.34-.19-.64-.49-.88-.89-.23-.38-.43-.89-.6-1.53s-.29-1.33-.37-2.07c-.08-.75-.1-1.47-.05-2.18,0-.12.06-.22.15-.31s.19-.12.32-.11c.13,0,.24.06.31.15.08.09.11.2.11.32-.04.68-.03,1.36.03,2.04.06.68.16,1.29.31,1.86.15.56.33,1.02.55,1.37.15.23.32.41.52.54.2.13.41.18.63.17.58,0,1.04-.54,1.39-1.58.04-.12.11-.21.22-.27.11-.06.22-.07.34-.03s.21.11.27.22c.06.11.06.22.01.34-.26.77-.58,1.32-.96,1.66s-.77.53-1.18.55Zm7.59-2.46c-.12.04-.24.03-.34-.02-.11-.05-.18-.13-.23-.25-.23-.6-.57-1.18-1.01-1.74-.44-.56-.93-1.01-1.45-1.36-.09-.07-.15-.16-.17-.29s0-.24.08-.33c.08-.1.18-.16.3-.16.12,0,.23.03.34.1.35.22.71.53,1.08.9s.7.79,1,1.23.53.88.68,1.32c.05.12.04.24-.01.34s-.14.18-.27.23Z"/>
        <path d="m140.97,181.32c-.12.02-.23,0-.34-.08s-.16-.17-.18-.29c-.06-.32-.1-.74-.13-1.27-.03-.53-.05-1.12-.06-1.79,0-.66,0-1.35.01-2.06.02-.71.05-1.4.08-2.07.04-.67.09-1.29.15-1.85.06-.56.13-1.01.22-1.36.03-.12.09-.21.2-.27.1-.06.21-.08.34-.05.12.03.21.09.28.2s.08.21.06.34c-.08.35-.16.8-.22,1.34s-.12,1.13-.15,1.77c-.04.64-.06,1.3-.08,1.97-.01.67-.02,1.32,0,1.95,0,.63.03,1.2.07,1.72.04.52.08.94.14,1.27.02.12,0,.23-.08.33-.07.1-.17.16-.29.19Zm4.82-.04c-.62,0-1.12-.15-1.51-.43-.39-.29-.59-.72-.59-1.29s.19-.97.57-1.27c.38-.31.89-.46,1.55-.46.41,0,.82.04,1.22.13,0-.55-.02-1.18-.04-1.89-.02-.71-.04-1.43-.06-2.17-.57.04-1.12.07-1.65.08-.53.02-.99.02-1.39.01-.12,0-.22-.04-.31-.13-.08-.09-.13-.19-.13-.31,0-.13.06-.24.15-.32s.19-.12.31-.11c.38,0,.84,0,1.37,0,.53,0,1.07-.03,1.63-.07,0-.42-.02-.83-.02-1.23s0-.77,0-1.12c0-.12.04-.23.13-.31s.19-.13.31-.13.22.04.31.13.13.19.13.31c0,.36,0,.73,0,1.11,0,.39.01.78.02,1.18.48-.04.94-.08,1.37-.13.43-.05.79-.1,1.09-.15.12-.02.23,0,.33.08.1.07.16.17.17.29.02.12,0,.23-.07.34-.07.1-.16.16-.29.18-.31.04-.69.08-1.14.12-.45.04-.94.09-1.45.13.02.81.04,1.6.06,2.36s.04,1.42.05,1.97c.55.16,1.07.36,1.55.6.49.24.91.5,1.27.77.1.07.17.16.19.28.02.12,0,.23-.08.34-.07.09-.17.15-.29.18s-.23,0-.34-.08c-.29-.21-.63-.43-1.04-.64s-.82-.39-1.26-.54v.22c0,.69-.17,1.19-.53,1.51s-.9.48-1.61.48Zm0-.84c.46,0,.78-.09.97-.27s.29-.47.29-.88v-.49c-.21-.05-.43-.08-.64-.11-.21-.03-.42-.04-.62-.04-.83,0-1.25.3-1.25.91,0,.29.11.51.33.66.22.15.53.22.92.22Z"/>
        <path d="m158.84,181.17c-.73,0-1.33-.05-1.81-.15-.48-.1-.85-.27-1.12-.53-.27-.26-.46-.62-.57-1.09-.11-.47-.17-1.08-.17-1.83v-3.7c0-.75.06-1.36.17-1.83.11-.47.3-.83.57-1.09.27-.26.64-.43,1.12-.53.48-.1,1.08-.15,1.81-.15h1.11c.73,0,1.33.05,1.81.15.48.1.85.28,1.12.53.27.26.46.62.57,1.09.11.47.16,1.08.16,1.83v3.7c0,.75-.05,1.36-.16,1.83-.11.47-.3.83-.57,1.09-.27.26-.64.43-1.12.53-.48.1-1.08.15-1.81.15h-1.11Zm-2.77-5.96h6.62v-1.33c0-.59-.04-1.06-.11-1.43-.07-.36-.21-.64-.4-.83s-.47-.32-.83-.39c-.36-.06-.83-.1-1.41-.1h-1.11c-.57,0-1.04.03-1.4.1-.36.07-.65.19-.85.39-.2.19-.34.47-.41.83-.08.36-.11.84-.11,1.43v1.33Zm2.77,5.11h1.11c.58,0,1.05-.03,1.41-.1s.63-.19.83-.38.32-.47.4-.83c.08-.36.11-.84.11-1.43v-1.53h-6.62v1.53c0,.59.04,1.06.11,1.43.07.36.21.64.41.83.2.19.48.32.85.38s.83.1,1.4.1Z"/>
        <path d="m173.38,182.19c-.12,0-.23-.04-.32-.13s-.13-.19-.13-.32v-2.44h-2.49c-.11,0-.21-.04-.29-.12-.08-.08-.13-.18-.13-.3s.04-.22.13-.3.18-.12.29-.12h2.49v-4.56c-.39.63-.87,1.28-1.44,1.95-.57.66-1.18,1.3-1.85,1.91s-1.34,1.17-2.03,1.66c-.11.08-.24.11-.38.11-.14,0-.25-.06-.34-.18-.07-.11-.1-.23-.07-.36.03-.13.1-.23.22-.3.75-.49,1.47-1.05,2.17-1.69.7-.64,1.34-1.31,1.91-2s1.04-1.34,1.41-1.95h-4.89c-.12,0-.22-.04-.3-.12-.08-.08-.12-.18-.12-.3,0-.11.04-.21.12-.29s.18-.13.3-.13h5.28v-2.48c0-.13.04-.24.13-.32s.19-.13.32-.13.22.04.31.13.13.19.13.32v2.48h5.29c.11,0,.21.04.29.13s.13.18.13.29c0,.12-.04.22-.13.3-.08.08-.18.12-.29.12h-4.89c.42.68.93,1.37,1.53,2.05.6.69,1.25,1.33,1.96,1.95.7.61,1.41,1.15,2.11,1.62.1.07.16.16.18.28.01.12-.02.23-.09.34-.08.1-.19.17-.31.2-.13.03-.25,0-.37-.08-.68-.48-1.36-1.02-2.02-1.62-.67-.59-1.29-1.22-1.87-1.88-.58-.66-1.08-1.34-1.51-2.03v4.61h2.58c.12,0,.22.04.3.12s.12.18.12.3-.04.22-.12.3c-.08.08-.18.12-.3.12h-2.58v2.44c0,.13-.04.24-.13.32s-.19.13-.31.13Z"/>
        <path d="m182.99,175.04c-.16-.13-.35-.27-.58-.43-.23-.15-.46-.31-.69-.46-.23-.15-.45-.28-.64-.39-.09-.06-.16-.14-.2-.25-.04-.11-.03-.21.03-.31.07-.1.15-.17.26-.21s.21-.02.32.04c.21.11.43.25.69.4.25.15.5.31.74.46.24.15.44.3.59.43.1.07.16.17.18.29.02.12,0,.23-.08.33-.07.09-.16.15-.28.17s-.23,0-.32-.08Zm-1.81,6.51c-.1-.07-.17-.16-.19-.27-.02-.12,0-.23.08-.33.16-.24.35-.53.56-.88.21-.34.44-.71.67-1.09.23-.39.44-.76.64-1.12.2-.36.36-.67.48-.93.06-.12.14-.2.25-.22.11-.03.22-.01.32.04.23.12.29.32.17.59-.12.27-.28.59-.48.95s-.4.74-.62,1.12-.43.75-.64,1.1-.4.65-.57.9c-.08.1-.17.17-.3.2-.13.03-.25.01-.37-.06Zm2.53-9.62c-.16-.13-.35-.27-.58-.43-.23-.15-.46-.31-.69-.46s-.45-.29-.64-.4c-.09-.05-.16-.13-.19-.24-.03-.11-.02-.21.04-.31.06-.1.14-.17.25-.21.11-.04.22-.03.32.03.21.11.43.25.68.41.25.16.49.31.73.47.24.15.44.3.59.43.1.08.16.17.18.29.02.12,0,.23-.08.33-.07.09-.16.15-.28.17-.12.02-.23,0-.32-.07Zm3.89,9.79c-.65,0-1.17-.07-1.55-.22s-.66-.38-.82-.72-.25-.8-.25-1.39v-3.99c0-.57.08-1.02.23-1.36s.41-.58.77-.73.84-.23,1.45-.24v-2.24h-2.72c-.11,0-.21-.04-.28-.12-.07-.08-.11-.17-.11-.29s.04-.21.11-.29c.08-.08.17-.12.28-.12h8.55c.11,0,.21.04.29.12.08.08.12.18.12.29s-.04.21-.12.29c-.08.08-.17.12-.29.12h-3.11v2.24h.22c.65,0,1.17.07,1.55.22s.66.39.82.73c.16.34.25.8.25,1.38v3.99c0,.59-.08,1.05-.25,1.39s-.44.58-.82.72-.9.22-1.55.22h-2.79Zm-1.78-3.22h6.34v-2.39c-.11.35-.28.6-.51.76-.23.16-.52.24-.89.24-.5,0-.87-.09-1.08-.27-.22-.18-.33-.55-.33-1.11v-1.82h-1.11c-.03.75-.16,1.39-.41,1.93-.24.54-.65,1.05-1.23,1.51-.09.07-.2.1-.33.11-.13,0-.23-.03-.31-.13-.08-.07-.11-.18-.11-.32,0-.13.06-.24.17-.33.5-.36.84-.75,1.05-1.17.21-.42.32-.96.35-1.62-.62,0-1.04.12-1.27.34-.23.21-.34.6-.34,1.16v3.09Zm1.78,2.39h2.79c.69,0,1.16-.1,1.41-.31.25-.21.37-.6.37-1.18v-.08h-6.34v.08c0,.58.13.97.38,1.18.25.21.72.31,1.4.31Zm.64-7.81h1.11v-2.24h-1.11v2.24Zm2.53,3.18c.19,0,.33-.05.43-.15.1-.1.18-.28.25-.54.03-.1.09-.18.2-.23.1-.05.21-.05.32,0,.09.03.16.07.2.13v-.06c0-.58-.12-.97-.37-1.18-.25-.21-.72-.31-1.41-.31h-.22v1.74c0,.26.04.43.13.5.09.08.25.11.48.11Z"/>
        <path d="m197.8,182.19c-.12,0-.22-.04-.31-.13s-.13-.19-.13-.32v-7.91c-.29.42-.58.82-.88,1.2s-.59.73-.89,1.05c-.08.09-.18.14-.3.15-.12,0-.22-.04-.32-.12-.08-.08-.13-.17-.14-.27,0-.11.02-.21.1-.3.34-.35.68-.77,1.04-1.25s.71-.99,1.04-1.53c.34-.54.64-1.06.9-1.58.27-.52.47-.99.62-1.41.05-.13.13-.22.24-.27.11-.05.23-.05.35,0,.26.1.34.29.25.57-.15.37-.32.76-.52,1.16-.2.4-.41.8-.64,1.2v9.31c0,.13-.04.24-.12.32s-.18.13-.31.13Zm7.5-.71c-.49-.44-.95-.97-1.39-1.6s-.83-1.4-1.18-2.3-.61-1.97-.8-3.2l-2.74.25c-.13,0-.24-.02-.33-.1-.09-.08-.14-.17-.16-.29,0-.12.02-.23.1-.32.07-.09.17-.14.29-.15l2.73-.27c-.07-.55-.12-1.13-.15-1.74-.04-.61-.06-1.25-.07-1.93,0-.13.04-.24.13-.32s.19-.13.32-.13c.13,0,.24.04.33.12.09.08.13.19.12.33,0,.67.01,1.31.04,1.9.03.6.08,1.16.14,1.68l4.2-.39c.13,0,.24.02.33.1.09.08.14.17.15.29.02.12,0,.23-.08.32-.08.09-.18.14-.31.16l-4.16.39c.18,1.15.42,2.14.73,2.97.31.83.67,1.53,1.08,2.11.41.57.84,1.05,1.29,1.43.38.33.65.26.81-.2.07-.2.14-.44.23-.73s.16-.53.22-.71c.05-.13.12-.23.23-.29s.22-.08.34-.06c.12.04.21.11.27.21.06.1.06.22.03.35-.07.25-.15.53-.26.85-.11.31-.2.58-.27.79-.21.57-.51.89-.91.96-.4.07-.83-.1-1.29-.5Zm1.13-9.16c-.08.08-.19.13-.31.13s-.23-.05-.32-.14c-.14-.15-.31-.32-.52-.5-.21-.19-.41-.37-.62-.55-.21-.18-.38-.33-.53-.44-.08-.07-.13-.17-.13-.27,0-.11.03-.2.09-.29.07-.09.17-.15.29-.16.12-.01.22.02.31.09.16.12.35.28.57.46.22.19.44.38.66.57s.39.35.52.48c.08.09.13.2.13.31s-.05.22-.14.32Z"/>
        <path d="m216.59,180.68c-.12.03-.24.01-.34-.05s-.17-.15-.2-.27c-.04-.13-.02-.25.04-.35.06-.1.16-.17.28-.21,1.08-.27,1.93-.74,2.55-1.41.62-.67.92-1.53.92-2.58,0-.71-.17-1.34-.5-1.89-.33-.55-.8-.99-1.39-1.32-.6-.33-1.3-.5-2.1-.53-.09,1.14-.25,2.18-.48,3.11-.23.94-.5,1.75-.83,2.42-.32.68-.67,1.2-1.06,1.57-.38.37-.77.55-1.18.55-.45,0-.84-.14-1.19-.42-.34-.28-.62-.67-.81-1.16-.2-.49-.29-1.05-.29-1.68,0-.76.14-1.45.43-2.09s.69-1.19,1.2-1.67,1.11-.83,1.8-1.09c.69-.26,1.43-.39,2.22-.39.97,0,1.84.19,2.6.57s1.36.91,1.81,1.6c.44.69.67,1.49.67,2.42,0,1.25-.37,2.29-1.12,3.13-.75.84-1.75,1.42-3.02,1.74Zm-4.28-1.86c.26,0,.53-.17.81-.52.28-.34.55-.83.81-1.44.26-.62.48-1.33.67-2.14.19-.81.32-1.68.39-2.6-.88.09-1.62.36-2.23.79-.61.43-1.07.96-1.39,1.59s-.47,1.28-.47,1.97.13,1.29.41,1.71c.27.42.61.64,1.01.64Z"/>
        <path d="m229.56,181.13c-.09-.09-.14-.2-.14-.32s.04-.22.13-.31c.44-.45.84-.99,1.21-1.62.37-.63.68-1.29.93-1.97-.53-.15-1.05-.27-1.56-.36-.51-.09-.99-.16-1.44-.2-.4.84-.85,1.5-1.34,1.98s-.98.79-1.46.92c-.39.1-.75.12-1.07.05-.32-.07-.58-.22-.78-.46-.2-.23-.29-.54-.29-.92,0-.44.14-.84.42-1.21.28-.37.72-.67,1.32-.89.6-.22,1.38-.34,2.34-.34h.14s.09,0,.14.01c.13-.32.25-.66.36-1.02.11-.36.21-.75.31-1.17.19-.77.16-1.29-.08-1.55s-.72-.35-1.44-.27c-.2.03-.43.06-.7.09-.27.03-.5.06-.67.08-.12,0-.23-.03-.32-.11-.09-.08-.15-.18-.15-.3,0-.12.03-.23.11-.32.08-.09.18-.14.3-.15.17-.02.39-.04.67-.07.28-.03.5-.05.67-.06,1.15-.1,1.91.08,2.28.55.37.47.44,1.24.2,2.32-.17.74-.37,1.41-.62,2.03.46.05.93.12,1.43.21.49.09.99.21,1.48.34.12-.41.21-.81.28-1.21s.1-.77.1-1.11c0-.13.04-.24.13-.32s.19-.13.31-.13.23.04.32.13.13.19.12.31c0,.4-.04.82-.11,1.25-.07.43-.18.88-.31,1.32.34.1.67.21,1.01.33.34.12.66.24.98.37.11.04.19.11.24.23.05.12.05.23,0,.34-.05.11-.13.19-.24.24-.11.05-.23.05-.35,0-.32-.13-.63-.25-.95-.37-.32-.12-.64-.23-.97-.33-.28.77-.62,1.5-1.03,2.2-.41.7-.84,1.29-1.31,1.78-.08.08-.19.13-.31.13-.12,0-.22-.04-.31-.12Zm-3.89-2.7c.34-.09.69-.31,1.05-.67.36-.35.7-.84,1.02-1.46-.76,0-1.36.09-1.82.25-.46.15-.79.35-.99.59-.2.24-.3.5-.3.78,0,.23.1.4.29.49.2.09.44.1.74.03Z"/>
        <path d="m247.09,181.17c-1.02-.15-1.87-.45-2.55-.89-.68-.44-1.19-.99-1.53-1.62-.34-.64-.5-1.31-.5-2.02,0-.93.24-1.78.71-2.54s1.1-1.39,1.86-1.88c-.45.07-.96.15-1.53.25s-1.16.2-1.76.3c-.61.1-1.2.21-1.77.31-.57.1-1.08.2-1.53.28-.12.02-.23,0-.33-.08-.1-.07-.16-.17-.18-.29s0-.23.08-.33c.07-.1.17-.16.29-.17.22-.04.56-.09,1-.17.44-.07.96-.16,1.54-.25.58-.09,1.19-.19,1.83-.3s1.26-.21,1.88-.32,1.18-.2,1.7-.28c.52-.08.94-.15,1.27-.21.12-.02.23,0,.33.07s.16.15.19.27c.02.12,0,.24-.06.34s-.15.17-.27.19c-.64.12-1.23.34-1.76.66s-.99.7-1.38,1.14c-.39.44-.69.92-.9,1.44s-.32,1.04-.32,1.56c0,.71.16,1.32.49,1.83.33.51.78.92,1.35,1.23s1.23.53,1.98.64c.13,0,.23.06.3.16s.1.21.08.34c0,.12-.06.22-.16.29s-.21.1-.34.08Zm1.76-5.66c-.07.07-.17.09-.27.08-.11,0-.19-.06-.26-.14-.12-.16-.28-.35-.48-.59-.2-.23-.38-.42-.54-.56-.07-.06-.1-.15-.11-.24,0-.1.02-.18.08-.26.08-.07.16-.11.27-.11s.19.04.27.11c.1.08.22.19.36.34.14.15.27.3.41.45.14.15.25.28.34.39.08.08.1.18.08.28-.02.1-.06.19-.14.25Zm1.16-1.09c-.08.07-.17.09-.27.08-.11,0-.19-.05-.26-.13-.13-.16-.31-.35-.52-.57-.22-.22-.41-.39-.57-.52-.08-.06-.12-.13-.13-.23,0-.1.02-.18.08-.26.07-.08.15-.13.25-.13s.19.03.27.09c.1.08.23.18.38.32.15.14.3.28.44.43s.26.27.36.37c.07.08.11.17.1.27,0,.11-.05.2-.13.27Z"/>
        <path d="m255.67,181.84c-.11.05-.23.05-.34,0-.12-.05-.2-.13-.25-.24-.05-.11-.05-.23,0-.34.05-.12.13-.2.25-.25.91-.38,1.58-.87,2.03-1.46.45-.59.71-1.24.8-1.95-.36.41-.82.62-1.39.62-.62,0-1.12-.16-1.48-.48s-.54-.78-.54-1.37.19-1.05.56-1.41c.37-.36.87-.54,1.48-.54.33,0,.63.06.92.18-.03-.27-.05-.55-.08-.84-.02-.29-.04-.58-.05-.88-1.04.04-2.06.09-3.09.16-1.02.07-1.97.15-2.83.23-.12,0-.23-.02-.32-.1-.09-.08-.15-.17-.17-.29,0-.12.02-.23.1-.33.07-.1.17-.15.29-.16.86-.08,1.81-.14,2.86-.21s2.1-.12,3.16-.15v-1.85c0-.12.04-.23.13-.32s.19-.13.31-.13c.13,0,.24.04.32.13s.13.19.13.32v1.82c.86-.03,1.68-.05,2.47-.06.79-.01,1.5-.02,2.13,0,.12,0,.22.04.31.13s.12.19.11.31c0,.12-.04.23-.13.32-.09.09-.19.13-.32.12-.64-.02-1.36-.03-2.14-.02-.78,0-1.6.02-2.44.05,0,.42.03.84.05,1.27.02.42.04.83.06,1.21.14.21.25.46.33.75s.12.6.12.96c0,1.04-.29,2-.86,2.86-.57.86-1.41,1.51-2.51,1.95Zm1.11-4.41c.33,0,.59-.11.79-.3.2-.19.3-.46.3-.8,0-.09,0-.19,0-.29s-.01-.21-.02-.31c-.23-.31-.58-.46-1.04-.46-.35,0-.63.1-.86.29s-.34.46-.34.8c0,.35.12.61.32.81.21.19.49.28.85.27Z"/>
        <path d="m267.28,181.81c-.35,0-.68-.09-.97-.26s-.53-.41-.7-.7c-.17-.29-.26-.62-.26-.97s.09-.69.26-.98c.17-.29.41-.52.7-.69s.62-.26.97-.26.68.09.97.26c.29.17.52.41.69.7s.26.62.26.97-.09.68-.26.97c-.17.29-.4.53-.69.7-.29.17-.61.26-.97.26Zm0-.63c.35,0,.66-.13.91-.38s.38-.56.38-.92-.13-.66-.38-.92-.56-.38-.91-.38-.66.13-.92.38-.38.56-.38.92.13.66.38.92.56.38.92.38Z"/>
      </g>
      <circle class="cls-3" cx="17.34" cy="13.38" r="6.5"/>
      <g>
        <rect class="cls-1" x="305.34" y="4.88" width="17" height="17"/>
        <g>
          <line class="cls-1" x1="307.57" y1="7.1" x2="320.11" y2="19.65"/>
          <line class="cls-1" x1="320.11" y1="7.1" x2="307.57" y2="19.65"/>
        </g>
      </g>
    </g>
  </g>
</svg>