<?xml version="1.0" encoding="UTF-8"?>
<svg id="_レイヤー_2" data-name="レイヤー 2" xmlns="http://www.w3.org/2000/svg" width="327.75" height="216.75" viewBox="0 0 327.75 216.75">
  <defs>
    <style>
      .cls-1 {
        fill: none;
        stroke: #e7d3d5;
        stroke-linecap: round;
      }

      .cls-1, .cls-2 {
        stroke-miterlimit: 10;
      }

      .cls-2 {
        fill: #fff;
        stroke: #000;
        stroke-width: .75px;
      }

      .cls-3 {
        fill: #e7d3d5;
      }
    </style>
  </defs>
  <g id="_レイヤー_11" data-name="レイヤー 11">
    <g>
      <path class="cls-2" d="m5.38.38h317c2.76,0,5,2.24,5,5v21H.38V5.38C.38,2.62,2.62.38,5.38.38Z"/>
      <rect class="cls-2" x=".38" y="26.38" width="327" height="190"/>
      <g>
        <path class="cls-2" d="m199.3,91.57v-36.01h79.86v36.01h-79.86Zm39.93-6.76c4.96,0,8.98-5.04,8.98-11.25s-4.02-11.25-8.98-11.25-8.98,5.04-8.98,11.25,4.02,11.25,8.98,11.25Z"/>
        <g>
          <path d="m206.61,64.35c-.23,0-.34-.13-.34-.38v-4.34l-.74.46c-.22.14-.38.12-.5-.08-.13-.2-.08-.36.14-.5l1.04-.64c.14-.09.3-.14.46-.14.18,0,.27.13.27.38v4.85c0,.26-.11.38-.34.38Z"/>
          <path d="m209.11,65.47c-.1.05-.19.07-.26.06-.08-.01-.13-.05-.17-.1-.03-.06-.02-.11.03-.16.05-.05.13-.11.23-.18.14-.08.25-.19.33-.31s.12-.25.12-.39c0-.09-.01-.16-.04-.22-.04.08-.09.14-.17.18-.08.05-.16.07-.24.07-.13,0-.25-.04-.34-.13-.09-.08-.14-.2-.14-.35s.05-.27.16-.35c.11-.08.24-.13.38-.13.23,0,.43.07.59.25.16.18.24.41.24.69,0,.24-.07.45-.2.63s-.31.32-.52.44Z"/>
          <path d="m212.31,64.44c-.61,0-1.03-.24-1.26-.71-.24-.47-.35-1.2-.35-2.18s.12-1.7.35-2.18c.23-.48.66-.72,1.26-.72s1.02.24,1.26.72c.24.48.35,1.2.35,2.18s-.12,1.7-.35,2.18c-.23.47-.65.71-1.26.71Zm0-.66c.22,0,.4-.07.54-.2s.23-.37.3-.69c.06-.33.09-.77.09-1.33s-.03-1.01-.09-1.34c-.06-.33-.16-.56-.3-.69s-.32-.2-.54-.2-.4.07-.54.2-.24.37-.3.69c-.06.33-.1.77-.1,1.34s.03,1,.1,1.33c.06.33.17.56.3.69s.32.2.54.2Z"/>
          <path d="m216.34,64.44c-.61,0-1.03-.24-1.26-.71-.23-.47-.35-1.2-.35-2.18s.12-1.7.35-2.18c.24-.48.66-.72,1.26-.72s1.02.24,1.26.72c.23.48.35,1.2.35,2.18s-.12,1.7-.35,2.18c-.24.47-.65.71-1.26.71Zm0-.66c.22,0,.4-.07.54-.2.14-.14.23-.37.3-.69.06-.33.09-.77.09-1.33s-.03-1.01-.09-1.34c-.06-.33-.16-.56-.3-.69-.14-.14-.32-.2-.54-.2s-.4.07-.54.2-.24.37-.3.69c-.06.33-.1.77-.1,1.34s.03,1,.1,1.33c.06.33.17.56.3.69s.32.2.54.2Z"/>
          <path d="m220.36,64.44c-.61,0-1.03-.24-1.26-.71-.24-.47-.35-1.2-.35-2.18s.12-1.7.35-2.18c.23-.48.66-.72,1.26-.72s1.02.24,1.26.72c.24.48.35,1.2.35,2.18s-.12,1.7-.35,2.18c-.23.47-.65.71-1.26.71Zm0-.66c.22,0,.4-.07.54-.2s.23-.37.3-.69c.06-.33.09-.77.09-1.33s-.03-1.01-.09-1.34c-.06-.33-.16-.56-.3-.69s-.32-.2-.54-.2-.4.07-.54.2-.24.37-.3.69c-.06.33-.1.77-.1,1.34s.03,1,.1,1.33c.06.33.17.56.3.69s.32.2.54.2Z"/>
        </g>
      </g>
      <g>
        <path d="m44.9,111.27c-.15,0-.27-.05-.36-.15-.09-.1-.13-.22-.13-.35s.04-.25.13-.35c.09-.1.21-.14.36-.14h4.32v-1.92h-2.89c-.14,0-.26-.05-.35-.14-.09-.1-.14-.21-.14-.35s.05-.25.14-.35.21-.14.35-.14h6.96c.15,0,.27.05.36.14s.13.21.13.35-.04.25-.13.35c-.09.1-.21.14-.36.14h-2.93v1.92h4.32c.15,0,.27.05.37.14.09.1.14.21.14.35s-.05.25-.14.35c-.09.1-.21.15-.37.15h-9.78Zm7.42-4.61c-.59,0-1.05-.05-1.37-.15-.32-.1-.55-.27-.67-.5-.12-.24-.19-.56-.19-.97v-1.09c0-.16.05-.29.16-.38.1-.1.23-.14.37-.14s.27.05.37.14c.1.1.16.22.16.38v.96c0,.21.03.37.09.47.06.11.18.18.36.22.18.04.45.05.81.05.3,0,.54-.02.7-.05s.29-.11.38-.21.17-.25.25-.44c.06-.14.18-.22.34-.26-.14-.09-.22-.23-.22-.42v-.43c0-.27-.07-.46-.2-.57-.14-.11-.38-.16-.73-.16h-6.2c-.35,0-.59.05-.73.16-.13.11-.2.3-.2.57v.43c0,.16-.05.29-.16.38-.1.09-.23.14-.38.14s-.28-.05-.39-.15c-.11-.1-.16-.23-.16-.39v-.46c0-.61.15-1.04.44-1.28.3-.25.81-.37,1.54-.37h2.56v-1.04c0-.17.06-.3.17-.41.11-.1.25-.16.41-.16s.29.05.4.16c.11.1.16.24.16.41v1.04h2.58c.74,0,1.25.12,1.54.37.29.25.44.68.44,1.28v.46c0,.14-.04.25-.11.34-.08.09-.17.15-.28.18.11.06.18.15.21.26s.02.23-.02.36c-.11.32-.26.57-.44.76-.18.19-.42.32-.73.4-.31.08-.72.12-1.23.12Zm-6.82.38c-.15.06-.3.07-.43.03s-.24-.13-.31-.28c-.06-.14-.06-.27,0-.4.06-.13.16-.22.32-.28.61-.21,1.15-.5,1.64-.87.48-.37.85-.86,1.11-1.46.06-.13.16-.21.3-.25.14-.04.27-.03.4.04.13.07.21.17.25.29.04.12.02.25-.04.39-.31.68-.74,1.24-1.29,1.69-.55.45-1.19.81-1.94,1.09Z"/>
        <path d="m59.96,109.5c-.38.04-.73-.02-1.05-.19-.32-.16-.61-.45-.87-.86-.14-.24-.28-.55-.4-.92-.12-.38-.22-.79-.31-1.25-.08-.46-.14-.92-.17-1.4-.03-.48-.04-.95-.01-1.4.02-.15.08-.28.19-.38.11-.1.24-.15.39-.14s.28.07.38.18c.1.11.14.24.13.4.03.47.06.89.1,1.26.03.37.07.76.13,1.16.05.41.12.78.2,1.13s.18.61.29.79c.22.37.51.54.86.52.21-.02.39-.12.55-.31.16-.19.3-.49.44-.9.05-.14.14-.25.27-.32.13-.07.27-.08.41-.03.14.05.24.14.31.28.07.14.08.27.04.41-.24.66-.52,1.15-.84,1.46-.32.31-.66.48-1.03.52Zm6.35-2.05c-.14.05-.28.04-.42-.03-.14-.07-.23-.17-.29-.32-.2-.5-.48-.97-.83-1.43-.35-.46-.75-.84-1.19-1.13-.13-.09-.2-.21-.21-.37-.01-.16.03-.29.14-.39.11-.13.24-.19.38-.18s.28.06.41.14c.28.19.58.45.89.77.31.32.6.67.87,1.06.27.38.47.77.59,1.16.05.14.04.29-.02.43-.06.14-.17.24-.32.29Z"/>
        <path d="m69.5,110.85c-.13-.09-.21-.2-.23-.35-.03-.14,0-.28.08-.41.34-.53.63-1.11.88-1.76.25-.64.47-1.31.64-2,.18-.69.31-1.36.41-2.01-.25.03-.49.06-.72.08-.23.02-.45.04-.66.05-.15,0-.29-.04-.4-.14-.12-.1-.18-.22-.19-.37,0-.15.04-.28.13-.4.1-.11.22-.17.37-.18.22-.02.47-.03.75-.05.28-.02.56-.04.86-.07.03-.33.05-.64.07-.92.01-.29,0-.55,0-.79,0-.15.04-.28.14-.39.1-.11.23-.17.38-.17.15-.02.28.03.39.13.11.1.17.23.17.38.02.22.02.47,0,.74-.01.27-.03.56-.07.88.26-.04.5-.08.73-.11.23-.04.43-.08.61-.13.14-.04.28-.02.4.07s.2.2.23.35c.03.15,0,.29-.07.41-.08.12-.2.2-.35.23-.22.04-.48.08-.77.13s-.59.09-.91.13c-.1.73-.25,1.49-.45,2.27-.2.79-.43,1.55-.71,2.27-.28.73-.59,1.38-.95,1.94-.08.13-.19.21-.34.24-.15.03-.29,0-.41-.07Zm8.34-.3c-1.14.25-2.12.26-2.96.04s-1.44-.67-1.81-1.34c-.07-.14-.09-.28-.04-.42.04-.14.13-.25.26-.32s.26-.09.41-.05c.14.04.25.13.32.26.19.35.46.6.81.75.35.15.76.22,1.24.21s.99-.07,1.55-.19c.14-.03.28,0,.41.07s.21.2.24.35c.03.14,0,.28-.08.4s-.2.2-.34.23Zm-.58-4.66c-.44-.1-.94-.16-1.51-.17-.56,0-1.09.03-1.57.12-.15.03-.29,0-.41-.08-.12-.08-.2-.2-.23-.35-.03-.14,0-.28.08-.41s.2-.2.35-.23c.57-.09,1.16-.13,1.79-.12.62,0,1.21.07,1.75.18.14.03.26.11.34.25.08.13.1.27.06.41-.03.14-.11.25-.24.33-.13.08-.27.1-.42.07Z"/>
        <path d="m82.69,110.87c-.14.06-.29.07-.43.01-.14-.06-.24-.16-.31-.3-.06-.14-.07-.28-.01-.42.06-.14.16-.25.3-.31,1.35-.59,2.53-1.34,3.53-2.24,1-.9,1.79-1.93,2.35-3.09.14-.3.16-.52.07-.67-.09-.15-.34-.23-.74-.23h-1.74c-.38.51-.82,1.02-1.31,1.52-.49.5-.98.92-1.46,1.25-.13.09-.27.12-.42.1-.15-.02-.27-.1-.36-.23-.08-.13-.11-.27-.08-.42.02-.15.1-.27.23-.36.47-.33.92-.71,1.36-1.14s.82-.88,1.17-1.36c.35-.47.62-.93.82-1.38.06-.14.17-.23.31-.29.14-.06.28-.05.42.01.14.06.23.16.29.31.06.15.05.29-.01.43-.03.08-.07.16-.11.23s-.08.16-.13.25h1.03c.88,0,1.47.21,1.78.64.31.43.27,1.03-.11,1.82-.61,1.25-1.47,2.38-2.58,3.39-1.11,1.01-2.4,1.84-3.85,2.48Zm8.11-7.52c-.09.08-.19.11-.32.1-.12-.01-.22-.06-.29-.15-.24-.29-.5-.56-.78-.82-.08-.07-.12-.16-.13-.27,0-.11.03-.2.11-.28.09-.09.19-.13.29-.13s.21.04.29.11c.12.09.26.21.43.37.16.16.31.3.43.43.09.09.13.19.12.32s-.06.23-.14.32Zm1-1c-.08.08-.18.12-.31.11s-.23-.05-.31-.14c-.12-.14-.25-.27-.39-.41-.14-.14-.28-.26-.41-.37-.08-.06-.13-.15-.14-.26-.02-.11.02-.21.1-.29.08-.09.17-.13.28-.13s.21.03.31.1c.12.08.27.2.44.35s.32.29.45.42c.09.08.13.18.13.31,0,.12-.05.23-.14.32Z"/>
        <path d="m95.79,110.68c-.15.05-.3.04-.43-.04s-.23-.18-.28-.32c-.05-.14-.04-.28.04-.42.07-.14.18-.23.32-.28,1.01-.33,1.89-.79,2.65-1.39.76-.6,1.32-1.28,1.69-2.03.19-.4.23-.7.12-.89-.11-.19-.4-.29-.86-.29h-4.31c-.18-.1-.32-.18-.41-.26s-.14-.17-.14-.28c0-.15.05-.28.16-.38.11-.1.24-.16.39-.16h4.31c.98,0,1.61.25,1.89.76.28.5.23,1.16-.16,1.98-.43.9-1.08,1.69-1.95,2.39-.87.7-1.88,1.23-3.03,1.61Zm-.29-7.84c-.15,0-.28-.05-.39-.16-.11-.1-.16-.23-.16-.38s.05-.28.16-.38c.11-.1.24-.16.39-.16h4.46c.15,0,.28.05.39.16.11.1.16.23.16.38s-.05.28-.16.38c-.11.1-.24.16-.39.16h-4.46Z"/>
        <path d="m105.95,110.25c-.14.06-.28.07-.43.02s-.25-.15-.32-.28c-.06-.14-.07-.28-.02-.43s.14-.25.28-.32c1.17-.56,2.22-1.25,3.15-2.08.93-.83,1.68-1.73,2.24-2.72.35-.62.12-.94-.71-.94h-3.38c-.15,0-.28-.06-.39-.17-.11-.11-.16-.24-.16-.4s.05-.28.16-.39.24-.16.39-.16h3.38c.64,0,1.13.11,1.47.34s.53.53.56.92c.04.39-.09.84-.38,1.34-.11.19-.23.39-.37.58-.13.2-.27.39-.43.59.38.3.78.65,1.19,1.03s.79.75,1.15,1.11c.36.36.65.66.88.91.11.1.17.23.17.38s-.06.28-.17.4c-.11.1-.24.16-.4.16s-.28-.06-.4-.17c-.16-.16-.36-.37-.6-.62-.24-.25-.5-.52-.79-.8s-.58-.57-.87-.85-.57-.53-.83-.76c-.6.66-1.28,1.27-2.03,1.84-.75.57-1.54,1.05-2.35,1.45Z"/>
      </g>
      <g>
        <path d="m199.41,111.26c-.14.06-.29.07-.43.01-.14-.06-.24-.16-.31-.3-.06-.14-.07-.28-.01-.42.06-.14.16-.25.3-.31,1.35-.59,2.53-1.34,3.53-2.24,1-.9,1.79-1.93,2.35-3.09.14-.3.16-.52.07-.67-.09-.15-.34-.23-.74-.23h-1.74c-.38.51-.82,1.02-1.31,1.52-.49.5-.98.92-1.46,1.25-.13.09-.27.12-.42.1-.15-.02-.27-.1-.36-.23-.08-.13-.11-.27-.08-.42.02-.15.1-.27.23-.36.47-.33.92-.71,1.36-1.14s.82-.88,1.17-1.36c.35-.47.62-.93.82-1.38.06-.14.17-.23.31-.29.14-.06.28-.05.42.01.14.06.23.16.29.31.06.15.05.29-.01.43-.03.08-.07.16-.11.23s-.08.16-.13.25h1.03c.88,0,1.47.21,1.78.64.31.43.27,1.03-.11,1.82-.61,1.25-1.47,2.38-2.58,3.39-1.11,1.01-2.4,1.84-3.85,2.48Zm8.11-7.52c-.09.08-.19.11-.32.1-.12-.01-.22-.06-.29-.15-.24-.29-.5-.56-.78-.82-.08-.07-.12-.16-.13-.27,0-.11.03-.2.11-.28.09-.09.19-.13.29-.13s.21.04.29.11c.12.09.26.21.43.37.16.16.31.3.43.43.09.09.13.19.12.32s-.06.23-.14.32Zm1-1c-.08.08-.18.12-.31.11s-.23-.05-.31-.14c-.12-.14-.25-.27-.39-.41-.14-.14-.28-.26-.41-.37-.08-.06-.13-.15-.14-.26-.02-.11.02-.21.1-.29.08-.09.17-.13.28-.13s.21.03.31.1c.12.08.27.2.44.35s.32.29.45.42c.09.08.13.18.13.31,0,.12-.05.23-.14.32Z"/>
        <path d="m212.51,111.06c-.15.05-.3.04-.43-.04s-.23-.18-.28-.32c-.05-.14-.04-.28.04-.42.07-.14.18-.23.32-.28,1.01-.33,1.89-.79,2.65-1.39.76-.6,1.32-1.28,1.69-2.03.19-.4.23-.7.12-.89-.11-.19-.4-.29-.86-.29h-4.31c-.18-.1-.32-.18-.41-.26s-.14-.17-.14-.28c0-.15.05-.28.16-.38.11-.1.24-.16.39-.16h4.31c.98,0,1.61.25,1.89.76.28.5.23,1.16-.16,1.98-.43.9-1.08,1.69-1.95,2.39-.87.7-1.88,1.23-3.03,1.61Zm-.29-7.84c-.15,0-.28-.05-.39-.16-.11-.1-.16-.23-.16-.38s.05-.28.16-.38c.11-.1.24-.16.39-.16h4.46c.15,0,.28.05.39.16.11.1.16.23.16.38s-.05.28-.16.38c-.11.1-.24.16-.39.16h-4.46Z"/>
        <path d="m222.66,110.63c-.14.06-.28.07-.43.02s-.25-.15-.32-.28c-.06-.14-.07-.28-.02-.43s.14-.25.28-.32c1.17-.56,2.22-1.25,3.15-2.08.93-.83,1.68-1.73,2.24-2.72.35-.62.12-.94-.71-.94h-3.38c-.15,0-.28-.06-.39-.17-.11-.11-.16-.24-.16-.4s.05-.28.16-.39.24-.16.39-.16h3.38c.64,0,1.13.11,1.47.34s.53.53.56.92c.04.39-.09.84-.38,1.34-.11.19-.23.39-.37.58-.13.2-.27.39-.43.59.38.3.78.65,1.19,1.03s.79.75,1.15,1.11c.36.36.65.66.88.91.11.1.17.23.17.38s-.06.28-.17.4c-.11.1-.24.16-.4.16s-.28-.06-.4-.17c-.16-.16-.36-.37-.6-.62-.24-.25-.5-.52-.79-.8s-.58-.57-.87-.85-.57-.53-.83-.76c-.6.66-1.28,1.27-2.03,1.84-.75.57-1.54,1.05-2.35,1.45Z"/>
        <path d="m234.18,111.94c-.16,0-.29-.04-.4-.14-.1-.1-.16-.22-.18-.37,0-.14.03-.26.12-.37s.22-.17.4-.19c.22-.02.39-.05.49-.08.1-.03.17-.09.21-.19s.05-.23.05-.4v-4.36h-1.58c-.14,0-.25-.05-.34-.14s-.13-.2-.13-.33.04-.24.13-.33.2-.14.34-.14h2.38c-.19-.17-.4-.34-.62-.52-.22-.18-.43-.35-.64-.51-.2-.16-.38-.3-.53-.4-.1-.07-.15-.17-.16-.29s.03-.22.11-.31c.08-.1.18-.15.31-.16s.24.02.35.09c.1.07.21.16.34.26.13.1.27.21.41.33.14-.13.27-.26.41-.41.14-.14.25-.27.34-.37.1-.11.13-.2.09-.26-.04-.06-.12-.09-.26-.09h-2.29c-.14,0-.25-.04-.33-.13s-.13-.19-.13-.31c0-.13.04-.23.13-.32s.19-.13.33-.13h2.96c.25,0,.45.06.6.19.15.12.24.28.26.47.02.19-.04.38-.19.58-.15.19-.34.41-.55.66s-.43.48-.64.7c.14.12.27.24.4.35.13.11.24.21.35.3.09.07.13.16.13.28h.06c.42,0,.72.11.88.34.16.23.16.53,0,.91-.1.22-.2.45-.31.67-.11.22-.22.46-.33.7-.06.12-.14.2-.25.25s-.24.05-.37,0c-.13-.04-.22-.12-.27-.23-.05-.12-.05-.23,0-.35.05-.07.1-.16.16-.28.06-.11.12-.23.18-.34.06-.12.1-.21.13-.27.14-.3.04-.46-.28-.46h-.58v4.56c0,.58-.13.97-.4,1.19-.27.22-.7.33-1.29.33Zm3.89-.1c-.14.07-.29.09-.43.05-.14-.04-.24-.12-.31-.25-.06-.12-.06-.24-.02-.37s.12-.21.25-.27c.2-.1.43-.23.68-.39.25-.16.5-.32.74-.49s.44-.33.59-.46c.1-.08.23-.12.37-.11.14,0,.25.06.33.17.07.1.1.22.08.34-.02.12-.08.23-.18.32-.18.15-.39.32-.64.51s-.5.37-.76.53-.49.3-.71.41Zm2.16-2.39c-.66,0-1.12-.11-1.39-.34-.27-.22-.4-.61-.4-1.16v-3.12c0-.53.12-.91.37-1.13.25-.23.67-.35,1.26-.37.06-.16.12-.34.18-.53.06-.19.12-.36.16-.5h-2.2c-.14,0-.25-.05-.33-.14-.08-.09-.13-.2-.13-.33s.04-.24.13-.32.19-.13.33-.13h5.51c.14,0,.25.04.33.13s.13.2.13.32-.04.24-.13.33c-.08.09-.19.14-.33.14h-2.21c-.05.15-.1.32-.17.51-.06.19-.13.36-.19.52h.46c.66,0,1.12.11,1.39.34.27.22.4.61.4,1.16v3.12c0,.55-.13.94-.4,1.16-.27.22-.73.34-1.39.34h-1.38Zm-.74-4.33h2.87v-.13c0-.33-.06-.54-.18-.62-.12-.09-.37-.13-.74-.13h-1.02c-.37,0-.61.04-.74.13-.12.09-.19.3-.19.62v.13Zm0,1.7h2.87v-.89h-2.87v.89Zm.92,1.73h1.02c.38,0,.62-.05.74-.14.12-.09.18-.3.18-.62v-.16h-2.87v.16c0,.32.06.53.19.62.12.09.37.14.74.14Zm3,3.3c-.18-.12-.4-.27-.64-.44s-.48-.36-.71-.55c-.23-.19-.43-.37-.59-.53-.08-.09-.12-.19-.12-.32s.04-.23.13-.31c.09-.09.2-.13.32-.14s.24.04.32.13c.15.14.34.29.56.47.22.18.45.34.69.5.24.16.46.29.65.4.12.06.19.15.22.28.02.13,0,.26-.07.38-.08.13-.19.2-.34.22-.14.02-.28,0-.42-.09Z"/>
        <path d="m248.82,111.14c-.15-.02-.27-.08-.37-.2s-.13-.25-.1-.4c.02-.15.08-.27.2-.37.12-.09.25-.13.4-.1.26.03.49.04.7.01.21-.02.4-.11.57-.26.17-.15.32-.4.45-.75s.24-.83.32-1.46c.07-.51.07-.93,0-1.24-.07-.32-.24-.54-.52-.68s-.71-.19-1.28-.16c-.18.65-.41,1.3-.68,1.96-.27.66-.57,1.29-.89,1.89-.33.6-.68,1.15-1.07,1.65-.09.12-.21.19-.36.2-.15.02-.28-.02-.4-.11-.12-.1-.19-.22-.21-.37-.02-.15.02-.28.11-.4.52-.64.98-1.38,1.37-2.21.4-.83.73-1.67.99-2.52-.3.03-.6.06-.91.1-.31.03-.62.07-.94.11-.15,0-.29-.03-.4-.12-.12-.09-.18-.21-.2-.36,0-.15.03-.29.13-.4.09-.12.21-.18.35-.2.38-.04.77-.08,1.15-.11s.75-.06,1.11-.08c.19-.82.31-1.55.35-2.21,0-.15.07-.28.18-.38.11-.1.24-.15.4-.14.14,0,.27.07.37.18.1.11.15.24.14.4-.04.63-.15,1.33-.32,2.09,1.13-.02,1.88.25,2.27.8.38.55.5,1.37.35,2.47-.13.95-.33,1.69-.6,2.2-.27.52-.63.86-1.06,1.03-.44.17-.97.22-1.59.14Zm6.64-3.53c-.13.07-.27.09-.41.04-.15-.04-.26-.13-.33-.26-.14-.27-.32-.55-.53-.84s-.42-.57-.65-.83c-.22-.27-.44-.5-.65-.69-.11-.1-.17-.23-.18-.38,0-.15.04-.28.14-.39.1-.11.23-.17.38-.17.15,0,.28.05.38.15.23.22.48.49.74.8.26.31.51.62.74.94.23.32.42.62.58.9.07.13.09.26.04.41-.04.14-.13.25-.26.32Z"/>
        <path d="m262.19,111.44c-.11-.1-.17-.24-.17-.4,0-.16.05-.29.15-.4.38-.37.73-.83,1.03-1.39.3-.56.53-1.19.7-1.89s.25-1.43.25-2.2c0-.66-.1-1.16-.31-1.48-.2-.32-.54-.48-1-.48-.32,0-.63.15-.94.46-.3.3-.54.73-.7,1.28s-.21,1.2-.14,1.94c.02.14-.02.26-.11.36-.09.1-.21.16-.34.18-.13,0-.25-.03-.36-.11-.11-.08-.18-.19-.19-.32-.06-.38-.09-.82-.1-1.31-.01-.49-.01-.98,0-1.48.01-.5.03-.97.06-1.41.03-.44.06-.8.09-1.09.02-.14.08-.26.2-.35.12-.09.25-.12.39-.11.14,0,.26.07.35.19.09.12.13.25.1.39-.02.2-.05.45-.08.74s-.06.6-.07.9c.23-.42.51-.75.85-.99s.68-.37,1.05-.37c.76,0,1.34.26,1.75.77.4.52.61,1.27.61,2.27,0,.81-.08,1.6-.25,2.36s-.42,1.48-.76,2.14c-.34.66-.75,1.24-1.25,1.75-.1.1-.23.16-.39.17-.16,0-.29-.04-.4-.14Z"/>
        <path d="m271.51,112.02c-.15,0-.28-.05-.38-.14-.1-.1-.16-.23-.16-.4v-6.22c-.19.28-.39.55-.59.8-.2.25-.4.49-.6.7-.1.11-.23.17-.37.18-.14,0-.28-.04-.4-.13-.1-.09-.16-.2-.17-.34-.01-.14.03-.26.14-.37.27-.3.55-.64.84-1.03.29-.39.57-.8.84-1.24.27-.43.52-.86.73-1.28s.39-.81.52-1.16c.06-.16.15-.27.29-.32.14-.05.28-.05.42,0,.14.06.24.15.3.27.06.12.05.26-.01.41-.1.28-.23.57-.38.87s-.31.6-.47.91v7.93c0,.17-.05.3-.16.4-.1.1-.23.14-.38.14Zm6.05-.71c-.58-.54-1.11-1.28-1.58-2.22-.47-.94-.82-2.14-1.05-3.61l-1.98.19c-.15,0-.28-.03-.4-.12-.11-.09-.18-.21-.19-.36-.02-.14.02-.27.11-.38s.21-.18.37-.19l1.94-.18c-.1-.88-.14-1.85-.14-2.9,0-.17.05-.3.16-.4.1-.1.23-.15.38-.15.16,0,.29.05.4.14.11.1.16.24.16.42,0,.51,0,1,.02,1.46s.06.9.1,1.33l3.28-.32c.16-.02.29.02.4.11.11.09.17.21.19.37.02.15-.02.28-.11.39-.09.11-.21.17-.37.19l-3.25.31c.21,1.3.52,2.37.93,3.2s.87,1.46,1.36,1.9c.29.26.5.2.62-.16.06-.15.11-.31.16-.47.05-.16.1-.32.14-.47.05-.18.14-.3.28-.36.14-.06.27-.07.41-.02.15.05.26.13.33.25.07.12.08.26.03.42-.05.18-.11.39-.19.62-.08.23-.15.44-.21.62-.21.59-.53.92-.95.98-.43.06-.88-.13-1.35-.57Zm1.36-7.84c-.1.1-.22.15-.36.15-.14,0-.27-.06-.38-.16-.1-.1-.23-.23-.38-.37-.15-.14-.3-.28-.46-.42-.15-.14-.28-.25-.4-.34-.1-.09-.16-.2-.16-.33,0-.13.04-.25.13-.35.1-.11.21-.17.35-.18.14,0,.27.03.38.12.11.09.25.2.42.35s.33.29.5.43c.16.14.29.26.39.36.11.1.16.23.16.37s-.07.27-.18.38Z"/>
      </g>
      <path class="cls-2" d="m94.95,51.08c.36,2.15.56,4.4.56,6.73,0,14.09-7.04,25.52-15.71,25.52s-15.71-11.42-15.71-25.52c0-2.33.2-4.59.56-6.73h30.31Zm-15.16,32.25v13.11m6.46,0h-12.93"/>
      <g>
        <path d="m139.81,68.81l7.72,5.7-7.72,5.72v-11.42Z"/>
        <path d="m150.4,68.81l7.72,5.7-7.72,5.72v-11.42Z"/>
        <path d="m161,68.81l7.72,5.7-7.72,5.72v-11.42Z"/>
      </g>
      <g>
        <path d="m39.71,19.85c-.14-.01-.26-.07-.36-.17-.1-.1-.15-.22-.15-.36.01-.15.07-.27.17-.37.1-.1.22-.14.36-.14,1.17.04,2.08-.12,2.72-.49.64-.37.96-.92.96-1.67s-.3-1.26-.9-1.63c-.6-.37-1.41-.56-2.45-.56-.49,0-.96.03-1.42.08-.45.05-.88.12-1.29.21v2.3c0,.95-.19,1.65-.57,2.1s-.98.67-1.82.67c-.65,0-1.19-.18-1.62-.54-.43-.36-.64-.87-.64-1.54,0-.83.33-1.56,1-2.2.67-.63,1.54-1.13,2.63-1.48v-3.25c-.54.04-1.08.08-1.59.1-.52.03-.99.04-1.43.06-.14.01-.26-.03-.36-.14s-.15-.22-.15-.36c0-.15.05-.27.15-.37.1-.1.22-.14.36-.14.44-.01.91-.03,1.43-.06.52-.03,1.05-.06,1.59-.1v-2.59c0-.15.05-.27.15-.37s.22-.14.36-.14.26.05.35.14c.1.1.14.22.14.37v2.51c.37-.04.73-.08,1.08-.13s.67-.08.98-.13c.15-.02.28,0,.39.08.11.07.17.19.18.34.02.14,0,.26-.09.37s-.19.17-.34.19c-.31.04-.65.09-1.03.14-.38.05-.77.09-1.18.14v3.07c.43-.09.87-.15,1.32-.2.45-.05.92-.07,1.4-.07,1.39,0,2.46.29,3.22.86.76.57,1.14,1.33,1.14,2.28,0,1.07-.42,1.88-1.25,2.44-.83.56-2,.81-3.49.76Zm-4.74-1.02c.47,0,.82-.12,1.04-.38.22-.25.34-.72.34-1.4v-2c-.82.3-1.46.69-1.92,1.16-.46.47-.69.98-.69,1.51,0,.32.1.58.31.79.21.21.51.31.92.31Zm9.07-6.62c-.19-.15-.45-.33-.78-.53-.33-.2-.66-.4-.99-.6-.34-.2-.63-.35-.89-.47-.12-.05-.21-.15-.26-.28-.06-.13-.06-.26,0-.39.06-.13.16-.21.3-.26.13-.04.26-.04.39.02.28.13.6.3.97.51.37.21.72.43,1.06.64.34.21.61.39.8.54.12.08.18.2.2.34.02.14-.02.27-.1.38-.07.11-.18.17-.32.18-.14.02-.27-.01-.38-.09Z"/>
        <path d="m47.87,15.07c-.12-.02-.21-.08-.29-.18s-.1-.22-.08-.34c.09-.36.17-.82.26-1.38.09-.55.17-1.12.24-1.7.07-.58.11-1.09.12-1.53.01-.13.06-.23.16-.31.1-.08.21-.11.34-.1.12,0,.22.04.3.13s.12.2.11.34c-.01.32-.04.69-.08,1.1s-.09.85-.14,1.3c-.05.45-.11.87-.18,1.27-.06.4-.13.74-.19,1.03-.03.14-.1.24-.22.3-.11.06-.23.09-.36.08Zm-.18,5.49c-.09-.09-.13-.2-.13-.34s.04-.26.13-.35c.53-.53.98-1.14,1.34-1.81s.63-1.47.81-2.38.27-2,.27-3.25v-5.86c0-.15.04-.27.14-.35s.2-.13.33-.13c.14,0,.25.04.34.13s.14.2.14.35v5.86c0,1.34-.1,2.52-.3,3.53-.2,1.01-.5,1.88-.88,2.62-.38.74-.86,1.39-1.42,1.96-.11.1-.23.15-.38.15-.14,0-.27-.04-.38-.14Zm8.99.3c-.14,0-.25-.04-.34-.14s-.14-.21-.14-.34v-4.74h-.94c-.52,0-.87.08-1.04.22-.17.15-.26.44-.26.86v2.37c0,.14-.05.25-.14.34-.1.09-.21.14-.34.14-.14,0-.25-.05-.34-.14-.09-.09-.14-.21-.14-.34v-2.37c0-.51.07-.91.2-1.2s.36-.49.69-.61c.33-.12.78-.18,1.37-.18h.94v-1.47h-2.11c-.49,0-.82.07-.99.22-.17.14-.26.42-.26.84v.46c0,.14-.05.25-.14.34s-.21.14-.35.14-.25-.04-.34-.14-.14-.21-.14-.34v-.5c0-.73.16-1.22.47-1.5.31-.27.9-.41,1.75-.41h5.34c.85,0,1.44.14,1.76.41.32.27.48.77.48,1.5v.45c0,.14-.05.25-.14.34s-.21.14-.35.14-.26-.04-.35-.14-.14-.21-.14-.34v-.42c0-.42-.08-.7-.25-.84-.17-.14-.5-.22-1-.22h-2.26v1.47h.99c.59,0,1.04.06,1.37.18s.55.32.69.61c.13.29.2.69.2,1.2v.88c0,.68-.14,1.17-.43,1.45-.29.28-.81.43-1.57.46-.14.01-.25-.03-.34-.11-.09-.08-.14-.2-.15-.34-.01-.13.03-.24.12-.34.09-.1.21-.16.34-.17.46-.02.75-.09.88-.21s.19-.37.19-.77v-.85c0-.43-.08-.71-.26-.86-.17-.15-.52-.22-1.04-.22h-.99v4.74c0,.14-.05.25-.14.34s-.21.14-.35.14Zm-3.46-9.38c-.11,0-.2-.04-.29-.14-.09-.09-.13-.19-.13-.3,0-.12.04-.22.13-.3.08-.09.18-.13.29-.13h4.75c.57,0,.94-.07,1.12-.2.18-.13.27-.43.27-.89v-.02h-5.94c-.11,0-.2-.04-.28-.14s-.12-.19-.12-.3c0-.12.04-.22.12-.3.08-.08.17-.12.28-.12h5.94v-.02c0-.46-.09-.75-.27-.88-.18-.13-.55-.19-1.12-.19h-4.75c-.11,0-.2-.05-.29-.14-.09-.09-.13-.19-.13-.31s.04-.22.13-.3.18-.13.29-.13h4.75c.63,0,1.12.06,1.46.17.35.11.59.31.73.59.14.28.21.68.21,1.19v.88c0,.5-.07.9-.21,1.18s-.38.49-.73.6c-.35.11-.83.17-1.46.17h-4.75Z"/>
        <path d="m70.31,20c-.11-.1-.16-.22-.17-.36,0-.14.04-.26.15-.36.57-.57,1.05-1.24,1.46-2.02.41-.78.72-1.65.94-2.59.22-.94.34-1.93.34-2.95s-.17-1.71-.5-2.18c-.33-.47-.82-.7-1.47-.7-.38,0-.75.14-1.1.41-.35.27-.65.65-.91,1.13-.26.48-.45,1.03-.56,1.66-.11.62-.13,1.29-.06,2.01.02.13-.01.24-.1.34-.09.1-.2.16-.33.17-.13.01-.24-.02-.34-.1-.1-.07-.16-.18-.18-.32-.06-.53-.11-1.13-.13-1.78s-.02-1.3,0-1.96c.02-.66.04-1.27.09-1.86.04-.58.08-1.07.13-1.46.02-.14.08-.25.18-.34.1-.08.22-.12.36-.1.14.01.25.07.34.18.08.11.12.23.1.37-.04.37-.09.84-.14,1.4-.05.56-.08,1.13-.1,1.72.29-.76.68-1.36,1.18-1.81.5-.45,1.04-.67,1.62-.67.95,0,1.68.33,2.19.99.51.66.77,1.63.77,2.9,0,1.08-.12,2.12-.35,3.14s-.58,1.96-1.02,2.83c-.45.88-.99,1.64-1.63,2.3-.1.11-.22.16-.36.17-.14,0-.27-.04-.38-.15Z"/>
        <path d="m87.98,19.1c-.14.03-.27.01-.39-.06-.12-.07-.2-.17-.23-.31-.04-.15-.03-.28.05-.4.07-.12.18-.2.32-.24,1.24-.31,2.21-.85,2.91-1.62.7-.77,1.06-1.75,1.06-2.94,0-.81-.19-1.53-.57-2.16-.38-.63-.91-1.13-1.59-1.5-.68-.37-1.48-.58-2.4-.61-.11,1.3-.29,2.49-.55,3.56-.26,1.07-.58,2-.94,2.77-.37.77-.77,1.37-1.21,1.79-.44.42-.89.63-1.34.63-.51,0-.96-.16-1.36-.48-.4-.32-.7-.76-.93-1.33-.22-.57-.34-1.21-.34-1.92,0-.86.17-1.66.5-2.39.33-.73.79-1.37,1.38-1.9.59-.54,1.27-.95,2.06-1.25.78-.29,1.63-.44,2.54-.44,1.11,0,2.1.22,2.97.65.87.43,1.56,1.04,2.06,1.82s.76,1.7.76,2.76c0,1.43-.43,2.62-1.28,3.58-.85.96-2.01,1.62-3.46,1.99Zm-4.9-2.13c.3,0,.61-.2.93-.59.32-.39.63-.94.92-1.65.29-.7.55-1.52.76-2.45.21-.93.36-1.92.45-2.98-1,.11-1.85.41-2.55.9-.7.5-1.23,1.1-1.58,1.82-.36.71-.54,1.47-.54,2.26s.16,1.48.46,1.96c.31.49.69.73,1.15.73Z"/>
        <path d="m96.2,20.96c-.13,0-.24-.04-.33-.13-.09-.08-.14-.2-.14-.34v-12.02c0-.48.05-.85.16-1.1.11-.26.31-.43.6-.54.29-.1.71-.15,1.26-.15.96,0,1.57.19,1.83.57.26.38.24.88-.07,1.51-.14.29-.3.61-.48.97s-.34.67-.48.94c-.19.37-.29.65-.28.82,0,.18.12.38.34.62.38.41.69.85.91,1.33.22.48.34,1,.34,1.57,0,.78-.21,1.38-.62,1.82-.42.43-1.08.66-2,.68-.14.01-.26-.03-.35-.11-.1-.08-.15-.2-.16-.34-.01-.15.03-.27.11-.36.08-.09.2-.14.35-.15.63-.02,1.07-.16,1.34-.42.26-.26.39-.68.39-1.26,0-.44-.1-.85-.29-1.25-.19-.39-.44-.76-.75-1.09-.22-.26-.38-.48-.46-.66-.08-.19-.1-.39-.05-.61s.16-.5.32-.84c.07-.16.17-.36.27-.58.11-.23.22-.46.33-.7.11-.23.2-.43.26-.58.18-.34.22-.59.13-.74-.1-.15-.42-.23-.96-.23-.46,0-.75.06-.87.17-.12.11-.18.36-.18.74v12c0,.14-.04.25-.14.34-.09.09-.2.13-.33.13Zm4.22-7.42c-.11.08-.23.11-.36.1-.13,0-.24-.06-.31-.17-.07-.11-.1-.22-.08-.34.02-.12.09-.22.21-.3.28-.16.54-.33.8-.51.26-.18.5-.37.74-.56-.16-.15-.34-.31-.53-.47-.19-.17-.36-.31-.51-.44-.08-.06-.13-.15-.14-.26s.02-.2.1-.27c.08-.08.17-.13.28-.14s.21.02.3.1c.15.13.33.28.53.46.2.18.39.35.56.51.28-.28.53-.56.75-.85-.17-.15-.36-.3-.57-.46-.21-.15-.4-.29-.57-.41-.09-.06-.14-.15-.15-.26-.02-.11,0-.2.07-.27.06-.09.15-.14.26-.16.11-.02.21,0,.3.06.15.11.33.24.54.4s.4.31.57.46c.08-.13.17-.26.24-.4.07-.14.15-.28.22-.42.15-.29.18-.49.1-.62-.08-.12-.31-.18-.68-.18h-1.1c-.63.9-1.34,1.69-2.14,2.38-.11.07-.22.12-.35.13s-.24-.04-.32-.14c-.07-.08-.11-.19-.1-.31,0-.12.06-.22.15-.3.57-.45,1.1-1,1.6-1.66.5-.66.91-1.31,1.22-1.94.05-.12.14-.2.27-.24.13-.04.25-.03.37.03.12.05.19.14.22.26.03.12.02.24-.03.35-.05.11-.11.21-.18.32-.06.11-.13.22-.19.34h.8c.69,0,1.14.17,1.34.5.2.33.18.76-.08,1.3-.46.92-1.04,1.73-1.74,2.45-.7.71-1.5,1.36-2.38,1.92Zm-.14,6.29c-.12.09-.25.13-.38.14-.14,0-.26-.06-.37-.18-.09-.11-.12-.22-.1-.35.02-.13.09-.23.21-.32.22-.16.48-.37.77-.62.29-.25.57-.51.84-.79.27-.28.5-.53.7-.77.08-.11.19-.17.33-.18.13-.02.25.02.34.1s.15.19.17.32c.02.13-.02.25-.1.35-.31.37-.68.78-1.12,1.21s-.86.8-1.28,1.1Zm2.69,1.01c-.14,0-.26-.04-.36-.13-.1-.08-.16-.2-.17-.35-.01-.13.03-.24.13-.34.1-.1.22-.15.38-.15.53-.02.88-.1,1.05-.23.17-.13.25-.41.25-.84v-2.93h-3.52c-.13,0-.24-.04-.33-.14s-.14-.2-.14-.33.04-.24.14-.33.2-.14.33-.14h8.14c.13,0,.24.04.33.14s.14.2.14.33-.04.24-.14.33-.2.14-.33.14h-3.65v3.01c0,.71-.17,1.22-.51,1.52-.34.3-.92.45-1.74.45Zm-.34-7.52c-.12,0-.22-.04-.31-.13s-.14-.19-.14-.32c0-.12.04-.22.14-.31s.19-.14.31-.14h4.21c.12,0,.22.04.31.14s.14.19.14.31c0,.13-.04.24-.14.32s-.19.13-.31.13h-4.21Zm6.74.16c-.7-.49-1.37-1.04-1.98-1.66-.62-.61-1.16-1.32-1.62-2.13-.46-.81-.82-1.75-1.06-2.82-.02-.14,0-.26.07-.37.07-.11.16-.17.28-.19.13-.02.24,0,.34.06.1.06.17.16.2.3.14.63.33,1.21.57,1.75.24.54.52,1.04.84,1.51.16-.18.34-.38.53-.6s.37-.43.54-.63c.15-.19.21-.35.17-.46s-.19-.18-.46-.18h-1.25c-.11,0-.2-.04-.27-.12-.08-.08-.11-.17-.11-.28s.04-.2.11-.28c.07-.08.17-.12.27-.12h1.38c.49,0,.85.09,1.08.28s.33.43.3.72c-.03.29-.18.6-.46.92-.22.26-.45.51-.66.75-.22.25-.44.47-.65.67.36.42.75.8,1.18,1.14.42.35.86.66,1.32.94.12.07.19.18.21.31.02.13-.01.26-.1.38-.08.12-.19.19-.34.21-.15.02-.3-.01-.42-.1Zm-.4,6.38c-.4-.29-.82-.66-1.26-1.1-.45-.45-.83-.87-1.14-1.26-.08-.1-.1-.21-.09-.34.02-.13.08-.23.18-.3.1-.07.21-.11.34-.1.13,0,.24.06.31.17.19.24.42.49.69.77.27.28.54.54.83.8.29.26.55.47.78.64.11.08.17.18.18.31.02.13-.02.25-.1.36-.1.11-.21.17-.35.18s-.27-.02-.38-.12Z"/>
      </g>
      <g>
        <path d="m13.09,155.68c-.12,0-.22-.04-.29-.12-.07-.08-.11-.17-.11-.29,0-.12.04-.22.11-.3.08-.08.17-.12.29-.12h5.28v-2.66h-3.71c-.12,0-.22-.04-.29-.13-.08-.08-.11-.18-.11-.29s.04-.21.11-.29c.07-.08.17-.12.29-.12h8.34c.12,0,.22.04.29.12.08.08.11.18.11.29s-.04.21-.11.29c-.07.08-.17.13-.29.13h-3.71v2.66h5.26c.13,0,.23.04.31.12.07.08.11.18.11.3,0,.11-.04.21-.11.29-.08.08-.18.12-.31.12h-11.47Zm.57-4.94c-.12.05-.24.05-.36.01-.12-.04-.2-.12-.26-.24-.05-.1-.04-.21,0-.33.05-.12.14-.19.27-.23.77-.24,1.45-.6,2.04-1.08.6-.48,1.06-1.12,1.4-1.91.05-.1.12-.17.23-.22s.22-.04.34.02c.1.05.17.12.21.22.04.1.03.21-.01.32-.37.87-.88,1.57-1.53,2.11-.64.54-1.43.98-2.35,1.32Zm-.18-2.58c-.12,0-.23-.04-.32-.13s-.13-.19-.13-.32v-.66c0-.63.16-1.09.47-1.37.31-.27.86-.41,1.65-.41h3.21v-1.47c0-.13.05-.24.14-.32.09-.08.2-.13.32-.13.13,0,.24.04.33.13s.13.19.13.32v1.47h3.23c.78,0,1.33.14,1.64.41.31.28.47.73.47,1.37v.66c0,.13-.04.24-.13.32s-.19.13-.31.13-.23-.04-.32-.12-.13-.18-.13-.32v-.66c0-.35-.09-.6-.27-.75-.18-.15-.5-.22-.98-.22h-7.32c-.49,0-.81.07-.99.22-.17.14-.26.39-.26.75v.66c0,.13-.04.24-.13.32-.09.08-.19.12-.31.12Zm8.26,2.16c-.65,0-1.15-.05-1.5-.15s-.58-.27-.71-.53-.2-.6-.2-1.04v-1.57c0-.13.04-.24.12-.32.08-.08.18-.12.3-.12.13,0,.24.04.32.12.08.08.12.18.12.32v1.5c0,.27.04.47.12.61.08.14.23.23.46.27.23.05.57.07,1.03.07.4,0,.71-.03.92-.08.21-.05.38-.15.5-.3.12-.15.22-.36.31-.64.05-.1.13-.18.24-.22s.22-.05.34,0c.12.04.2.11.25.21s.04.21,0,.34c-.13.4-.29.71-.49.93-.2.22-.46.37-.79.46-.33.09-.78.13-1.34.13Z"/>
        <path d="m30.54,153.61c-.38.02-.75-.07-1.09-.26-.35-.19-.64-.49-.88-.89-.23-.38-.43-.89-.6-1.53s-.29-1.33-.37-2.07c-.08-.75-.1-1.47-.05-2.18,0-.12.06-.22.15-.31.09-.08.19-.12.31-.11.13,0,.24.06.32.15.08.09.11.2.1.32-.04.68-.03,1.36.03,2.04s.16,1.29.31,1.86c.15.56.33,1.02.55,1.37.15.23.32.41.52.54s.41.18.63.17c.58,0,1.04-.54,1.39-1.58.04-.12.11-.21.22-.27.11-.06.22-.07.34-.03s.21.11.27.22c.06.11.06.22.01.34-.26.77-.58,1.32-.96,1.66-.38.34-.77.53-1.18.55Zm7.59-2.46c-.12.04-.24.03-.34-.02-.11-.05-.18-.13-.23-.25-.23-.6-.57-1.18-1.01-1.74-.44-.56-.93-1.01-1.45-1.36-.09-.07-.15-.16-.17-.29s0-.24.08-.33c.08-.1.18-.16.3-.16.12,0,.23.03.34.1.35.22.71.53,1.08.9.36.38.7.79,1,1.23.3.44.53.88.68,1.32.05.12.04.24-.01.34-.06.11-.15.18-.27.23Z"/>
        <path d="m41.86,155.16c-.09-.07-.15-.16-.18-.28-.03-.12,0-.23.06-.34.41-.64.77-1.37,1.08-2.16.31-.8.57-1.62.78-2.47.21-.85.38-1.67.49-2.46-.34.04-.66.07-.98.1s-.62.05-.91.07c-.12,0-.23-.03-.32-.11-.09-.08-.14-.19-.15-.31,0-.12.03-.23.11-.32.08-.09.19-.14.31-.14.3-.02.62-.04.97-.07.35-.03.71-.06,1.08-.1.05-.43.08-.83.1-1.2.02-.37.02-.71,0-1.02,0-.12.03-.23.11-.32.08-.09.19-.14.31-.15.13,0,.24.04.32.12s.13.18.14.31c.02.29.02.62,0,.98-.02.36-.05.75-.1,1.16.7-.08,1.31-.19,1.83-.32.12-.03.23,0,.34.06.1.07.17.17.2.29.03.12,0,.23-.06.34-.07.1-.16.16-.29.18-.32.07-.66.13-1.02.18-.36.06-.73.11-1.11.15-.12.85-.3,1.74-.53,2.67s-.51,1.83-.83,2.7c-.33.87-.71,1.64-1.13,2.31-.07.1-.16.17-.28.2s-.23,0-.34-.06Zm9.73-.32c-1.3.27-2.42.29-3.37.07-.95-.22-1.64-.73-2.07-1.51-.06-.1-.07-.21-.04-.34.03-.12.1-.21.22-.27.1-.06.21-.07.33-.04.12.03.21.11.27.22.25.45.6.77,1.04.95.44.19.96.28,1.55.27.59,0,1.22-.08,1.89-.22.12-.02.23,0,.33.06s.16.16.19.29c.03.12,0,.23-.06.34s-.16.16-.28.18Zm-.59-5.52c-.57-.13-1.18-.2-1.83-.22-.65-.01-1.29.04-1.9.16-.12.02-.23,0-.33-.07-.1-.07-.16-.16-.19-.28-.02-.13,0-.25.07-.34.07-.1.16-.16.28-.18.66-.12,1.36-.17,2.09-.16.73.01,1.41.09,2.02.22.12.03.21.1.27.2s.08.22.05.34-.09.21-.2.27c-.1.06-.21.08-.34.05Z"/>
        <path d="m57.19,155.22c-.12.05-.24.05-.36,0-.12-.04-.2-.12-.25-.25-.05-.11-.05-.23,0-.34.05-.12.13-.2.24-.25,1.62-.71,3.02-1.6,4.2-2.66,1.18-1.06,2.11-2.29,2.8-3.67.23-.46.28-.81.13-1.06s-.5-.38-1.05-.38h-2.14c-.46.62-.98,1.22-1.55,1.81-.58.59-1.16,1.09-1.75,1.5-.1.07-.21.09-.34.06s-.22-.08-.29-.17c-.07-.1-.09-.22-.07-.34.02-.13.08-.22.18-.29.56-.39,1.1-.85,1.62-1.37.52-.52.99-1.07,1.41-1.65s.75-1.13.99-1.66c.05-.12.13-.2.24-.25.12-.04.24-.04.36,0,.11.06.19.14.23.26.04.12.04.23,0,.34-.13.27-.28.56-.45.85h1.55c.95,0,1.58.25,1.9.74.31.5.26,1.16-.16,1.99-.73,1.44-1.72,2.74-2.99,3.89-1.26,1.16-2.75,2.11-4.46,2.86Zm9.42-8.54c-.08.07-.17.09-.27.08-.11,0-.19-.06-.26-.14-.12-.16-.29-.35-.5-.57s-.4-.4-.56-.53c-.07-.07-.1-.15-.11-.25,0-.1.02-.18.08-.26.07-.07.16-.11.25-.12.09,0,.18.03.27.11.1.07.23.18.37.32.14.14.29.29.43.43s.26.28.34.39c.07.08.11.16.09.27-.01.1-.06.19-.13.27Zm1.13-1.12c-.07.07-.16.1-.27.09-.1,0-.19-.04-.27-.12-.13-.16-.31-.34-.54-.55-.23-.21-.42-.38-.58-.5-.08-.06-.12-.14-.13-.24-.01-.09.01-.18.08-.27.07-.07.15-.12.25-.13.1,0,.19.02.27.08.1.08.23.18.38.31s.31.27.46.41c.15.14.28.26.37.36.07.08.11.17.1.27,0,.11-.05.2-.13.27Z"/>
        <path d="m72.41,154.94c-.12.04-.24.03-.34-.02-.11-.05-.18-.14-.23-.26-.04-.12-.03-.24.03-.35.06-.11.14-.19.27-.22,1.2-.41,2.27-.97,3.19-1.69s1.61-1.52,2.04-2.43c.53-1.12.19-1.68-1.04-1.68h-5.12c-.12,0-.23-.04-.31-.13s-.13-.19-.13-.32.04-.22.13-.31c.09-.08.19-.13.31-.13h5.12c1.03,0,1.7.27,2.01.81.31.54.25,1.26-.17,2.14-.33.67-.77,1.3-1.34,1.89s-1.22,1.11-1.97,1.56c-.75.45-1.56.83-2.45,1.13Zm-.29-9.21c-.12,0-.23-.04-.31-.13-.09-.08-.13-.19-.13-.31,0-.13.04-.24.13-.32.09-.08.19-.13.31-.13h5.28c.13,0,.24.04.33.13.09.08.13.19.13.32,0,.12-.04.22-.13.31-.09.08-.2.13-.33.13h-5.28Z"/>
        <path d="m84.17,154.46c-.11.06-.23.06-.34.02-.12-.04-.2-.12-.26-.23s-.06-.23-.02-.34c.04-.12.12-.2.23-.26.92-.45,1.79-.97,2.61-1.57.82-.6,1.55-1.26,2.21-1.97.66-.71,1.21-1.46,1.64-2.23.25-.44.29-.78.12-1.04s-.55-.38-1.13-.38h-4c-.12,0-.23-.04-.32-.13-.09-.09-.14-.19-.14-.32,0-.13.05-.24.14-.32.09-.08.2-.13.32-.13h4c.68,0,1.2.12,1.57.36.36.24.56.57.6.99.04.42-.09.88-.39,1.41-.3.53-.65,1.05-1.05,1.54.35.27.7.57,1.07.9.37.33.73.67,1.09,1.01.36.35.69.67,1,.98.31.31.57.58.78.81.09.09.14.2.14.33s-.05.23-.14.32c-.09.08-.2.13-.32.13s-.23-.05-.32-.14c-.21-.21-.47-.48-.78-.79-.3-.31-.63-.64-.99-.99-.35-.35-.71-.69-1.06-1.02s-.7-.63-1.02-.89c-.71.78-1.51,1.52-2.42,2.21-.9.69-1.85,1.27-2.83,1.75Z"/>
        <path d="m105.9,155.36c-1.2.16-2.21.22-3.02.2-.81-.03-1.46-.14-1.95-.32-.49-.19-.84-.44-1.05-.75-.21-.31-.31-.67-.31-1.06,0-.68.3-1.31.9-1.89.6-.58,1.44-1.08,2.52-1.51-.28-.47-.67-.75-1.18-.84-.49-.1-.98-.04-1.46.2s-.95.59-1.42,1.08c-.09.09-.21.14-.34.15-.14,0-.24-.03-.32-.13-.08-.09-.12-.2-.12-.33,0-.13.05-.23.15-.3.55-.46,1.04-.98,1.46-1.57s.77-1.2,1.04-1.82c-.5,0-.98.02-1.44.02-.47,0-.88,0-1.23,0-.12,0-.23-.06-.32-.14s-.13-.19-.12-.31c0-.13.05-.24.14-.32.09-.08.2-.11.32-.1.4.02.86.03,1.38.03s1.05,0,1.59-.03c.08-.25.15-.5.21-.74.06-.24.1-.48.14-.71.02-.12.07-.22.16-.3.09-.08.19-.11.31-.09.12,0,.22.06.29.16.08.1.1.21.08.33-.06.43-.15.87-.29,1.33.47-.02.92-.05,1.35-.08.43-.04.83-.08,1.18-.11.12-.02.23,0,.33.08.1.08.15.17.16.29.02.12,0,.23-.08.32-.08.09-.18.15-.31.17-.4.04-.86.07-1.37.11-.51.03-1.03.06-1.56.08-.31.75-.7,1.46-1.19,2.14.27-.1.53-.17.79-.19s.5-.02.73.02c.36.05.69.18.99.39.31.21.57.52.78.92.5-.16,1.04-.3,1.62-.43s1.19-.24,1.85-.34c.13-.02.25,0,.34.08.1.07.15.17.16.29.02.12,0,.23-.08.32-.08.09-.17.15-.29.17-.62.08-1.21.18-1.76.3-.55.12-1.06.24-1.53.38.19.59.28,1.29.28,2.11,0,.12-.04.23-.13.31s-.19.13-.31.13-.23-.04-.32-.13-.13-.19-.13-.31c0-.36-.02-.68-.06-.99-.04-.3-.09-.59-.17-.85-.95.36-1.67.77-2.15,1.23s-.72.93-.72,1.41c0,.34.17.62.52.85.35.23.92.37,1.7.42.78.05,1.83-.01,3.12-.19.12-.02.23,0,.33.08.1.07.15.17.16.29.02.12,0,.23-.08.32-.08.09-.17.15-.29.17Z"/>
        <path d="m113.92,155.61c-.69,0-1.23-.06-1.63-.19s-.68-.35-.85-.69c-.17-.33-.25-.8-.25-1.42v-2.34c0-.13.04-.24.13-.33.09-.09.19-.13.32-.13.13,0,.24.04.33.13s.13.2.13.33v2.3c0,.43.05.75.16.96.11.21.3.35.57.41.27.07.64.1,1.12.1h2.42v-5.22h-1.96c-.7,0-1.25-.06-1.64-.19-.4-.13-.68-.35-.85-.68-.17-.33-.25-.8-.25-1.43v-2.24c0-.13.04-.24.13-.33s.2-.13.33-.13.24.04.32.13c.08.09.13.2.13.33v2.21c0,.43.05.75.16.95.11.21.3.34.57.41.27.07.64.1,1.12.1h1.95v-4.77c0-.13.05-.24.14-.33.09-.09.2-.13.32-.13.13,0,.24.04.32.13s.13.2.13.33v4.77h1.92c.49,0,.86-.03,1.13-.1s.45-.2.56-.41c.11-.21.16-.52.16-.95v-2.21c0-.13.05-.24.14-.33.09-.09.2-.13.32-.13.13,0,.24.04.32.13.08.09.13.2.13.33v2.24c0,.63-.08,1.1-.25,1.43-.17.33-.45.55-.85.68s-.94.19-1.63.19h-1.95v5.22h2.41c.49,0,.86-.03,1.13-.1.27-.06.45-.2.56-.41s.16-.53.16-.96v-2.3c0-.13.04-.24.13-.33.09-.09.19-.13.32-.13.13,0,.24.04.33.13.09.09.13.2.13.33v2.34c0,.62-.08,1.09-.25,1.42-.16.33-.44.56-.84.69s-.95.19-1.65.19h-5.8Z"/>
        <path d="m136.42,155.89c-1.41-.92-2.57-1.98-3.49-3.16-.92-1.18-1.56-2.57-1.92-4.16-.3,1.06-.73,2.04-1.29,2.95-.56.92-1.23,1.74-1.99,2.47-.76.73-1.59,1.36-2.5,1.88-.12.07-.25.09-.38.07-.13-.02-.23-.09-.31-.21-.07-.1-.08-.22-.04-.35s.11-.23.22-.29c1.12-.62,2.11-1.39,2.98-2.31.86-.92,1.55-1.96,2.06-3.12.51-1.15.79-2.37.84-3.65.02-.41-.06-.71-.23-.9s-.51-.28-1.01-.28h-1.88c-.12,0-.22-.04-.3-.13s-.12-.19-.12-.31.04-.22.12-.3c.08-.08.18-.12.3-.12h1.88c.77,0,1.33.14,1.65.41.33.28.5.77.5,1.48.03,1.39.27,2.66.73,3.79.46,1.14,1.1,2.15,1.92,3.04s1.78,1.67,2.88,2.34c.12.08.2.18.22.32.03.14,0,.27-.08.39-.08.12-.2.19-.34.2-.14.01-.28-.02-.41-.09Z"/>
        <path d="m144.58,155.47c-.09-.08-.14-.19-.15-.31,0-.13.04-.23.13-.32.49-.5.92-1.08,1.27-1.77.36-.69.63-1.44.83-2.27.2-.83.29-1.69.29-2.58s-.14-1.49-.43-1.9c-.29-.41-.72-.62-1.29-.62-.34,0-.66.12-.96.36-.3.24-.57.57-.8.99s-.39.9-.49,1.45c-.1.55-.11,1.13-.05,1.76.02.11-.01.21-.09.3-.08.09-.17.14-.29.15-.11,0-.21-.02-.3-.08-.09-.06-.14-.16-.16-.28-.06-.47-.09-.98-.11-1.55-.02-.57-.02-1.14,0-1.71.01-.57.04-1.12.08-1.62.04-.51.07-.94.11-1.28.02-.12.07-.22.16-.29.09-.08.19-.1.32-.08.12,0,.22.06.29.15.07.09.1.2.08.32-.04.33-.08.74-.12,1.22-.04.49-.07.99-.09,1.5.25-.66.59-1.19,1.03-1.58.43-.39.91-.59,1.42-.59.83,0,1.47.29,1.92.87.45.58.67,1.42.67,2.53,0,.94-.1,1.86-.31,2.74-.21.89-.5,1.71-.9,2.48-.39.77-.87,1.44-1.43,2.02-.08.09-.19.14-.32.15s-.24-.04-.33-.13Z"/>
        <path d="m157.63,154.36c-1.24,0-2.17-.28-2.77-.85-.61-.56-.91-1.5-.91-2.79v-1.99c0-1.31.31-2.24.92-2.81s1.54-.85,2.79-.85h2.37c1.25,0,2.18.28,2.79.85.61.56.91,1.5.91,2.81v1.99c0,1.3-.3,2.23-.91,2.79-.61.57-1.54.85-2.79.85h-2.39Zm.11-.87h2.21c.97,0,1.68-.21,2.14-.63.46-.42.69-1.14.69-2.16v-1.96c0-1.03-.23-1.75-.69-2.16-.46-.42-1.17-.62-2.14-.62h-2.24c-.97,0-1.68.21-2.14.62s-.69,1.14-.69,2.16v1.96c0,1.02.23,1.74.7,2.16s1.19.63,2.16.63Z"/>
        <path d="m174.04,154.68c-.12.03-.24.01-.34-.05s-.17-.15-.2-.27c-.04-.13-.02-.25.04-.35s.16-.17.28-.21c1.08-.27,1.93-.74,2.55-1.41s.92-1.53.92-2.58c0-.71-.17-1.34-.5-1.89s-.8-.99-1.39-1.32c-.6-.33-1.3-.5-2.1-.53-.09,1.14-.25,2.18-.48,3.11-.23.94-.5,1.75-.83,2.42s-.67,1.2-1.06,1.57c-.38.37-.78.55-1.18.55-.45,0-.84-.14-1.19-.42-.35-.28-.62-.67-.81-1.16-.2-.49-.29-1.05-.29-1.68,0-.76.14-1.45.43-2.09.29-.64.69-1.19,1.2-1.67.51-.47,1.11-.83,1.8-1.09.69-.26,1.43-.39,2.22-.39.97,0,1.84.19,2.6.57s1.36.91,1.81,1.6c.44.69.67,1.49.67,2.42,0,1.25-.37,2.29-1.12,3.13-.75.84-1.75,1.42-3.02,1.74Zm-4.28-1.86c.26,0,.53-.17.81-.52.28-.34.55-.83.8-1.44.26-.62.48-1.33.67-2.14.19-.81.32-1.68.39-2.6-.88.09-1.62.36-2.23.79-.61.43-1.07.96-1.39,1.59-.31.62-.47,1.28-.47,1.97s.14,1.29.41,1.71c.27.42.61.64,1.01.64Z"/>
        <path d="m182.17,154.46c-.11.06-.23.06-.34.02-.12-.04-.2-.12-.26-.23s-.06-.23-.02-.34c.04-.12.12-.2.23-.26.92-.45,1.79-.97,2.61-1.57.82-.6,1.55-1.26,2.21-1.97.66-.71,1.21-1.46,1.64-2.23.25-.44.29-.78.12-1.04s-.55-.38-1.13-.38h-4c-.12,0-.23-.04-.32-.13-.09-.09-.14-.19-.14-.32,0-.13.05-.24.14-.32.09-.08.2-.13.32-.13h4c.68,0,1.2.12,1.57.36.36.24.56.57.6.99.04.42-.09.88-.39,1.41-.3.53-.65,1.05-1.05,1.54.35.27.7.57,1.07.9.37.33.73.67,1.09,1.01.36.35.69.67,1,.98.31.31.57.58.78.81.09.09.14.2.14.33s-.05.23-.14.32c-.09.08-.2.13-.32.13s-.23-.05-.32-.14c-.21-.21-.47-.48-.78-.79-.3-.31-.63-.64-.99-.99-.35-.35-.71-.69-1.06-1.02s-.7-.63-1.02-.89c-.71.78-1.51,1.52-2.42,2.21-.9.69-1.85,1.27-2.83,1.75Z"/>
        <path d="m197,155.36c-.12.05-.24.05-.36,0-.12-.04-.2-.12-.25-.25-.05-.11-.05-.23,0-.34.05-.12.13-.2.24-.24,2.14-.93,3.88-2.16,5.24-3.67-.27-.26-.54-.51-.8-.74-.27-.23-.51-.44-.74-.62-.09-.07-.15-.17-.17-.3s.01-.24.1-.33c.08-.1.18-.16.3-.17.13,0,.24.02.33.1.24.2.5.41.77.64.27.23.54.46.8.71.24-.33.47-.66.69-1,.21-.34.41-.69.59-1.06.21-.43.26-.77.14-1.03-.12-.26-.47-.38-1.04-.38h-2.25c-.46.62-.98,1.24-1.58,1.85-.6.61-1.18,1.11-1.74,1.5-.1.07-.21.09-.34.07-.12-.02-.22-.08-.29-.18-.07-.1-.09-.22-.07-.34s.08-.22.18-.29c.59-.41,1.15-.88,1.67-1.4s1-1.07,1.41-1.65c.42-.57.74-1.14.99-1.69.05-.11.13-.19.25-.23.12-.04.24-.04.36,0,.11.05.19.13.23.25.04.12.04.24,0,.36-.07.13-.14.27-.21.41-.08.14-.16.3-.25.46h1.65c.97,0,1.6.25,1.88.75.28.5.22,1.15-.18,1.95-.2.4-.42.79-.66,1.17-.24.38-.5.74-.78,1.1.48.46.89.91,1.25,1.36.08.09.12.21.11.34-.01.13-.07.24-.17.32-.09.07-.21.1-.34.09-.13-.01-.24-.07-.32-.17-.15-.19-.32-.39-.51-.6-.19-.21-.39-.42-.61-.62-1.48,1.62-3.31,2.92-5.49,3.88Z"/>
        <path d="m212.83,151.35c-.09.04-.19.04-.3,0-.11-.04-.18-.11-.23-.21-.14-.32-.29-.63-.46-.94-.17-.31-.33-.58-.49-.81-.07-.09-.09-.19-.08-.3.01-.11.07-.19.16-.26.09-.07.19-.09.3-.07s.19.08.26.17c.18.25.36.56.55.91s.36.68.5.98c.05.1.05.21,0,.31s-.11.18-.22.22Zm.17,4c-.09.05-.19.05-.3.01-.11-.04-.18-.11-.23-.21-.05-.1-.05-.21-.01-.31.04-.1.1-.18.2-.22.99-.48,1.81-1,2.45-1.57.64-.57,1.15-1.22,1.53-1.97s.64-1.6.81-2.58c.02-.1.07-.19.17-.25.09-.07.19-.09.29-.07.11.02.2.07.26.16.06.09.08.19.06.3-.18,1.06-.48,1.99-.9,2.81s-.99,1.55-1.7,2.18c-.71.63-1.58,1.2-2.62,1.71Zm2-4.56c-.1.04-.2.03-.3-.02-.1-.05-.17-.13-.2-.23-.12-.33-.25-.65-.4-.98-.15-.33-.28-.61-.41-.84-.05-.1-.06-.21-.04-.31s.08-.19.17-.25c.1-.06.21-.07.32-.05.11.02.18.09.23.19.15.26.31.59.48.97.17.39.31.73.4,1.02.04.1.03.2-.02.3-.05.1-.13.17-.23.2Z"/>
        <path d="m225.93,154.99c-.11.06-.23.06-.34.01-.12-.05-.2-.13-.24-.24-.06-.11-.06-.23-.01-.35s.13-.21.24-.25c1.53-.66,2.84-1.48,3.92-2.46s1.85-2.04,2.31-3.19c.24-.61.28-1.08.11-1.41s-.64-.5-1.39-.5h-5.32c-.12,0-.23-.04-.32-.13-.09-.09-.14-.19-.14-.32,0-.13.05-.24.14-.32.09-.08.2-.13.32-.13h5.32c1.11,0,1.84.29,2.18.86s.32,1.33-.06,2.27c-.51,1.27-1.35,2.43-2.51,3.48s-2.55,1.93-4.19,2.65Z"/>
        <path d="m238.81,154.88c-.12.02-.23,0-.34-.08-.1-.07-.16-.17-.18-.29-.11-.62-.19-1.33-.23-2.13s-.05-1.64-.03-2.51.08-1.72.16-2.55c.08-.83.2-1.58.35-2.24.02-.12.08-.21.18-.28s.21-.08.34-.06c.13.03.23.09.29.2.06.1.08.21.06.34-.15.68-.27,1.42-.36,2.21-.09.79-.14,1.59-.16,2.41-.02.82,0,1.61.04,2.37.04.77.12,1.47.23,2.1.03.12,0,.23-.06.34-.07.1-.17.16-.29.18Zm5.81-.77c-1.14,0-1.99-.21-2.54-.62-.55-.42-.87-.99-.94-1.73,0-.13.03-.24.1-.34.08-.09.18-.14.3-.15.12-.02.23.01.32.09.09.08.14.18.15.3.06.51.28.91.69,1.18s1.04.41,1.92.41c.36,0,.78-.03,1.24-.08.46-.05.94-.13,1.43-.25.12-.03.23,0,.34.06.1.07.17.16.2.29.02.12,0,.23-.07.33-.07.1-.16.16-.28.19-.51.12-1.01.2-1.49.25s-.94.06-1.37.06Zm-2.72-6.96c-.12.02-.23,0-.34-.07s-.17-.16-.2-.28c-.02-.12,0-.23.07-.34s.16-.16.28-.18c.5-.1,1.07-.17,1.71-.21s1.27-.04,1.9-.01c.63.03,1.2.09,1.69.18.12.02.22.08.29.17s.1.21.08.33-.08.22-.18.29c-.1.07-.21.1-.34.08-1.66-.3-3.32-.28-4.97.04Z"/>
        <path d="m257.8,155.34c-.12,0-.23-.06-.31-.15-.09-.09-.13-.19-.13-.32,0-.13.06-.24.15-.32s.19-.13.32-.13c1.03.04,1.82-.1,2.38-.43.56-.32.84-.81.84-1.46s-.26-1.1-.78-1.43c-.52-.33-1.24-.49-2.14-.49-.43,0-.84.02-1.24.07-.4.05-.77.11-1.13.18v2.02c0,.83-.17,1.44-.5,1.83-.33.39-.86.59-1.59.59-.57,0-1.04-.16-1.41-.47s-.56-.76-.56-1.35c0-.73.29-1.37.88-1.92.58-.56,1.35-.99,2.3-1.3v-2.84c-.48.04-.94.07-1.39.09-.45.02-.87.04-1.25.05-.12,0-.23-.03-.31-.12s-.13-.19-.13-.32c0-.13.04-.24.13-.32s.19-.13.31-.13c.38,0,.8-.03,1.25-.05.45-.02.92-.05,1.39-.09v-2.27c0-.13.04-.24.13-.32s.19-.13.32-.13.22.04.31.13.13.19.13.32v2.2c.33-.04.64-.07.95-.11.3-.04.59-.08.86-.11.13-.02.25,0,.34.07.1.07.15.16.16.29.02.12,0,.23-.08.32-.07.09-.17.15-.3.17-.27.04-.57.08-.9.12-.33.04-.67.08-1.03.12v2.69c.37-.08.76-.13,1.16-.17.4-.04.8-.06,1.22-.06,1.21,0,2.15.25,2.82.75.67.5,1,1.16,1,2,0,.93-.36,1.64-1.09,2.13-.73.49-1.75.71-3.05.67Zm-4.14-.9c.41,0,.71-.11.91-.33.2-.22.29-.63.29-1.23v-1.75c-.72.26-1.28.6-1.68,1.02-.4.42-.6.86-.6,1.32,0,.28.09.51.27.69.18.18.45.27.8.27Zm7.94-5.8c-.17-.13-.39-.28-.68-.46-.28-.18-.57-.35-.87-.52s-.55-.31-.78-.41c-.1-.05-.18-.13-.23-.25-.05-.12-.05-.23,0-.34.06-.11.14-.19.26-.22.12-.04.23-.03.34.01.24.11.52.26.85.45.32.19.63.37.93.56s.53.35.7.48c.1.08.16.17.17.29.01.12-.02.23-.09.34-.07.09-.16.15-.28.16-.12.01-.23-.01-.34-.08Z"/>
        <path d="m266.51,149.03c-.25-.2-.55-.41-.9-.64-.35-.23-.67-.43-.96-.6-.09-.05-.15-.12-.17-.23-.02-.11-.01-.21.03-.3.06-.1.14-.17.25-.2.11-.03.22-.01.32.04.2.09.41.21.65.36.24.14.47.29.7.45.23.15.42.29.58.41.1.08.16.17.18.28s0,.22-.07.32c-.07.09-.16.15-.28.18-.12.03-.23,0-.34-.07Zm-1.75,6.52c-.1-.08-.17-.17-.2-.29-.03-.12,0-.23.06-.33.16-.24.33-.53.53-.88.19-.34.38-.7.58-1.08.2-.38.38-.74.55-1.1s.31-.67.42-.94c.05-.1.12-.18.21-.22.09-.05.2-.05.32,0,.11.04.19.11.24.2s.05.21,0,.34c-.16.42-.36.88-.62,1.39-.25.51-.51,1-.77,1.48-.26.48-.49.89-.67,1.23-.07.12-.16.2-.29.23-.13.03-.25.02-.36-.05Zm2.32-9.63c-.24-.19-.54-.4-.89-.63-.35-.23-.67-.43-.96-.6-.09-.05-.15-.12-.18-.23-.03-.11-.01-.21.04-.3.06-.1.14-.17.25-.2.11-.03.22-.02.32.03.2.09.41.21.65.36.24.15.47.3.7.46.23.15.42.29.57.4.1.07.17.17.19.29.02.12,0,.23-.08.33-.07.09-.16.15-.27.18-.12.03-.23,0-.34-.08Zm.21,10.05c-.1-.07-.17-.16-.2-.27-.03-.12,0-.22.06-.32.35-.56.63-1.15.84-1.76s.35-1.31.45-2.09c.09-.78.14-1.68.14-2.69v-1.6c0-.78.17-1.34.52-1.67.34-.33.93-.49,1.75-.49h1.48v-1.39c0-.13.04-.24.13-.32s.19-.13.32-.13c.13,0,.24.04.32.13s.13.19.13.32v1.39h3.58c.12,0,.22.04.29.12.07.08.1.17.1.29s-.04.21-.1.29c-.07.08-.17.12-.29.12h-5.95c-.54,0-.92.09-1.14.28-.22.19-.33.54-.33,1.06v.25h1.88v-1.12c0-.11.04-.21.13-.29s.18-.12.29-.12c.1,0,.2.04.28.12s.13.17.13.29v1.12h1.88v-1.11c0-.12.04-.22.13-.3s.18-.12.29-.12.21.04.29.12.13.18.13.3v1.11h1.76c.11,0,.21.04.28.12.07.08.11.18.11.29,0,.1-.04.19-.11.27-.08.08-.17.12-.28.12h-1.76v.29c0,.61-.13,1.02-.38,1.23-.25.21-.72.32-1.4.32s-1.13-.11-1.39-.32c-.25-.21-.38-.62-.38-1.23v-.29h-1.88v.55c0,1.05-.04,1.99-.13,2.8-.09.81-.24,1.55-.45,2.23-.21.67-.51,1.32-.9,1.95-.07.11-.16.18-.27.22-.12.03-.23.02-.34-.05Zm2.45.14c-.12.04-.24.03-.35-.01-.11-.05-.19-.13-.24-.27-.04-.13-.02-.24.04-.34.07-.09.16-.16.29-.2.57-.14,1.11-.33,1.63-.56.52-.23,1-.5,1.45-.8-.33-.32-.63-.67-.9-1.05s-.5-.8-.7-1.25h-.87c-.1,0-.19-.04-.27-.12-.07-.08-.11-.17-.11-.27s.04-.19.11-.27c.08-.08.16-.12.27-.12h3.79c.45,0,.8.1,1.06.29.26.2.39.46.4.78,0,.32-.15.67-.46,1.03-.32.37-.66.71-1.02,1.02.85.6,1.87,1.01,3.05,1.25.11.02.2.08.26.18.06.1.08.2.05.31-.04.14-.11.23-.22.28-.11.05-.24.06-.38.03-.64-.14-1.25-.34-1.83-.6-.58-.26-1.11-.57-1.6-.94-.5.35-1.05.67-1.63.94-.58.27-1.19.5-1.83.69Zm3.49-2.65c.38-.31.71-.63.99-.97.23-.27.31-.48.23-.63s-.3-.22-.65-.22h-1.97c.19.35.4.67.63.97.23.3.49.59.77.85Zm-.2-4.09c.38,0,.63-.05.76-.14.12-.09.18-.31.18-.66v-.29h-1.88v.29c0,.34.06.56.18.66.12.09.37.14.76.14Z"/>
        <path d="m285.27,155.38c-1,0-1.79-.26-2.36-.77-.57-.51-.86-1.31-.86-2.39v-7.62c0-.12.04-.22.13-.31s.19-.13.31-.13c.13,0,.24.04.32.13s.13.19.13.31v7.62c0,.58.09,1.04.29,1.37s.46.57.82.71c.35.14.77.2,1.23.2.69,0,1.33-.19,1.92-.57s1.05-.92,1.38-1.62c.05-.11.13-.19.25-.23s.24-.04.35.02c.11.06.19.14.23.26.04.12.04.23-.02.34-.4.86-.97,1.52-1.71,1.99s-1.54.7-2.41.7Z"/>
        <path d="m301.13,155.78c-.09.07-.2.09-.32.07-.12-.02-.22-.08-.29-.18-.33-.47-.68-.94-1.06-1.41-.38-.48-.76-.93-1.14-1.36-.38-.43-.74-.81-1.07-1.13-.57-.55-.95-1.06-1.13-1.53-.18-.47-.17-.93.04-1.39.21-.46.6-.95,1.18-1.46.28-.24.61-.55.98-.91.37-.36.75-.75,1.14-1.15.39-.4.74-.77,1.06-1.11.08-.09.19-.14.31-.14s.22.04.31.11c.09.08.14.19.15.32,0,.13-.04.23-.12.31-.34.36-.7.73-1.09,1.13-.39.4-.77.78-1.15,1.14s-.71.67-.99.93c-.44.4-.74.76-.89,1.07-.15.31-.16.62-.02.94.14.31.42.68.84,1.1.35.34.72.73,1.11,1.18.4.45.79.92,1.19,1.41.4.49.76.97,1.1,1.44.07.09.1.2.08.32-.02.12-.09.22-.19.29Z"/>
        <path d="m13.86,179.16c-.1-.07-.17-.16-.2-.28-.03-.12,0-.23.06-.34.41-.64.77-1.37,1.08-2.16.31-.8.57-1.62.78-2.47.21-.85.38-1.67.49-2.46-.33.04-.65.07-.97.1-.32.03-.63.05-.92.07-.12,0-.23-.03-.32-.11-.09-.08-.14-.19-.15-.31,0-.12.03-.23.11-.32.08-.09.19-.14.31-.14.3-.02.62-.04.97-.07.35-.03.71-.06,1.08-.1.05-.43.08-.83.1-1.2.02-.37.02-.71,0-1.02,0-.12.03-.23.11-.32.08-.09.19-.14.31-.15.13,0,.24.04.33.12s.13.18.13.31c.03.6,0,1.31-.08,2.14.69-.08,1.3-.19,1.83-.32.12-.03.23,0,.33.06.1.07.16.16.19.29.03.12,0,.23-.06.34-.07.1-.16.16-.28.18-.32.07-.66.13-1.02.18-.36.06-.73.11-1.11.15-.12.85-.3,1.74-.53,2.67s-.51,1.83-.84,2.7c-.33.87-.71,1.64-1.14,2.31-.07.1-.16.17-.27.2-.12.03-.23,0-.33-.06Zm9.72-.32c-1.3.27-2.42.29-3.37.06-.95-.23-1.64-.73-2.07-1.5-.06-.1-.07-.21-.03-.34.03-.12.1-.21.22-.27.1-.06.21-.07.33-.04.12.03.21.11.27.22.25.45.6.77,1.05.95.45.19.97.28,1.55.27.59,0,1.21-.08,1.88-.22.12-.03.23,0,.34.06.1.07.16.16.18.29.03.12,0,.23-.06.33-.07.1-.16.16-.28.19Zm-.59-5.52c-.57-.13-1.18-.2-1.83-.22-.65-.01-1.28.04-1.9.16-.12.02-.23,0-.34-.07-.1-.07-.16-.16-.18-.28-.03-.13,0-.25.06-.34.07-.1.17-.16.29-.18.65-.12,1.35-.17,2.08-.16.73.01,1.41.09,2.02.22.12.03.21.1.27.2.06.11.08.22.05.34-.03.12-.09.21-.2.27-.1.06-.21.08-.34.05Zm.87-2.16c-.08.07-.16.09-.27.08-.1,0-.19-.05-.25-.13-.13-.16-.31-.35-.53-.57-.22-.22-.42-.39-.57-.51-.08-.07-.12-.15-.13-.25,0-.1.02-.18.08-.26.07-.08.16-.11.25-.12.09,0,.18.03.27.09.1.08.23.18.38.32.15.13.3.28.45.42s.27.27.36.37c.07.07.1.17.09.27-.01.11-.06.2-.13.27Zm1.11-1.16c-.07.08-.15.11-.26.1-.11,0-.2-.04-.27-.12-.13-.15-.32-.32-.55-.53-.24-.2-.44-.36-.59-.48-.08-.06-.13-.14-.15-.24-.01-.09.01-.18.08-.27.07-.07.15-.12.25-.13.1,0,.19.01.27.07.11.08.25.17.4.3.15.13.31.26.47.39.16.13.28.25.38.36.07.07.11.15.1.26,0,.11-.04.2-.12.27Z"/>
        <path d="m34.43,179.58c-.99.02-1.86-.08-2.6-.3-.75-.22-1.33-.56-1.74-1.03-.41-.47-.62-1.06-.62-1.78,0-.59.14-1.07.42-1.46.28-.38.66-.67,1.14-.86s1.04-.29,1.67-.31c.63-.01,1.29.06,2,.23-.41-.36-.82-.81-1.22-1.34s-.76-1.08-1.08-1.67c-.6.09-1.2.17-1.81.24-.61.07-1.19.11-1.76.14-.12,0-.23-.03-.31-.11-.09-.08-.14-.19-.15-.31,0-.13.04-.24.13-.32s.19-.13.31-.14c.5-.02,1.02-.05,1.56-.1s1.09-.12,1.63-.2c-.12-.29-.23-.58-.33-.86-.1-.28-.17-.57-.23-.85-.03-.12,0-.23.06-.34s.16-.16.28-.18c.13-.03.25,0,.34.06s.16.16.19.28c.11.56.3,1.14.57,1.75.54-.1,1.06-.21,1.55-.33.49-.12.95-.25,1.36-.39.12-.04.24-.03.34.03.11.06.18.14.22.27.04.11.03.22-.03.33-.06.11-.14.18-.27.22-.41.12-.85.24-1.32.35-.47.11-.96.22-1.45.32.38.68.84,1.33,1.37,1.95.53.62,1.08,1.13,1.67,1.54.09.07.15.15.18.25.03.1.02.21-.03.31-.05.09-.12.16-.22.21s-.21.06-.31.03c-1.12-.37-2.1-.56-2.93-.57-.83,0-1.48.15-1.95.47s-.69.78-.69,1.39c0,.53.17.96.5,1.29.34.33.81.57,1.41.71s1.32.21,2.13.2c.12,0,.23.04.32.13.09.08.13.19.13.31s-.04.23-.13.32c-.08.09-.19.13-.31.13Z"/>
        <path d="m44.54,177.61c-.38.02-.75-.07-1.09-.26-.35-.19-.64-.49-.88-.89-.23-.38-.43-.89-.6-1.53s-.29-1.33-.37-2.07c-.08-.75-.1-1.47-.05-2.18,0-.12.06-.22.15-.31.09-.08.19-.12.31-.11.13,0,.24.06.32.15.08.09.11.2.1.32-.04.68-.03,1.36.03,2.04s.16,1.29.31,1.86c.15.56.33,1.02.55,1.37.15.23.32.41.52.54s.41.18.63.17c.58,0,1.04-.54,1.39-1.58.04-.12.11-.21.22-.27.11-.06.22-.07.34-.03s.21.11.27.22c.06.11.06.22.01.34-.26.77-.58,1.32-.96,1.66-.38.34-.77.53-1.18.55Zm7.59-2.46c-.12.04-.24.03-.34-.02-.11-.05-.18-.13-.23-.25-.23-.6-.57-1.18-1.01-1.74-.44-.56-.93-1.01-1.45-1.36-.09-.07-.15-.16-.17-.29s0-.24.08-.33c.08-.1.18-.16.3-.16.12,0,.23.03.34.1.35.22.71.53,1.08.9.36.38.7.79,1,1.23.3.44.53.88.68,1.32.05.12.04.24-.01.34-.06.11-.15.18-.27.23Z"/>
        <path d="m56.73,179.82c-.36,0-.68-.09-.97-.26-.29-.17-.53-.41-.7-.7-.17-.29-.26-.62-.26-.97s.09-.69.26-.98c.17-.29.41-.52.7-.69.29-.17.62-.26.97-.26s.68.09.97.26.52.41.69.7c.17.29.26.62.26.97s-.09.68-.26.97c-.17.29-.4.53-.69.7s-.61.26-.97.26Zm0-.63c.35,0,.66-.13.91-.38s.38-.56.38-.92-.13-.66-.38-.92-.56-.38-.91-.38-.66.13-.92.38-.38.56-.38.92.13.66.38.92.56.38.92.38Z"/>
        <path d="m71.19,179.22c-.12.05-.24.05-.36,0-.12-.04-.2-.12-.25-.25-.05-.11-.05-.23,0-.34.05-.12.13-.2.24-.25,1.62-.71,3.02-1.6,4.2-2.66,1.18-1.06,2.11-2.29,2.8-3.67.23-.46.28-.81.13-1.06s-.5-.38-1.05-.38h-2.14c-.46.62-.98,1.22-1.55,1.81-.58.59-1.16,1.09-1.75,1.5-.1.07-.21.09-.34.06s-.22-.08-.29-.17c-.07-.1-.09-.22-.07-.34.02-.13.08-.22.18-.29.56-.39,1.1-.85,1.62-1.37.52-.52.99-1.07,1.41-1.65s.75-1.13.99-1.66c.05-.12.13-.2.24-.25.12-.04.24-.04.36,0,.11.06.19.14.23.26.04.12.04.23,0,.34-.13.27-.28.56-.45.85h1.55c.95,0,1.58.25,1.9.74.31.5.26,1.16-.16,1.99-.73,1.44-1.72,2.74-2.99,3.89-1.26,1.16-2.75,2.11-4.46,2.86Zm9.42-8.54c-.08.07-.17.09-.27.08-.11,0-.19-.06-.26-.14-.12-.16-.29-.35-.5-.57s-.4-.4-.56-.53c-.07-.07-.1-.15-.11-.25,0-.1.02-.18.08-.26.07-.07.16-.11.25-.12.09,0,.18.03.27.11.1.07.23.18.37.32.14.14.29.29.43.43s.26.28.34.39c.07.08.11.16.09.27-.01.1-.06.19-.13.27Zm1.13-1.12c-.07.07-.16.1-.27.09-.1,0-.19-.04-.27-.12-.13-.16-.31-.34-.54-.55-.23-.21-.42-.38-.58-.5-.08-.06-.12-.14-.13-.24-.01-.09.01-.18.08-.27.07-.07.15-.12.25-.13.1,0,.19.02.27.08.1.08.23.18.38.31s.31.27.46.41c.15.14.28.26.37.36.07.08.11.17.1.27,0,.11-.05.2-.13.27Z"/>
        <path d="m86.41,178.94c-.12.04-.24.03-.34-.02-.11-.05-.18-.14-.23-.26-.04-.12-.03-.24.03-.35.06-.11.14-.19.27-.22,1.2-.41,2.27-.97,3.19-1.69s1.61-1.52,2.04-2.43c.53-1.12.19-1.68-1.04-1.68h-5.12c-.12,0-.23-.04-.31-.13s-.13-.19-.13-.32.04-.22.13-.31c.09-.08.19-.13.31-.13h5.12c1.03,0,1.7.27,2.01.81.31.54.25,1.26-.17,2.14-.33.67-.77,1.3-1.34,1.89s-1.22,1.11-1.97,1.56c-.75.45-1.56.83-2.45,1.13Zm-.29-9.21c-.12,0-.23-.04-.31-.13-.09-.08-.13-.19-.13-.31,0-.13.04-.24.13-.32.09-.08.19-.13.31-.13h5.28c.13,0,.24.04.33.13.09.08.13.19.13.32,0,.12-.04.22-.13.31-.09.08-.2.13-.33.13h-5.28Z"/>
        <path d="m98.17,178.46c-.11.06-.23.06-.34.02-.12-.04-.2-.12-.26-.23s-.06-.23-.02-.34c.04-.12.12-.2.23-.26.92-.45,1.79-.97,2.61-1.57.82-.6,1.55-1.26,2.21-1.97.66-.71,1.21-1.46,1.64-2.23.25-.44.29-.78.12-1.04s-.55-.38-1.13-.38h-4c-.12,0-.23-.04-.32-.13-.09-.09-.14-.19-.14-.32,0-.13.05-.24.14-.32.09-.08.2-.13.32-.13h4c.68,0,1.2.12,1.57.36.36.24.56.57.6.99.04.42-.09.88-.39,1.41-.3.53-.65,1.05-1.05,1.54.35.27.7.57,1.07.9.37.33.73.67,1.09,1.01.36.35.69.67,1,.98.31.31.57.58.78.81.09.09.14.2.14.33s-.05.23-.14.32c-.09.08-.2.13-.32.13s-.23-.05-.32-.14c-.21-.21-.47-.48-.78-.79-.3-.31-.63-.64-.99-.99-.35-.35-.71-.69-1.06-1.02s-.7-.63-1.02-.89c-.71.78-1.51,1.52-2.42,2.21-.9.69-1.85,1.27-2.83,1.75Z"/>
        <path d="m111.71,180.08c-.12,0-.23-.03-.31-.11-.09-.08-.14-.19-.15-.31,0-.11.02-.21.1-.3.07-.09.18-.14.32-.15.32-.02.56-.05.71-.08.16-.04.27-.12.33-.24.06-.12.09-.31.09-.57v-5.38h-2.17c-.11,0-.21-.04-.28-.11s-.11-.17-.11-.28.04-.21.11-.28.17-.11.28-.11h3.49c-.23-.21-.5-.45-.81-.71-.31-.26-.61-.5-.92-.74-.3-.24-.58-.44-.82-.61-.08-.06-.13-.15-.13-.25,0-.1.03-.19.09-.27.07-.08.15-.13.26-.15.11-.01.21.01.3.08.14.09.29.21.46.34.17.13.34.27.52.41.2-.2.41-.4.63-.61s.41-.4.56-.57c.11-.12.15-.21.11-.28s-.13-.1-.27-.1h-3.11c-.11,0-.21-.04-.28-.11-.08-.07-.11-.16-.11-.27s.04-.19.11-.27c.07-.08.17-.12.28-.12h3.57c.25,0,.46.06.61.19s.24.28.25.48-.07.39-.25.59c-.21.23-.44.48-.7.75-.26.27-.53.54-.8.81.19.16.37.31.55.46.18.15.34.29.48.42.07.07.11.15.12.26,0,.11-.03.2-.11.27h.22c.45,0,.75.12.91.36.16.24.14.57-.04.97-.12.24-.25.49-.39.76-.14.26-.28.52-.41.77-.12.22-.3.29-.55.2-.1-.05-.17-.12-.22-.22-.04-.1-.04-.19.02-.29.1-.18.22-.39.36-.63.14-.24.25-.44.34-.6.18-.35.07-.53-.32-.53h-.99v5.5c0,.63-.15,1.07-.44,1.29-.29.23-.79.34-1.49.34Zm4.49-.07c-.12.07-.24.08-.36.06-.12-.03-.21-.1-.27-.21-.06-.09-.07-.19-.04-.29.03-.1.11-.18.22-.24.25-.13.53-.3.83-.51s.59-.43.87-.65c.28-.22.52-.42.71-.6.08-.07.19-.11.32-.11s.22.05.29.14c.07.08.1.17.09.27-.01.11-.06.2-.15.27-.21.2-.47.42-.76.66-.29.24-.59.47-.9.69-.3.21-.58.39-.85.53Zm2.65-2.83c-.76,0-1.28-.12-1.58-.36-.29-.24-.44-.69-.44-1.34v-3.64c0-.63.14-1.08.42-1.32.28-.25.78-.38,1.48-.38.07-.21.16-.46.25-.73.09-.27.17-.51.23-.71h-2.84c-.11,0-.21-.04-.28-.11-.07-.08-.11-.17-.11-.28,0-.1.04-.19.11-.27.08-.08.17-.12.28-.12h6.65c.11,0,.21.04.28.12.08.08.11.17.11.27,0,.11-.04.21-.11.28s-.17.11-.28.11h-2.88c-.07.21-.14.44-.23.71-.09.27-.17.51-.25.73h.71c.75,0,1.27.12,1.56.36.29.24.44.69.44,1.34v3.64c0,.65-.15,1.1-.44,1.34-.29.24-.81.36-1.56.36h-1.53Zm-1.16-4.96h3.84v-.31c0-.44-.08-.72-.25-.84s-.5-.18-1.01-.18h-1.32c-.5,0-.84.06-1.01.18s-.25.4-.25.84v.31Zm0,2.07h3.84v-1.33h-3.84v1.33Zm1.26,2.11h1.32c.5,0,.84-.06,1.01-.19s.25-.4.25-.83v-.36h-3.84v.36c0,.43.08.71.25.83s.5.19,1.01.19Zm3.82,3.6c-.24-.14-.52-.32-.82-.54-.3-.22-.6-.45-.88-.69-.29-.24-.53-.47-.72-.67-.07-.07-.1-.17-.1-.28s.04-.2.11-.27c.07-.07.17-.11.28-.1.11,0,.21.04.28.12.2.19.43.39.7.62.27.22.55.44.84.64.29.2.56.37.81.51.1.06.17.14.2.25.03.11,0,.21-.06.31-.07.11-.16.18-.29.19s-.25-.01-.36-.08Z"/>
        <path d="m125.44,179.09c-.09-.07-.15-.17-.16-.3s.02-.24.09-.33c.42-.53.81-1.12,1.17-1.77.36-.65.68-1.33.97-2.04.29-.71.54-1.42.74-2.12-.38.04-.78.08-1.19.12-.41.04-.83.09-1.26.13-.12,0-.23-.02-.32-.1-.09-.07-.15-.17-.17-.29,0-.12.02-.23.1-.33.08-.1.17-.15.29-.16.49-.05.96-.09,1.43-.13.47-.04.92-.08,1.36-.1.25-1.02.4-1.95.45-2.79,0-.13.06-.24.15-.32.09-.08.2-.11.32-.1.12,0,.22.06.31.15s.12.19.11.32c-.03.39-.08.81-.15,1.27-.07.45-.17.93-.29,1.42,1.31-.06,2.21.21,2.7.78.49.58.64,1.53.46,2.86-.15,1.06-.37,1.89-.67,2.48s-.69.98-1.17,1.18c-.48.2-1.08.25-1.78.16-.12-.02-.22-.07-.29-.17-.07-.09-.1-.2-.08-.32.02-.13.08-.23.17-.31.09-.07.2-.1.32-.08.34.05.64.05.92.01.28-.04.53-.16.75-.36.22-.2.41-.52.57-.95.16-.43.29-1.02.39-1.77.09-.67.09-1.21,0-1.62-.1-.41-.33-.69-.7-.86-.37-.17-.92-.23-1.64-.18h-.14c-.21.77-.48,1.54-.78,2.33-.31.79-.66,1.54-1.05,2.26-.39.72-.82,1.37-1.29,1.96-.07.09-.16.15-.28.17s-.23,0-.34-.08Zm11.09-4.17c-.1.06-.21.07-.34.03-.12-.04-.21-.11-.27-.21-.18-.33-.39-.67-.63-1.02-.24-.35-.5-.68-.78-1s-.54-.6-.81-.84c-.09-.07-.14-.17-.14-.3s.04-.23.13-.32c.08-.09.19-.14.31-.15.12,0,.23.03.32.12.28.26.57.57.86.92.29.35.57.71.84,1.08.27.37.49.73.68,1.08.06.1.07.21.03.33-.04.12-.11.21-.21.27Z"/>
        <path d="m144.58,179.47c-.09-.08-.14-.19-.15-.31,0-.13.04-.23.13-.32.49-.5.92-1.08,1.27-1.77.36-.69.63-1.44.83-2.27.2-.83.29-1.69.29-2.58s-.14-1.49-.43-1.9c-.29-.41-.72-.62-1.29-.62-.34,0-.66.12-.96.36-.3.24-.57.57-.8.99s-.39.9-.49,1.45c-.1.55-.11,1.13-.05,1.76.02.11-.01.21-.09.3-.08.09-.17.14-.29.15-.11,0-.21-.02-.3-.08-.09-.06-.14-.16-.16-.28-.06-.47-.09-.98-.11-1.55-.02-.57-.02-1.14,0-1.71.01-.57.04-1.12.08-1.62.04-.51.07-.94.11-1.28.02-.12.07-.22.16-.29.09-.08.19-.1.32-.08.12,0,.22.06.29.15.07.09.1.2.08.32-.04.33-.08.74-.12,1.22-.04.49-.07.99-.09,1.5.25-.66.59-1.19,1.03-1.58.43-.39.91-.59,1.42-.59.83,0,1.47.29,1.92.87.45.58.67,1.42.67,2.53,0,.94-.1,1.86-.31,2.74-.21.89-.5,1.71-.9,2.48-.39.77-.87,1.44-1.43,2.02-.08.09-.19.14-.32.15s-.24-.04-.33-.13Z"/>
        <path d="m155.25,180.2c-.12,0-.22-.04-.31-.13s-.13-.19-.13-.32v-7.91c-.29.42-.58.82-.88,1.2s-.59.73-.89,1.05c-.08.09-.18.14-.3.15-.12,0-.22-.04-.31-.12-.08-.08-.13-.17-.14-.27,0-.11.02-.21.1-.3.34-.35.68-.77,1.04-1.25s.71-.99,1.04-1.53c.34-.54.64-1.06.9-1.58.27-.52.47-.99.62-1.41.05-.13.13-.22.24-.27s.23-.05.35,0c.26.1.35.29.25.57-.15.37-.32.76-.52,1.16s-.41.8-.64,1.2v9.31c0,.13-.04.24-.12.32-.08.08-.18.13-.32.13Zm7.5-.71c-.49-.44-.95-.97-1.39-1.6s-.84-1.4-1.18-2.3c-.34-.9-.61-1.97-.81-3.2l-2.74.25c-.13,0-.24-.02-.33-.1-.09-.08-.14-.17-.16-.29,0-.12.02-.23.1-.32.07-.09.17-.14.29-.15l2.73-.27c-.07-.55-.12-1.13-.15-1.74-.04-.61-.06-1.25-.07-1.93,0-.13.04-.24.13-.32.09-.08.19-.13.32-.13.13,0,.24.04.33.12.09.08.13.19.12.33,0,.67.01,1.31.04,1.9.03.6.07,1.16.14,1.68l4.2-.39c.13,0,.24.02.33.1.09.08.14.17.15.29.02.12,0,.23-.08.32-.07.09-.18.14-.31.16l-4.16.39c.18,1.15.42,2.14.74,2.97.31.83.67,1.53,1.08,2.11.41.57.84,1.05,1.29,1.43.38.33.65.26.81-.2.07-.2.14-.44.23-.73s.16-.53.22-.71c.05-.13.12-.23.23-.29.11-.07.22-.08.34-.06.12.04.21.11.27.21.06.1.07.22.03.35-.07.25-.15.53-.26.85-.11.31-.2.58-.27.79-.21.57-.51.89-.91.96-.4.07-.83-.1-1.29-.5Zm1.13-9.16c-.08.08-.19.13-.31.13s-.23-.05-.32-.14c-.14-.15-.31-.32-.52-.5-.21-.19-.41-.37-.62-.55s-.38-.33-.53-.44c-.08-.07-.13-.17-.13-.27s.03-.2.09-.29c.08-.09.17-.15.29-.16.12-.01.22.02.32.09.16.12.35.28.57.46.22.19.44.38.66.57s.39.35.52.48c.08.09.13.2.13.31s-.05.22-.14.32Z"/>
        <path d="m175.9,179.36c-1.2.16-2.21.22-3.02.2-.81-.03-1.46-.14-1.95-.32-.49-.19-.84-.44-1.05-.75-.21-.31-.31-.67-.31-1.06,0-.68.3-1.31.9-1.89.6-.58,1.44-1.08,2.52-1.51-.28-.47-.67-.75-1.18-.84-.49-.1-.98-.04-1.46.2s-.95.59-1.42,1.08c-.09.09-.21.14-.34.15-.14,0-.24-.03-.32-.13-.08-.09-.12-.2-.12-.33,0-.13.05-.23.15-.3.55-.46,1.04-.98,1.46-1.57s.77-1.2,1.04-1.82c-.5,0-.98.02-1.44.02-.47,0-.88,0-1.23,0-.12,0-.23-.06-.32-.14s-.13-.19-.12-.31c0-.13.05-.24.14-.32.09-.08.2-.11.32-.1.4.02.86.03,1.38.03s1.05,0,1.59-.03c.08-.25.15-.5.21-.74.06-.24.1-.48.14-.71.02-.12.07-.22.16-.3.09-.08.19-.11.31-.09.12,0,.22.06.29.16.08.1.1.21.08.33-.06.43-.15.87-.29,1.33.47-.02.92-.05,1.35-.08.43-.04.83-.08,1.18-.11.12-.02.23,0,.33.08.1.08.15.17.16.29.02.12,0,.23-.08.32-.08.09-.18.15-.31.17-.4.04-.86.07-1.37.11-.51.03-1.03.06-1.56.08-.31.75-.7,1.46-1.19,2.14.27-.1.53-.17.79-.19s.5-.02.73.02c.36.05.69.18.99.39.31.21.57.52.78.92.5-.16,1.04-.3,1.62-.43s1.19-.24,1.85-.34c.13-.02.25,0,.34.08.1.07.15.17.16.29.02.12,0,.23-.08.32-.08.09-.17.15-.29.17-.62.08-1.21.18-1.76.3-.55.12-1.06.24-1.53.38.19.59.28,1.29.28,2.11,0,.12-.04.23-.13.31s-.19.13-.31.13-.23-.04-.32-.13-.13-.19-.13-.31c0-.36-.02-.68-.06-.99-.04-.3-.09-.59-.17-.85-.95.36-1.67.77-2.15,1.23s-.72.93-.72,1.41c0,.34.17.62.52.85.35.23.92.37,1.7.42.78.05,1.83-.01,3.12-.19.12-.02.23,0,.33.08.1.07.15.17.16.29.02.12,0,.23-.08.32-.08.09-.17.15-.29.17Z"/>
        <path d="m187.8,179.34c-.12,0-.23-.06-.31-.15-.09-.09-.13-.19-.13-.32,0-.13.06-.24.15-.32s.19-.13.32-.13c1.03.04,1.82-.1,2.38-.43.56-.32.84-.81.84-1.46s-.26-1.1-.78-1.43c-.52-.33-1.24-.49-2.14-.49-.43,0-.84.02-1.24.07-.4.05-.77.11-1.13.18v2.02c0,.83-.17,1.44-.5,1.83-.33.39-.86.59-1.59.59-.57,0-1.04-.16-1.41-.47s-.56-.76-.56-1.35c0-.73.29-1.37.88-1.92.58-.56,1.35-.99,2.3-1.3v-2.84c-.48.04-.94.07-1.39.09-.45.02-.87.04-1.25.05-.12,0-.23-.03-.31-.12s-.13-.19-.13-.32c0-.13.04-.24.13-.32s.19-.13.31-.13c.38,0,.8-.03,1.25-.05.45-.02.92-.05,1.39-.09v-2.27c0-.13.04-.24.13-.32s.19-.13.32-.13.22.04.31.13.13.19.13.32v2.2c.33-.04.64-.07.95-.11.3-.04.59-.08.86-.11.13-.02.25,0,.34.07.1.07.15.16.16.29.02.12,0,.23-.08.32-.07.09-.17.15-.3.17-.27.04-.57.08-.9.12-.33.04-.67.08-1.03.12v2.69c.37-.08.76-.13,1.16-.17.4-.04.8-.06,1.22-.06,1.21,0,2.15.25,2.82.75.67.5,1,1.16,1,2,0,.93-.36,1.64-1.09,2.13-.73.49-1.75.71-3.05.67Zm-4.14-.9c.41,0,.71-.11.91-.33.2-.22.29-.63.29-1.23v-1.75c-.72.26-1.28.6-1.68,1.02-.4.42-.6.86-.6,1.32,0,.28.09.51.27.69.18.18.45.27.8.27Zm7.94-5.8c-.17-.13-.39-.28-.68-.46-.28-.18-.57-.35-.87-.52s-.55-.31-.78-.41c-.1-.05-.18-.13-.23-.25-.05-.12-.05-.23,0-.34.06-.11.14-.19.26-.22.12-.04.23-.03.34.01.24.11.52.26.85.45.32.19.63.37.93.56s.53.35.7.48c.1.08.16.17.17.29.01.12-.02.23-.09.34-.07.09-.16.15-.28.16-.12.01-.23-.01-.34-.08Z"/>
        <path d="m202.54,179.73c-.93,0-1.73-.05-2.4-.14-.67-.09-1.24-.25-1.73-.46s-.92-.5-1.32-.87c-.17.12-.37.27-.6.43s-.46.33-.67.48-.37.27-.48.34c-.1.08-.22.1-.36.08-.14-.02-.25-.08-.32-.2-.07-.11-.08-.23-.06-.36.03-.13.1-.23.21-.29.11-.07.27-.16.48-.28.21-.12.42-.25.66-.4s.44-.27.62-.39v-3.43c0-.27-.05-.46-.14-.55-.09-.1-.28-.15-.55-.15h-1.02c-.12,0-.22-.04-.3-.13-.08-.08-.12-.19-.12-.31,0-.11.04-.21.12-.29.08-.08.18-.13.3-.13h1.23c.47,0,.81.11,1.02.33.21.22.32.56.32,1.03v3.5c.38.34.79.6,1.21.8.42.2.94.34,1.56.42s1.4.13,2.34.13c.87,0,1.65-.01,2.36-.04.7-.02,1.32-.05,1.84-.09.14,0,.26.03.36.11.1.08.15.19.15.32,0,.29-.16.44-.49.46-.31,0-.69.02-1.15.03-.46,0-.95.02-1.48.02s-1.06,0-1.59,0Zm-4.94-9.23c-.09.08-.2.12-.33.12s-.23-.05-.3-.15c-.22-.29-.5-.6-.84-.94s-.64-.63-.92-.86c-.08-.07-.12-.17-.12-.29,0-.12.04-.21.12-.29.08-.07.17-.12.29-.13.12-.01.22.02.32.11.2.17.41.36.64.57.23.21.45.43.66.64s.39.41.54.57c.09.09.13.2.12.33-.01.13-.07.23-.16.32Zm2.8,7.6c-.12.06-.24.07-.36.04-.12-.03-.21-.11-.27-.23-.05-.1-.05-.21-.02-.31.03-.1.11-.18.23-.24.5-.22.99-.52,1.47-.88s.92-.76,1.32-1.2c-.83-1.03-1.41-2.2-1.75-3.53h-.8c0,.88-.07,1.66-.17,2.35-.11.69-.26,1.3-.45,1.85-.19.55-.42,1.06-.69,1.55-.07.1-.15.17-.26.2-.11.03-.22.03-.33-.02-.11-.05-.18-.13-.22-.24-.03-.11-.02-.21.03-.31.34-.62.62-1.38.86-2.26s.36-2,.36-3.35v-1.57c0-.67.15-1.15.46-1.44.31-.28.82-.43,1.53-.43h5.11c.11,0,.21.04.28.13.07.08.11.18.11.29s-.04.21-.11.29c-.08.08-.17.12-.28.12h-5.04c-.43,0-.74.08-.92.23-.18.15-.27.44-.27.85v.95h3.93c.55,0,.94.15,1.17.46.23.31.25.72.05,1.25-.17.45-.38.89-.62,1.34s-.53.87-.86,1.28c.39.42.82.79,1.29,1.11.47.32.96.6,1.47.83.12.05.2.13.25.24s.04.22,0,.34c-.07.13-.16.22-.29.26-.13.04-.25.03-.39-.04-1.12-.56-2.08-1.25-2.88-2.09-.41.44-.86.84-1.36,1.22-.49.37-1.02.69-1.57.95Zm2.93-3.46c.25-.34.48-.68.69-1.04.21-.36.37-.72.5-1.08.19-.5,0-.76-.53-.76h-2.2c.19.54.41,1.05.67,1.54.26.49.55.93.87,1.34Z"/>
        <path d="m215.27,179.38c-1,0-1.79-.26-2.36-.77-.57-.51-.86-1.31-.86-2.39v-7.62c0-.12.04-.22.13-.31s.19-.13.31-.13c.13,0,.24.04.32.13s.13.19.13.31v7.62c0,.58.09,1.04.29,1.37s.46.57.82.71c.35.14.77.2,1.23.2.69,0,1.33-.19,1.92-.57s1.05-.92,1.38-1.62c.05-.11.13-.19.25-.23s.24-.04.35.02c.11.06.19.14.23.26.04.12.04.23-.02.34-.4.86-.97,1.52-1.71,1.99s-1.54.7-2.41.7Z"/>
        <path d="m226.54,177.61c-.38.02-.75-.07-1.09-.26-.35-.19-.64-.49-.88-.89-.23-.38-.43-.89-.6-1.53s-.29-1.33-.37-2.07c-.08-.75-.1-1.47-.05-2.18,0-.12.06-.22.15-.31.09-.08.19-.12.31-.11.13,0,.24.06.32.15.08.09.11.2.1.32-.04.68-.03,1.36.03,2.04s.16,1.29.31,1.86c.15.56.33,1.02.55,1.37.15.23.32.41.52.54s.41.18.63.17c.58,0,1.04-.54,1.39-1.58.04-.12.11-.21.22-.27.11-.06.22-.07.34-.03s.21.11.27.22c.06.11.06.22.01.34-.26.77-.58,1.32-.96,1.66-.38.34-.77.53-1.18.55Zm7.59-2.46c-.12.04-.24.03-.34-.02-.11-.05-.18-.13-.23-.25-.23-.6-.57-1.18-1.01-1.74-.44-.56-.93-1.01-1.45-1.36-.09-.07-.15-.16-.17-.29s0-.24.08-.33c.08-.1.18-.16.3-.16.12,0,.23.03.34.1.35.22.71.53,1.08.9.36.38.7.79,1,1.23.3.44.53.88.68,1.32.05.12.04.24-.01.34-.06.11-.15.18-.27.23Z"/>
        <path d="m237.86,179.16c-.09-.07-.15-.16-.18-.28-.03-.12,0-.23.06-.34.41-.64.77-1.37,1.08-2.16.31-.8.57-1.62.78-2.47.21-.85.38-1.67.49-2.46-.34.04-.66.07-.98.1s-.62.05-.91.07c-.12,0-.23-.03-.32-.11-.09-.08-.14-.19-.15-.31,0-.12.03-.23.11-.32.08-.09.19-.14.31-.14.3-.02.62-.04.97-.07.35-.03.71-.06,1.08-.1.05-.43.08-.83.1-1.2.02-.37.02-.71,0-1.02,0-.12.03-.23.11-.32.08-.09.19-.14.31-.15.13,0,.24.04.32.12s.13.18.14.31c.02.29.02.62,0,.98-.02.36-.05.75-.1,1.16.7-.08,1.31-.19,1.83-.32.12-.03.23,0,.34.06.1.07.17.17.2.29.03.12,0,.23-.06.34-.07.1-.16.16-.29.18-.32.07-.66.13-1.02.18-.36.06-.73.11-1.11.15-.12.85-.3,1.74-.53,2.67s-.51,1.83-.83,2.7c-.33.87-.71,1.64-1.13,2.31-.07.1-.16.17-.28.2s-.23,0-.34-.06Zm9.73-.32c-1.3.27-2.42.29-3.37.07-.95-.22-1.64-.73-2.07-1.51-.06-.1-.07-.21-.04-.34.03-.12.1-.21.22-.27.1-.06.21-.07.33-.04.12.03.21.11.27.22.25.45.6.77,1.04.95.44.19.96.28,1.55.27.59,0,1.22-.08,1.89-.22.12-.02.23,0,.33.06s.16.16.19.29c.03.12,0,.23-.06.34s-.16.16-.28.18Zm-.59-5.52c-.57-.13-1.18-.2-1.83-.22-.65-.01-1.29.04-1.9.16-.12.02-.23,0-.33-.07-.1-.07-.16-.16-.19-.28-.02-.13,0-.25.07-.34.07-.1.16-.16.28-.18.66-.12,1.36-.17,2.09-.16.73.01,1.41.09,2.02.22.12.03.21.1.27.2s.08.22.05.34-.09.21-.2.27c-.1.06-.21.08-.34.05Z"/>
        <path d="m257.27,179.38c-1,0-1.79-.26-2.36-.77-.57-.51-.86-1.31-.86-2.39v-7.62c0-.12.04-.22.13-.31s.19-.13.31-.13c.13,0,.24.04.32.13s.13.19.13.31v7.62c0,.58.09,1.04.29,1.37s.46.57.82.71c.35.14.77.2,1.23.2.69,0,1.33-.19,1.92-.57s1.05-.92,1.38-1.62c.05-.11.13-.19.25-.23s.24-.04.35.02c.11.06.19.14.23.26.04.12.04.23-.02.34-.4.86-.97,1.52-1.71,1.99s-1.54.7-2.41.7Z"/>
        <path d="m269.28,179.54c-.63,0-1.15-.15-1.55-.44-.4-.29-.6-.72-.6-1.28s.19-.97.58-1.29.92-.48,1.6-.48c.21,0,.43.01.65.04.22.02.44.06.67.1,0-.35-.02-.73-.02-1.14,0-.41-.02-.83-.04-1.27-1.08.03-2.08.03-2.98,0-.12,0-.22-.05-.31-.14-.08-.09-.12-.2-.11-.32,0-.12.06-.22.15-.31.09-.08.19-.12.31-.11.44.02.91.03,1.4.04.49,0,1,0,1.51,0,0-.35-.02-.71-.02-1.06,0-.35-.01-.7-.02-1.04-1.04.03-2.02.03-2.91,0-.12,0-.22-.05-.31-.14-.08-.09-.12-.2-.11-.32,0-.12.06-.22.15-.31.09-.08.19-.12.31-.11.43.02.89.03,1.37.03.49,0,.98,0,1.48,0,0-.32-.01-.62-.01-.92v-.83c0-.12.04-.22.13-.31s.19-.13.31-.13c.13,0,.24.04.32.13s.13.19.13.31c0,.26,0,.54,0,.82,0,.29,0,.58,0,.89.47-.02.92-.05,1.35-.09.43-.04.83-.09,1.18-.13.12-.02.23,0,.33.08.1.08.16.17.17.29s0,.23-.08.33c-.08.1-.17.16-.29.17-.38.04-.8.08-1.25.11s-.92.07-1.4.08c0,.34.02.69.03,1.04,0,.35.02.7.03,1.06.45-.02.88-.05,1.31-.09s.81-.09,1.16-.13c.12-.02.23,0,.33.08.1.07.16.17.17.29s0,.23-.08.33c-.08.1-.17.16-.29.17-.37.04-.78.08-1.22.11-.44.04-.89.07-1.36.08.02.49.03.95.04,1.41,0,.45.02.87.03,1.25.58.17,1.13.37,1.67.62.53.24.98.5,1.36.76.1.07.17.16.2.28s0,.23-.07.34c-.07.1-.16.16-.29.18s-.24,0-.34-.07c-.32-.21-.69-.43-1.12-.65-.43-.22-.89-.41-1.39-.57v.28c0,1.32-.75,1.97-2.25,1.97Zm0-.83c.51,0,.87-.1,1.06-.29.2-.2.29-.48.29-.85v-.52c-.23-.05-.46-.08-.69-.11-.22-.03-.45-.04-.67-.04-.41,0-.72.08-.94.25s-.32.39-.32.68.11.52.34.67c.22.15.53.22.92.22Z"/>
        <path d="m283.12,179.85c-.11.05-.23.05-.34,0-.12-.05-.2-.13-.25-.24-.05-.11-.05-.23,0-.34.05-.12.13-.2.25-.25.91-.38,1.58-.87,2.03-1.46s.71-1.24.8-1.95c-.35.41-.82.62-1.39.62-.63,0-1.12-.16-1.48-.48s-.54-.78-.54-1.37.19-1.05.56-1.41c.37-.36.87-.54,1.48-.54.33,0,.63.06.92.18-.03-.27-.05-.55-.08-.84-.02-.29-.04-.58-.05-.88-1.04.04-2.07.09-3.09.16-1.02.07-1.97.15-2.84.23-.12,0-.23-.02-.32-.1-.09-.08-.15-.17-.17-.29,0-.12.02-.23.1-.33.07-.1.17-.15.29-.16.86-.08,1.81-.14,2.86-.21,1.04-.07,2.1-.12,3.16-.15v-1.85c0-.12.04-.23.13-.32s.19-.13.31-.13c.13,0,.24.04.32.13s.13.19.13.32v1.82c.86-.03,1.68-.05,2.47-.06.79-.01,1.5-.02,2.13,0,.12,0,.22.04.31.13s.12.19.11.31c0,.12-.04.23-.13.32s-.19.13-.31.12c-.64-.02-1.36-.03-2.14-.02-.78,0-1.6.02-2.44.05,0,.42.03.84.05,1.27s.04.83.06,1.21c.14.21.25.46.33.75s.12.6.12.96c0,1.04-.29,2-.86,2.86-.57.86-1.41,1.51-2.51,1.95Zm1.11-4.41c.33,0,.59-.11.79-.3.2-.19.3-.46.3-.8,0-.09,0-.19,0-.29s-.01-.21-.02-.31c-.23-.31-.58-.46-1.04-.46-.34,0-.63.1-.86.29s-.34.46-.34.8c0,.35.12.61.32.81s.49.28.85.27Z"/>
        <path d="m294.73,179.82c-.36,0-.68-.09-.97-.26-.29-.17-.53-.41-.7-.7-.17-.29-.26-.62-.26-.97s.09-.69.26-.98c.17-.29.41-.52.7-.69.29-.17.62-.26.97-.26s.68.09.97.26.52.41.69.7c.17.29.26.62.26.97s-.09.68-.26.97c-.17.29-.4.53-.69.7s-.61.26-.97.26Zm0-.63c.35,0,.66-.13.91-.38s.38-.56.38-.92-.13-.66-.38-.92-.56-.38-.91-.38-.66.13-.92.38-.38.56-.38.92.13.66.38.92.56.38.92.38Z"/>
      </g>
      <circle class="cls-3" cx="17.34" cy="14.28" r="6.5"/>
      <g>
        <rect class="cls-1" x="305.34" y="4.88" width="17" height="17"/>
        <g>
          <line class="cls-1" x1="307.57" y1="7.1" x2="320.11" y2="19.65"/>
          <line class="cls-1" x1="320.11" y1="7.1" x2="307.57" y2="19.65"/>
        </g>
      </g>
    </g>
  </g>
</svg>